<svg width="265" height="152" viewBox="0 0 265 152" fill="none" xmlns="http://www.w3.org/2000/svg">
<rect x="46" y="3" width="180" height="109" fill="#FAFAFA"/>
<rect x="44" y="1" width="180" height="113" fill="white"/>
<path d="M44 114V1H224V59" stroke="#648CE5" stroke-linecap="round"/>
<path d="M173 114L27 114" stroke="#648CE5" stroke-linecap="round"/>
<path d="M220 5H48V25H220V5Z" fill="#E4EBFA"/>
<path d="M220 36H100V46H220V36Z" fill="#EDF2FC"/>
<path d="M92 36H48V46H92V36Z" fill="#EDF2FC"/>
<path d="M220 56H100V66H220V56Z" fill="#EDF2FC"/>
<path d="M92 56H48V66H92V56Z" fill="#EDF2FC"/>
<path d="M220 76H100V86H220V76Z" fill="#EDF2FC"/>
<path d="M92 76H48V86H92V76Z" fill="#EDF2FC"/>
<path d="M220 96H100V106H220V96Z" fill="#EDF2FC"/>
<path d="M92 96H48V106H92V96Z" fill="#EDF2FC"/>
<path d="M48 25L220 25" stroke="#648CE5" stroke-width="0.7787"/>
<path d="M96 5L96 114" stroke="#648CE5" stroke-width="0.7787"/>
<circle cx="217.5" cy="103.5" r="36.5" fill="#FAFAFA"/>
<path d="M245.282 126.876C257.256 112.692 256.666 91.4979 243.398 77.9821C229.328 63.6492 206.291 63.4361 191.958 77.5062C177.625 91.5764 177.412 114.613 191.482 128.946C204.727 142.439 225.953 143.421 240.333 131.734C241.242 131.026 242.537 131.084 243.361 131.924C243.889 132.461 244.136 133.181 244.037 133.92L243.963 134.359C243.864 135.098 244.112 135.817 244.639 136.354L257.815 149.869C259.235 151.317 261.595 151.338 263.042 149.918C264.489 148.497 264.534 146.161 263.09 144.69L249.821 131.267C249.294 130.73 248.58 130.469 247.839 130.555L247.398 130.62C246.657 130.706 245.943 130.445 245.416 129.908C244.591 129.067 244.534 127.748 245.282 126.876ZM240.158 125.626C227.389 138.161 206.85 137.971 194.316 125.202C181.781 112.433 181.971 91.8941 194.74 79.3593C207.509 66.8246 228.047 67.0146 240.582 79.7834C253.14 92.5756 252.927 113.091 240.158 125.626Z" fill="#C8D7F6"/>
<path d="M191.958 77.5062C177.625 91.5764 177.412 114.613 191.482 128.946C205.552 143.279 228.589 143.492 242.922 129.422C257.255 115.352 257.468 92.315 243.398 77.9821C229.328 63.6492 206.314 63.4132 191.958 77.5062ZM240.727 129.101C227.258 142.323 205.632 142.1 192.433 128.654C179.234 115.208 179.434 93.5592 192.88 80.3599C206.349 67.1377 227.975 67.3609 241.174 80.8067C254.374 94.2525 254.197 115.879 240.727 129.101Z" fill="#4978E0" fill-opacity="0.25"/>
<mask id="mask0_1239_159796" style="mask-type:alpha" maskUnits="userSpaceOnUse" x="190" y="75" width="58" height="59">
<path d="M239.101 125.186C227.79 136.29 209.597 136.122 198.494 124.811C187.39 113.5 187.558 95.3072 198.869 84.2037C210.18 73.1002 228.373 73.2685 239.476 84.5794C250.601 95.9123 250.433 114.061 239.101 125.186Z" fill="#C4C4C4"/>
</mask>
<g mask="url(#mask0_1239_159796)">
<path d="M224.01 74.0078H176.01V88.0078H224.01V74.0078Z" fill="#E4EBFA"/>
<path d="M224.01 94.0078H176.01V108.008H224.01V94.0078Z" fill="#E4EBFA"/>
</g>
<path d="M260.326 146.504C259.54 147.275 258.238 147.278 257.451 146.477L246.424 135.352C245.653 134.566 245.65 133.263 246.451 132.477C247.236 131.706 248.539 131.703 249.325 132.504L260.353 143.629C261.124 144.445 261.112 145.732 260.326 146.504Z" fill="#E4EBFA"/>
<path d="M263.634 148.827C263.286 149.484 262.735 150.025 262.072 150.36C260.655 151.075 258.928 150.786 257.824 149.661L244.682 136.273C244.163 135.745 243.92 134.992 244.018 134.265L244.068 133.81C244.165 133.083 243.922 132.33 243.404 131.802C242.592 130.975 241.296 130.895 240.379 131.614C225.958 143.336 204.881 141.547 191.627 127.999C179.5 114.499 180 91.4999 193.5 79.4997C203.5 69.4997 222.827 66.461 236.01 76.007C250.5 86.4999 253 104 246 117.5C236.643 134.265 218.434 138.646 203.5 130.5C188.026 122.06 184.591 102.035 191.627 89.3639" stroke="#284892" stroke-linecap="round" stroke-linejoin="round"/>
<path d="M239.331 124.619C227.505 136.228 208.484 136.052 196.875 124.226C185.266 112.4 185.442 93.3793 197.268 81.7702C209.094 70.1612 228.115 70.3372 239.724 82.1631C251.356 94.0119 251.18 112.987 239.331 124.619Z" fill="url(#paint0_linear_1239_159796)" fill-opacity="0.2"/>
<path d="M194.613 84.8059C200.613 76.8058 214.613 69.8057 230.113 76.3059" stroke="#284892" stroke-linecap="round"/>
<path d="M263.5 145L250.435 131.664C249.862 131.081 249.035 130.797 248.23 130.89L247.727 130.936C246.921 131.029 246.094 130.744 245.522 130.161C244.625 129.248 244.563 127.814 245.377 126.816C247.03 124.849 248.504 122.731 249.749 120.5" stroke="#284892" stroke-linecap="round"/>
<defs>
<linearGradient id="paint0_linear_1239_159796" x1="204.5" y1="135.5" x2="250" y2="49.0005" gradientUnits="userSpaceOnUse">
<stop stop-color="#648CE5" stop-opacity="0.6"/>
<stop offset="1" stop-color="white" stop-opacity="0"/>
</linearGradient>
</defs>
</svg>
