<svg width="749" height="383" viewBox="0 0 749 383" fill="none" xmlns="http://www.w3.org/2000/svg">
<rect width="749" height="383" fill="#FAFAFA"/>
<path d="M101 80L729 80" stroke="#D4D3D4"/>
<path d="M101 120L729 120" stroke="#D4D3D4"/>
<path d="M101 160L729 160" stroke="#D4D3D4"/>
<path d="M101 200L729 200" stroke="#D4D3D4"/>
<path d="M101 240L729 240" stroke="#D4D3D4"/>
<path d="M101 280L729 280" stroke="#D4D3D4"/>
<path d="M69.7654 85H63.2439V84.0908L66.6892 80.2627C67.1997 79.6839 67.5506 79.2145 67.742 78.8545C67.9379 78.4899 68.0359 78.1139 68.0359 77.7266C68.0359 77.207 67.8787 76.7809 67.5642 76.4482C67.2498 76.1156 66.8305 75.9492 66.3064 75.9492C65.6775 75.9492 65.1876 76.1292 64.8367 76.4893C64.4904 76.8447 64.3172 77.3415 64.3172 77.9795H63.0525C63.0525 77.0635 63.3465 76.3229 63.9344 75.7578C64.5268 75.1927 65.3175 74.9102 66.3064 74.9102C67.2316 74.9102 67.963 75.154 68.5008 75.6416C69.0385 76.1247 69.3074 76.7695 69.3074 77.5762C69.3074 78.556 68.6831 79.7227 67.4344 81.0762L64.7683 83.9678H69.7654V85ZM71.9775 80.0098L72.4834 75.0469H77.583V76.2158H73.5566L73.2559 78.9297C73.7435 78.6426 74.2972 78.499 74.917 78.499C75.8239 78.499 76.5439 78.7998 77.0771 79.4014C77.6104 79.9984 77.877 80.8073 77.877 81.8281C77.877 82.8535 77.599 83.6624 77.043 84.2549C76.4915 84.8428 75.7191 85.1367 74.7256 85.1367C73.846 85.1367 73.1283 84.8929 72.5723 84.4053C72.0163 83.9176 71.6995 83.2432 71.6221 82.3818H72.8184C72.8958 82.9515 73.0986 83.3822 73.4268 83.6738C73.7549 83.9609 74.1878 84.1045 74.7256 84.1045C75.3135 84.1045 75.7738 83.904 76.1064 83.5029C76.4437 83.1019 76.6123 82.5482 76.6123 81.8418C76.6123 81.1764 76.43 80.6432 76.0654 80.2422C75.7054 79.8366 75.2246 79.6338 74.623 79.6338C74.0716 79.6338 73.6387 79.7546 73.3242 79.9961L72.9893 80.2695L71.9775 80.0098ZM85.7902 80.7549C85.7902 82.236 85.5373 83.3366 85.0315 84.0566C84.5256 84.7767 83.7349 85.1367 82.6594 85.1367C81.5975 85.1367 80.8114 84.7858 80.301 84.084C79.7906 83.3776 79.5263 82.3249 79.508 80.9258V79.2373C79.508 77.7744 79.761 76.6875 80.2668 75.9766C80.7727 75.2656 81.5656 74.9102 82.6457 74.9102C83.7167 74.9102 84.5051 75.2542 85.011 75.9424C85.5168 76.626 85.7766 77.6833 85.7902 79.1143V80.7549ZM84.5256 79.0254C84.5256 77.9544 84.3752 77.1751 84.0744 76.6875C83.7736 76.1953 83.2974 75.9492 82.6457 75.9492C81.9986 75.9492 81.5269 76.193 81.2307 76.6807C80.9345 77.1683 80.7818 77.918 80.7727 78.9297V80.9531C80.7727 82.0286 80.9276 82.8239 81.2375 83.3389C81.552 83.8493 82.0259 84.1045 82.6594 84.1045C83.2837 84.1045 83.7463 83.863 84.0471 83.3799C84.3524 82.8968 84.5119 82.1357 84.5256 81.0967V79.0254Z" fill="#284892"/>
<path d="M69.7654 125H63.2439V124.091L66.6892 120.263C67.1997 119.684 67.5506 119.215 67.742 118.854C67.9379 118.49 68.0359 118.114 68.0359 117.727C68.0359 117.207 67.8787 116.781 67.5642 116.448C67.2498 116.116 66.8305 115.949 66.3064 115.949C65.6775 115.949 65.1876 116.129 64.8367 116.489C64.4904 116.845 64.3172 117.341 64.3172 117.979H63.0525C63.0525 117.063 63.3465 116.323 63.9344 115.758C64.5268 115.193 65.3175 114.91 66.3064 114.91C67.2316 114.91 67.963 115.154 68.5008 115.642C69.0385 116.125 69.3074 116.77 69.3074 117.576C69.3074 118.556 68.6831 119.723 67.4344 121.076L64.7683 123.968H69.7654V125ZM77.6377 120.755C77.6377 122.236 77.3848 123.337 76.8789 124.057C76.373 124.777 75.5824 125.137 74.5068 125.137C73.445 125.137 72.6589 124.786 72.1484 124.084C71.638 123.378 71.3737 122.325 71.3555 120.926V119.237C71.3555 117.774 71.6084 116.688 72.1143 115.977C72.6201 115.266 73.4131 114.91 74.4932 114.91C75.5641 114.91 76.3525 115.254 76.8584 115.942C77.3643 116.626 77.624 117.683 77.6377 119.114V120.755ZM76.373 119.025C76.373 117.954 76.2227 117.175 75.9219 116.688C75.6211 116.195 75.1449 115.949 74.4932 115.949C73.846 115.949 73.3743 116.193 73.0781 116.681C72.7819 117.168 72.6292 117.918 72.6201 118.93V120.953C72.6201 122.029 72.7751 122.824 73.085 123.339C73.3994 123.849 73.8734 124.104 74.5068 124.104C75.1312 124.104 75.5938 123.863 75.8945 123.38C76.1999 122.897 76.3594 122.136 76.373 121.097V119.025ZM85.7902 120.755C85.7902 122.236 85.5373 123.337 85.0315 124.057C84.5256 124.777 83.7349 125.137 82.6594 125.137C81.5975 125.137 80.8114 124.786 80.301 124.084C79.7906 123.378 79.5263 122.325 79.508 120.926V119.237C79.508 117.774 79.761 116.688 80.2668 115.977C80.7727 115.266 81.5656 114.91 82.6457 114.91C83.7167 114.91 84.5051 115.254 85.011 115.942C85.5168 116.626 85.7766 117.683 85.7902 119.114V120.755ZM84.5256 119.025C84.5256 117.954 84.3752 117.175 84.0744 116.688C83.7736 116.195 83.2974 115.949 82.6457 115.949C81.9986 115.949 81.5269 116.193 81.2307 116.681C80.9345 117.168 80.7818 117.918 80.7727 118.93V120.953C80.7727 122.029 80.9276 122.824 81.2375 123.339C81.552 123.849 82.0259 124.104 82.6594 124.104C83.2837 124.104 83.7463 123.863 84.0471 123.38C84.3524 122.897 84.5119 122.136 84.5256 121.097V119.025Z" fill="#284892"/>
<path d="M67.4002 165H66.1287V156.571L63.5789 157.508V156.359L67.2019 154.999H67.4002V165ZM71.9775 160.01L72.4834 155.047H77.583V156.216H73.5566L73.2559 158.93C73.7435 158.643 74.2972 158.499 74.917 158.499C75.8239 158.499 76.5439 158.8 77.0771 159.401C77.6104 159.998 77.877 160.807 77.877 161.828C77.877 162.854 77.599 163.662 77.043 164.255C76.4915 164.843 75.7191 165.137 74.7256 165.137C73.846 165.137 73.1283 164.893 72.5723 164.405C72.0163 163.918 71.6995 163.243 71.6221 162.382H72.8184C72.8958 162.951 73.0986 163.382 73.4268 163.674C73.7549 163.961 74.1878 164.104 74.7256 164.104C75.3135 164.104 75.7738 163.904 76.1064 163.503C76.4437 163.102 76.6123 162.548 76.6123 161.842C76.6123 161.176 76.43 160.643 76.0654 160.242C75.7054 159.837 75.2246 159.634 74.623 159.634C74.0716 159.634 73.6387 159.755 73.3242 159.996L72.9893 160.27L71.9775 160.01ZM85.7902 160.755C85.7902 162.236 85.5373 163.337 85.0315 164.057C84.5256 164.777 83.7349 165.137 82.6594 165.137C81.5975 165.137 80.8114 164.786 80.301 164.084C79.7906 163.378 79.5263 162.325 79.508 160.926V159.237C79.508 157.774 79.761 156.688 80.2668 155.977C80.7727 155.266 81.5656 154.91 82.6457 154.91C83.7167 154.91 84.5051 155.254 85.011 155.942C85.5168 156.626 85.7766 157.683 85.7902 159.114V160.755ZM84.5256 159.025C84.5256 157.954 84.3752 157.175 84.0744 156.688C83.7736 156.195 83.2974 155.949 82.6457 155.949C81.9986 155.949 81.5269 156.193 81.2307 156.681C80.9345 157.168 80.7818 157.918 80.7727 158.93V160.953C80.7727 162.029 80.9276 162.824 81.2375 163.339C81.552 163.849 82.0259 164.104 82.6594 164.104C83.2837 164.104 83.7463 163.863 84.0471 163.38C84.3524 162.897 84.5119 162.136 84.5256 161.097V159.025Z" fill="#284892"/>
<path d="M67.4002 205H66.1287V196.571L63.5789 197.508V196.359L67.2019 194.999H67.4002V205ZM77.6377 200.755C77.6377 202.236 77.3848 203.337 76.8789 204.057C76.373 204.777 75.5824 205.137 74.5068 205.137C73.445 205.137 72.6589 204.786 72.1484 204.084C71.638 203.378 71.3737 202.325 71.3555 200.926V199.237C71.3555 197.774 71.6084 196.688 72.1143 195.977C72.6201 195.266 73.4131 194.91 74.4932 194.91C75.5641 194.91 76.3525 195.254 76.8584 195.942C77.3643 196.626 77.624 197.683 77.6377 199.114V200.755ZM76.373 199.025C76.373 197.954 76.2227 197.175 75.9219 196.688C75.6211 196.195 75.1449 195.949 74.4932 195.949C73.846 195.949 73.3743 196.193 73.0781 196.681C72.7819 197.168 72.6292 197.918 72.6201 198.93V200.953C72.6201 202.029 72.7751 202.824 73.085 203.339C73.3994 203.849 73.8734 204.104 74.5068 204.104C75.1312 204.104 75.5938 203.863 75.8945 203.38C76.1999 202.897 76.3594 202.136 76.373 201.097V199.025ZM85.7902 200.755C85.7902 202.236 85.5373 203.337 85.0315 204.057C84.5256 204.777 83.7349 205.137 82.6594 205.137C81.5975 205.137 80.8114 204.786 80.301 204.084C79.7906 203.378 79.5263 202.325 79.508 200.926V199.237C79.508 197.774 79.761 196.688 80.2668 195.977C80.7727 195.266 81.5656 194.91 82.6457 194.91C83.7167 194.91 84.5051 195.254 85.011 195.942C85.5168 196.626 85.7766 197.683 85.7902 199.114V200.755ZM84.5256 199.025C84.5256 197.954 84.3752 197.175 84.0744 196.688C83.7736 196.195 83.2974 195.949 82.6457 195.949C81.9986 195.949 81.5269 196.193 81.2307 196.681C80.9345 197.168 80.7818 197.918 80.7727 198.93V200.953C80.7727 202.029 80.9276 202.824 81.2375 203.339C81.552 203.849 82.0259 204.104 82.6594 204.104C83.2837 204.104 83.7463 203.863 84.0471 203.38C84.3524 202.897 84.5119 202.136 84.5256 201.097V199.025Z" fill="#284892"/>
<path d="M71.9013 240.01L72.4071 235.047H77.5067V236.216H73.4804L73.1796 238.93C73.6672 238.643 74.2209 238.499 74.8407 238.499C75.7476 238.499 76.4677 238.8 77.0009 239.401C77.5341 239.998 77.8007 240.807 77.8007 241.828C77.8007 242.854 77.5227 243.662 76.9667 244.255C76.4153 244.843 75.6428 245.137 74.6493 245.137C73.7698 245.137 73.052 244.893 72.496 244.405C71.94 243.918 71.6233 243.243 71.5458 242.382H72.7421C72.8196 242.951 73.0224 243.382 73.3505 243.674C73.6786 243.961 74.1115 244.104 74.6493 244.104C75.2372 244.104 75.6975 243.904 76.0302 243.503C76.3674 243.102 76.536 242.548 76.536 241.842C76.536 241.176 76.3537 240.643 75.9892 240.242C75.6291 239.837 75.1483 239.634 74.5468 239.634C73.9953 239.634 73.5624 239.755 73.2479 239.996L72.913 240.27L71.9013 240.01ZM85.714 240.755C85.714 242.236 85.461 243.337 84.9552 244.057C84.4493 244.777 83.6586 245.137 82.5831 245.137C81.5213 245.137 80.7351 244.786 80.2247 244.084C79.7143 243.378 79.45 242.325 79.4317 240.926V239.237C79.4317 237.774 79.6847 236.688 80.1905 235.977C80.6964 235.266 81.4894 234.91 82.5694 234.91C83.6404 234.91 84.4288 235.254 84.9347 235.942C85.4405 236.626 85.7003 237.683 85.714 239.114V240.755ZM84.4493 239.025C84.4493 237.954 84.2989 237.175 83.9982 236.688C83.6974 236.195 83.2211 235.949 82.5694 235.949C81.9223 235.949 81.4506 236.193 81.1544 236.681C80.8582 237.168 80.7055 237.918 80.6964 238.93V240.953C80.6964 242.029 80.8513 242.824 81.1612 243.339C81.4757 243.849 81.9496 244.104 82.5831 244.104C83.2075 244.104 83.67 243.863 83.9708 243.38C84.2761 242.897 84.4357 242.136 84.4493 241.097V239.025Z" fill="#284892"/>
<path d="M86.1377 280.755C86.1377 282.236 85.8848 283.337 85.3789 284.057C84.873 284.777 84.0824 285.137 83.0068 285.137C81.945 285.137 81.1589 284.786 80.6484 284.084C80.138 283.378 79.8737 282.325 79.8555 280.926V279.237C79.8555 277.774 80.1084 276.688 80.6143 275.977C81.1201 275.266 81.9131 274.91 82.9932 274.91C84.0641 274.91 84.8525 275.254 85.3584 275.942C85.8643 276.626 86.124 277.683 86.1377 279.114V280.755ZM84.873 279.025C84.873 277.954 84.7227 277.175 84.4219 276.688C84.1211 276.195 83.6449 275.949 82.9932 275.949C82.346 275.949 81.8743 276.193 81.5781 276.681C81.2819 277.168 81.1292 277.918 81.1201 278.93V280.953C81.1201 282.029 81.2751 282.824 81.585 283.339C81.8994 283.849 82.3734 284.104 83.0068 284.104C83.6312 284.104 84.0938 283.863 84.3945 283.38C84.6999 282.897 84.8594 282.136 84.873 281.097V279.025Z" fill="#284892"/>
<path d="M28.7804 41.7598C28.6802 42.8216 28.2882 43.651 27.6046 44.248C26.921 44.8405 26.0119 45.1367 24.8771 45.1367C24.0841 45.1367 23.3846 44.9499 22.7785 44.5762C22.1769 44.1979 21.7121 43.6624 21.3839 42.9697C21.0558 42.277 20.8849 41.4727 20.8712 40.5566V39.627C20.8712 38.6882 21.0376 37.861 21.3703 37.1455C21.7029 36.43 22.1792 35.8786 22.799 35.4912C23.4233 35.1038 24.1434 34.9102 24.9591 34.9102C26.0574 34.9102 26.9415 35.2087 27.6115 35.8057C28.2814 36.4027 28.671 37.2458 28.7804 38.335H27.0578C26.9757 37.6195 26.7661 37.1045 26.4288 36.79C26.0962 36.471 25.6063 36.3115 24.9591 36.3115C24.2072 36.3115 23.6284 36.5872 23.2228 37.1387C22.8218 37.6855 22.6167 38.4899 22.6076 39.5518V40.4336C22.6076 41.5091 22.799 42.3294 23.1818 42.8945C23.5691 43.4596 24.1343 43.7422 24.8771 43.7422C25.5561 43.7422 26.0665 43.5895 26.4083 43.2842C26.7501 42.9788 26.9666 42.4707 27.0578 41.7598H28.7804ZM33.7201 45.1367C32.6673 45.1367 31.8128 44.8063 31.1566 44.1455C30.5049 43.4801 30.1791 42.596 30.1791 41.4932V41.2881C30.1791 40.5498 30.3203 39.8913 30.6029 39.3125C30.89 38.7292 31.291 38.2757 31.806 37.9521C32.321 37.6286 32.8952 37.4668 33.5287 37.4668C34.5358 37.4668 35.3128 37.7881 35.8597 38.4307C36.4112 39.0732 36.6869 39.9824 36.6869 41.1582V41.8281H31.8539C31.904 42.4388 32.1068 42.9219 32.4623 43.2773C32.8223 43.6328 33.2735 43.8105 33.8158 43.8105C34.5768 43.8105 35.1966 43.5029 35.6752 42.8877L36.5707 43.7422C36.2744 44.1842 35.878 44.5283 35.3812 44.7744C34.889 45.016 34.3353 45.1367 33.7201 45.1367ZM33.5218 38.7998C33.0661 38.7998 32.697 38.9593 32.4144 39.2783C32.1364 39.5973 31.9587 40.0417 31.8812 40.6113H35.0462V40.4883C35.0098 39.9323 34.8617 39.513 34.6019 39.2305C34.3421 38.9434 33.9821 38.7998 33.5218 38.7998ZM44.5386 45H42.8775V42.0127H39.9996V45H38.3384V37.6035H39.9996V40.6865H42.8775V37.6035H44.5386V45ZM52.4246 38.9229H50.0252V45H48.364V38.9229H45.992V37.6035H52.4246V38.9229ZM59.75 37.6035V45H58.0957V42.2861H56.5439L54.9648 45H53.2422L54.9854 42.0127C54.5296 41.8213 54.1787 41.5479 53.9326 41.1924C53.6911 40.8369 53.5703 40.429 53.5703 39.9688C53.5703 39.2806 53.8346 38.7178 54.3633 38.2803C54.8965 37.8382 55.6143 37.6126 56.5166 37.6035H59.75ZM55.2314 40.0098C55.2314 40.3197 55.3454 40.5726 55.5732 40.7686C55.8057 40.96 56.1019 41.0557 56.4619 41.0557H58.0957V38.9229H56.5645C56.1589 38.9229 55.8353 39.0254 55.5938 39.2305C55.3522 39.4355 55.2314 39.6953 55.2314 40.0098ZM65.3664 38.0137C66.2961 38.0137 67.0412 38.3258 67.6018 38.9502C68.1623 39.57 68.4426 40.4131 68.4426 41.4795V41.5615C68.4426 42.6279 68.1373 43.4915 67.5266 44.1523C66.9205 44.8132 66.0956 45.1436 65.052 45.1436C64.0357 45.1436 63.2154 44.8063 62.591 44.1318C61.9667 43.4574 61.6545 42.5368 61.6545 41.3701V40.8916C61.6545 39.2965 61.9371 38.0342 62.5022 37.1045C63.0673 36.1748 63.9104 35.5938 65.0315 35.3613C65.6604 35.2337 66.066 35.0993 66.2483 34.958C66.4351 34.8122 66.5285 34.6162 66.5285 34.3701H67.8684C67.8684 34.8304 67.7932 35.2041 67.6428 35.4912C67.4924 35.7783 67.2623 36.013 66.9524 36.1953C66.6425 36.373 66.1093 36.5417 65.3527 36.7012C64.66 36.847 64.1314 37.1068 63.7668 37.4805C63.4068 37.8542 63.1652 38.3714 63.0422 39.0322C63.703 38.3532 64.4777 38.0137 65.3664 38.0137ZM65.0383 39.3467C64.5005 39.3467 64.079 39.529 63.7736 39.8936C63.4683 40.2536 63.3156 40.8096 63.3156 41.5615C63.3156 42.2725 63.466 42.8262 63.7668 43.2227C64.0676 43.6191 64.496 43.8174 65.052 43.8174C65.6034 43.8174 66.0295 43.6191 66.3303 43.2227C66.6356 42.8216 66.7883 42.2201 66.7883 41.418C66.7883 40.7799 66.6356 40.2764 66.3303 39.9072C66.0295 39.5335 65.5988 39.3467 65.0383 39.3467ZM76.3901 41.377C76.3901 42.5208 76.1303 43.4346 75.6108 44.1182C75.0912 44.7972 74.394 45.1367 73.519 45.1367C72.7078 45.1367 72.0584 44.8701 71.5707 44.3369V47.8438H69.9096V37.6035H71.4408L71.5092 38.3555C71.9968 37.763 72.6599 37.4668 73.4985 37.4668C74.4008 37.4668 75.1072 37.804 75.6176 38.4785C76.1326 39.1484 76.3901 40.0804 76.3901 41.2744V41.377ZM74.7358 41.2334C74.7358 40.4951 74.5877 39.9095 74.2914 39.4766C73.9998 39.0436 73.5805 38.8271 73.0336 38.8271C72.3546 38.8271 71.867 39.1074 71.5707 39.668V42.9492C71.8715 43.5234 72.3637 43.8105 73.0473 43.8105C73.5759 43.8105 73.9884 43.5986 74.2846 43.1748C74.5854 42.7464 74.7358 42.0993 74.7358 41.2334ZM79.7438 39.9551H81.3707C81.9769 39.9551 82.5055 40.0599 82.9567 40.2695C83.4079 40.4792 83.7496 40.7731 83.9821 41.1514C84.2191 41.5296 84.3375 41.9694 84.3375 42.4707C84.3375 43.2318 84.0687 43.8424 83.5309 44.3027C82.9931 44.763 82.2776 44.9954 81.3844 45H78.0827V37.6035H79.7438V39.9551ZM79.7438 41.2881V43.6738H81.3639C81.7695 43.6738 82.0885 43.5736 82.3209 43.373C82.5579 43.168 82.6764 42.8786 82.6764 42.5049C82.6764 42.1312 82.5602 41.8372 82.3278 41.623C82.0999 41.4043 81.79 41.2926 81.3981 41.2881H79.7438ZM86.9598 43.25C87.2697 43.25 87.509 43.3389 87.6776 43.5166C87.8462 43.6898 87.9305 43.9085 87.9305 44.1729C87.9305 44.4326 87.8462 44.6491 87.6776 44.8223C87.509 44.9909 87.2697 45.0752 86.9598 45.0752C86.6636 45.0752 86.4289 44.9909 86.2557 44.8223C86.0825 44.6536 85.996 44.4372 85.996 44.1729C85.996 43.9085 86.0803 43.6898 86.2489 43.5166C86.4175 43.3389 86.6545 43.25 86.9598 43.25ZM86.9598 37.4463C87.2697 37.4463 87.509 37.5352 87.6776 37.7129C87.8462 37.8861 87.9305 38.1048 87.9305 38.3691C87.9305 38.6289 87.8462 38.8454 87.6776 39.0186C87.509 39.1872 87.2697 39.2715 86.9598 39.2715C86.6636 39.2715 86.4289 39.1872 86.2557 39.0186C86.0825 38.8499 85.996 38.6335 85.996 38.3691C85.996 38.1048 86.0803 37.8861 86.2489 37.7129C86.4175 37.5352 86.6545 37.4463 86.9598 37.4463Z" fill="#284892"/>
<path d="M140.577 45H134.056V44.0908L137.501 40.2627C138.012 39.6839 138.363 39.2145 138.554 38.8545C138.75 38.4899 138.848 38.1139 138.848 37.7266C138.848 37.207 138.691 36.7809 138.376 36.4482C138.062 36.1156 137.643 35.9492 137.119 35.9492C136.49 35.9492 136 36.1292 135.649 36.4893C135.302 36.8447 135.129 37.3415 135.129 37.9795H133.865C133.865 37.0635 134.159 36.3229 134.746 35.7578C135.339 35.1927 136.13 34.9102 137.119 34.9102C138.044 34.9102 138.775 35.154 139.313 35.6416C139.851 36.1247 140.119 36.7695 140.119 37.5762C140.119 38.556 139.495 39.7227 138.246 41.0762L135.58 43.9678H140.577V45ZM148.634 35.7578L144.512 45H143.186L147.295 36.0859H141.908V35.0469H148.634V35.7578ZM150.45 46.9824L149.732 46.4902C150.161 45.8932 150.384 45.278 150.402 44.6445V43.5029H151.639V44.4941C151.639 44.9544 151.526 45.4147 151.298 45.875C151.074 46.3353 150.792 46.7044 150.45 46.9824ZM163.344 45H162.079V38.6494H158.675V45H157.404V37.6035H163.344V45ZM171.708 45H170.444V41.8418H167.046V45H165.775V37.6035H167.046V40.8096H170.444V37.6035H171.708V45ZM174.064 44.3369C174.064 44.1182 174.128 43.9359 174.256 43.79C174.388 43.6442 174.584 43.5713 174.843 43.5713C175.103 43.5713 175.299 43.6442 175.431 43.79C175.568 43.9359 175.636 44.1182 175.636 44.3369C175.636 44.5465 175.568 44.722 175.431 44.8633C175.299 45.0046 175.103 45.0752 174.843 45.0752C174.584 45.0752 174.388 45.0046 174.256 44.8633C174.128 44.722 174.064 44.5465 174.064 44.3369Z" fill="#284892"/>
<path d="M229.336 45H222.815V44.0908L226.26 40.2627C226.771 39.6839 227.121 39.2145 227.313 38.8545C227.509 38.4899 227.607 38.1139 227.607 37.7266C227.607 37.207 227.45 36.7809 227.135 36.4482C226.821 36.1156 226.401 35.9492 225.877 35.9492C225.248 35.9492 224.758 36.1292 224.408 36.4893C224.061 36.8447 223.888 37.3415 223.888 37.9795H222.623C222.623 37.0635 222.917 36.3229 223.505 35.7578C224.098 35.1927 224.888 34.9102 225.877 34.9102C226.802 34.9102 227.534 35.154 228.072 35.6416C228.609 36.1247 228.878 36.7695 228.878 37.5762C228.878 38.556 228.254 39.7227 227.005 41.0762L224.339 43.9678H229.336V45ZM237.003 37.6445C237.003 38.1413 236.871 38.5833 236.607 38.9707C236.347 39.3581 235.994 39.6611 235.547 39.8799C236.067 40.1032 236.477 40.429 236.778 40.8574C237.083 41.2858 237.236 41.7712 237.236 42.3135C237.236 43.1748 236.944 43.8607 236.361 44.3711C235.782 44.8815 235.019 45.1367 234.071 45.1367C233.114 45.1367 232.346 44.8815 231.767 44.3711C231.193 43.8561 230.906 43.1702 230.906 42.3135C230.906 41.7757 231.052 41.2904 231.343 40.8574C231.64 40.4245 232.047 40.0964 232.567 39.873C232.125 39.6543 231.776 39.3512 231.521 38.9639C231.266 38.5765 231.138 38.1367 231.138 37.6445C231.138 36.806 231.407 36.1406 231.945 35.6484C232.483 35.1562 233.191 34.9102 234.071 34.9102C234.946 34.9102 235.652 35.1562 236.19 35.6484C236.732 36.1406 237.003 36.806 237.003 37.6445ZM235.971 42.2861C235.971 41.7301 235.794 41.2767 235.438 40.9258C235.087 40.5749 234.627 40.3994 234.057 40.3994C233.488 40.3994 233.03 40.5726 232.683 40.9189C232.341 41.2653 232.17 41.721 232.17 42.2861C232.17 42.8512 232.337 43.2956 232.67 43.6191C233.007 43.9427 233.474 44.1045 234.071 44.1045C234.663 44.1045 235.128 43.9427 235.465 43.6191C235.803 43.291 235.971 42.8467 235.971 42.2861ZM234.071 35.9492C233.574 35.9492 233.171 36.1042 232.861 36.4141C232.556 36.7194 232.403 37.1364 232.403 37.665C232.403 38.1709 232.553 38.5811 232.854 38.8955C233.159 39.2054 233.565 39.3604 234.071 39.3604C234.577 39.3604 234.98 39.2054 235.281 38.8955C235.586 38.5811 235.739 38.1709 235.739 37.665C235.739 37.1592 235.582 36.7467 235.267 36.4277C234.953 36.1087 234.554 35.9492 234.071 35.9492ZM239.209 46.9824L238.491 46.4902C238.919 45.8932 239.143 45.278 239.161 44.6445V43.5029H240.398V44.4941C240.398 44.9544 240.284 45.4147 240.056 45.875C239.833 46.3353 239.551 46.7044 239.209 46.9824ZM246.169 45V37.6035H249.054C250.038 37.6035 250.793 37.7767 251.317 38.123C251.845 38.4648 252.11 38.9684 252.11 39.6338C252.11 39.9756 252.007 40.2855 251.802 40.5635C251.597 40.8369 251.294 41.0465 250.893 41.1924C251.339 41.2972 251.697 41.5023 251.966 41.8076C252.239 42.113 252.376 42.4775 252.376 42.9014C252.376 43.5804 252.126 44.0999 251.624 44.46C251.127 44.82 250.423 45 249.512 45H246.169ZM247.434 41.7529V43.9814H249.526C250.054 43.9814 250.448 43.8835 250.708 43.6875C250.973 43.4915 251.105 43.2158 251.105 42.8604C251.105 42.1221 250.562 41.7529 249.478 41.7529H247.434ZM247.434 40.7412H249.068C250.252 40.7412 250.845 40.3949 250.845 39.7021C250.845 39.0094 250.284 38.6517 249.163 38.6289H247.434V40.7412ZM259.756 38.6289H257.275V45H256.01V38.6289H253.577V37.6035H259.756V38.6289ZM261.305 44.3369C261.305 44.1182 261.369 43.9359 261.497 43.79C261.629 43.6442 261.825 43.5713 262.085 43.5713C262.344 43.5713 262.54 43.6442 262.673 43.79C262.809 43.9359 262.878 44.1182 262.878 44.3369C262.878 44.5465 262.809 44.722 262.673 44.8633C262.54 45.0046 262.344 45.0752 262.085 45.0752C261.825 45.0752 261.629 45.0046 261.497 44.8633C261.369 44.722 261.305 44.5465 261.305 44.3369Z" fill="#284892"/>
<path d="M317.063 45H310.541V44.0908L313.987 40.2627C314.497 39.6839 314.848 39.2145 315.039 38.8545C315.235 38.4899 315.333 38.1139 315.333 37.7266C315.333 37.207 315.176 36.7809 314.862 36.4482C314.547 36.1156 314.128 35.9492 313.604 35.9492C312.975 35.9492 312.485 36.1292 312.134 36.4893C311.788 36.8447 311.615 37.3415 311.615 37.9795H310.35C310.35 37.0635 310.644 36.3229 311.232 35.7578C311.824 35.1927 312.615 34.9102 313.604 34.9102C314.529 34.9102 315.26 35.154 315.798 35.6416C316.336 36.1247 316.605 36.7695 316.605 37.5762C316.605 38.556 315.98 39.7227 314.732 41.0762L312.066 43.9678H317.063V45ZM323.541 40.625C323.276 40.9395 322.96 41.1924 322.59 41.3838C322.226 41.5752 321.825 41.6709 321.387 41.6709C320.813 41.6709 320.312 41.5296 319.883 41.2471C319.46 40.9645 319.131 40.568 318.899 40.0576C318.667 39.5426 318.55 38.9753 318.55 38.3555C318.55 37.6901 318.676 37.0908 318.926 36.5576C319.182 36.0244 319.542 35.6165 320.006 35.334C320.471 35.0514 321.014 34.9102 321.633 34.9102C322.618 34.9102 323.392 35.2793 323.958 36.0176C324.527 36.7513 324.812 37.7539 324.812 39.0254V39.3945C324.812 41.3314 324.429 42.7464 323.664 43.6396C322.898 44.5283 321.743 44.984 320.198 45.0068H319.952V43.9404H320.218C321.262 43.9222 322.064 43.651 322.625 43.127C323.185 42.5983 323.49 41.7643 323.541 40.625ZM321.592 40.625C322.016 40.625 322.406 40.4951 322.761 40.2354C323.121 39.9756 323.383 39.6543 323.547 39.2715V38.7656C323.547 37.9362 323.367 37.2617 323.007 36.7422C322.647 36.2227 322.192 35.9629 321.64 35.9629C321.084 35.9629 320.638 36.1771 320.3 36.6055C319.963 37.0293 319.795 37.5898 319.795 38.2871C319.795 38.9661 319.956 39.5267 320.28 39.9688C320.608 40.4062 321.045 40.625 321.592 40.625ZM326.935 46.9824L326.218 46.4902C326.646 45.8932 326.869 45.278 326.887 44.6445V43.5029H328.125V44.4941C328.125 44.9544 328.011 45.4147 327.783 45.875C327.56 46.3353 327.277 46.7044 326.935 46.9824ZM336.746 44.1045C337.197 44.1045 337.592 43.9678 337.929 43.6943C338.266 43.4209 338.453 43.0791 338.489 42.6689H339.686C339.663 43.0928 339.517 43.4961 339.248 43.8789C338.979 44.2617 338.619 44.5671 338.168 44.7949C337.722 45.0228 337.248 45.1367 336.746 45.1367C335.739 45.1367 334.937 44.8018 334.34 44.1318C333.748 43.4574 333.451 42.5368 333.451 41.3701V41.1582C333.451 40.4382 333.584 39.7979 333.848 39.2373C334.112 38.6768 334.49 38.2415 334.983 37.9316C335.479 37.6217 336.065 37.4668 336.739 37.4668C337.569 37.4668 338.257 37.7152 338.804 38.2119C339.355 38.7087 339.649 39.3535 339.686 40.1465H338.489C338.453 39.668 338.271 39.276 337.943 38.9707C337.619 38.6608 337.218 38.5059 336.739 38.5059C336.097 38.5059 335.598 38.7383 335.242 39.2031C334.891 39.6634 334.716 40.3311 334.716 41.2061V41.4453C334.716 42.2975 334.891 42.9538 335.242 43.4141C335.593 43.8743 336.095 44.1045 336.746 44.1045ZM347.647 41.3838C347.647 42.5094 347.389 43.4163 346.874 44.1045C346.359 44.7926 345.662 45.1367 344.783 45.1367C343.885 45.1367 343.178 44.8519 342.664 44.2822V47.8438H341.399V37.6035H342.554L342.616 38.4238C343.131 37.7858 343.846 37.4668 344.762 37.4668C345.651 37.4668 346.353 37.8018 346.868 38.4717C347.387 39.1416 347.647 40.0736 347.647 41.2676V41.3838ZM346.382 41.2402C346.382 40.4062 346.205 39.7477 345.849 39.2646C345.494 38.7816 345.006 38.54 344.386 38.54C343.621 38.54 343.046 38.8796 342.664 39.5586V43.0928C343.042 43.7673 343.621 44.1045 344.4 44.1045C345.006 44.1045 345.487 43.8652 345.842 43.3867C346.202 42.9036 346.382 42.1882 346.382 41.2402ZM349.579 44.3369C349.579 44.1182 349.643 43.9359 349.77 43.79C349.902 43.6442 350.098 43.5713 350.358 43.5713C350.618 43.5713 350.814 43.6442 350.946 43.79C351.083 43.9359 351.151 44.1182 351.151 44.3369C351.151 44.5465 351.083 44.722 350.946 44.8633C350.814 45.0046 350.618 45.0752 350.358 45.0752C350.098 45.0752 349.902 45.0046 349.77 44.8633C349.643 44.722 349.579 44.5465 349.579 44.3369Z" fill="#284892"/>
<path d="M400.804 39.4082H401.754C402.351 39.3991 402.821 39.2419 403.162 38.9365C403.504 38.6312 403.675 38.2188 403.675 37.6992C403.675 36.5326 403.094 35.9492 401.932 35.9492C401.385 35.9492 400.948 36.1064 400.619 36.4209C400.296 36.7308 400.134 37.1432 400.134 37.6582H398.869C398.869 36.8698 399.157 36.2158 399.731 35.6963C400.31 35.1722 401.043 34.9102 401.932 34.9102C402.871 34.9102 403.607 35.1585 404.14 35.6553C404.673 36.152 404.94 36.8424 404.94 37.7266C404.94 38.1595 404.799 38.5788 404.516 38.9844C404.238 39.39 403.857 39.693 403.374 39.8936C403.921 40.0667 404.343 40.3538 404.639 40.7549C404.94 41.1559 405.09 41.6458 405.09 42.2246C405.09 43.1178 404.799 43.8265 404.215 44.3506C403.632 44.8747 402.873 45.1367 401.939 45.1367C401.005 45.1367 400.244 44.8838 399.656 44.3779C399.072 43.8721 398.781 43.2044 398.781 42.375H400.052C400.052 42.8991 400.223 43.3184 400.565 43.6328C400.907 43.9473 401.365 44.1045 401.939 44.1045C402.55 44.1045 403.017 43.945 403.34 43.626C403.664 43.307 403.826 42.849 403.826 42.252C403.826 41.6732 403.648 41.2288 403.292 40.9189C402.937 40.609 402.424 40.4495 401.754 40.4404H400.804V39.4082ZM413.359 40.7549C413.359 42.236 413.106 43.3366 412.6 44.0566C412.094 44.7767 411.304 45.1367 410.228 45.1367C409.166 45.1367 408.38 44.7858 407.87 44.084C407.359 43.3776 407.095 42.3249 407.077 40.9258V39.2373C407.077 37.7744 407.33 36.6875 407.836 35.9766C408.341 35.2656 409.134 34.9102 410.214 34.9102C411.285 34.9102 412.074 35.2542 412.58 35.9424C413.086 36.626 413.345 37.6833 413.359 39.1143V40.7549ZM412.094 39.0254C412.094 37.9544 411.944 37.1751 411.643 36.6875C411.342 36.1953 410.866 35.9492 410.214 35.9492C409.567 35.9492 409.096 36.193 408.799 36.6807C408.503 37.1683 408.35 37.918 408.341 38.9297V40.9531C408.341 42.0286 408.496 42.8239 408.806 43.3389C409.121 43.8493 409.595 44.1045 410.228 44.1045C410.852 44.1045 411.315 43.863 411.616 43.3799C411.921 42.8968 412.081 42.1357 412.094 41.0967V39.0254ZM415.359 46.9824L414.641 46.4902C415.07 45.8932 415.293 45.278 415.311 44.6445V43.5029H416.549V44.4941C416.549 44.9544 416.435 45.4147 416.207 45.875C415.984 46.3353 415.701 46.7044 415.359 46.9824ZM427.788 45H426.517V42.3203C425.961 42.4661 425.391 42.5391 424.808 42.5391C423.883 42.5391 423.176 42.3021 422.689 41.8281C422.206 41.3542 421.96 40.6797 421.95 39.8047V37.5967H423.215V39.8457C423.238 40.9486 423.769 41.5 424.808 41.5C425.391 41.5 425.961 41.4271 426.517 41.2812V37.6035H427.788V45ZM435.606 38.6289H433.124V45H431.86V38.6289H429.426V37.6035H435.606V38.6289ZM437.155 44.3369C437.155 44.1182 437.219 43.9359 437.346 43.79C437.478 43.6442 437.674 43.5713 437.934 43.5713C438.194 43.5713 438.39 43.6442 438.522 43.79C438.659 43.9359 438.727 44.1182 438.727 44.3369C438.727 44.5465 438.659 44.722 438.522 44.8633C438.39 45.0046 438.194 45.0752 437.934 45.0752C437.674 45.0752 437.478 45.0046 437.346 44.8633C437.219 44.722 437.155 44.5465 437.155 44.3369Z" fill="#284892"/>
<path opacity="0.5" d="M492.974 40.7549C492.974 42.236 492.721 43.3366 492.215 44.0566C491.709 44.7767 490.919 45.1367 489.843 45.1367C488.781 45.1367 487.995 44.7858 487.485 44.084C486.974 43.3776 486.71 42.3249 486.692 40.9258V39.2373C486.692 37.7744 486.945 36.6875 487.451 35.9766C487.956 35.2656 488.749 34.9102 489.829 34.9102C490.9 34.9102 491.689 35.2542 492.195 35.9424C492.701 36.626 492.96 37.6833 492.974 39.1143V40.7549ZM491.709 39.0254C491.709 37.9544 491.559 37.1751 491.258 36.6875C490.957 36.1953 490.481 35.9492 489.829 35.9492C489.182 35.9492 488.711 36.193 488.414 36.6807C488.118 37.1683 487.966 37.918 487.956 38.9297V40.9531C487.956 42.0286 488.111 42.8239 488.421 43.3389C488.736 43.8493 489.21 44.1045 489.843 44.1045C490.467 44.1045 490.93 43.863 491.231 43.3799C491.536 42.8968 491.696 42.1357 491.709 41.0967V39.0254ZM499.042 45H497.77V36.5713L495.22 37.5078V36.3594L498.843 34.999H499.042V45ZM503.127 46.9824L502.409 46.4902C502.837 45.8932 503.061 45.278 503.079 44.6445V43.5029H504.316V44.4941C504.316 44.9544 504.202 45.4147 503.974 45.875C503.751 46.3353 503.469 46.7044 503.127 46.9824ZM516.021 45H514.756V38.6494H511.352V45H510.08V37.6035H516.021V45ZM523.838 38.6289H521.357V45H520.092V38.6289H517.659V37.6035H523.838V38.6289ZM525.387 44.3369C525.387 44.1182 525.451 43.9359 525.579 43.79C525.711 43.6442 525.907 43.5713 526.167 43.5713C526.426 43.5713 526.622 43.6442 526.755 43.79C526.891 43.9359 526.96 44.1182 526.96 44.3369C526.96 44.5465 526.891 44.722 526.755 44.8633C526.622 45.0046 526.426 45.0752 526.167 45.0752C525.907 45.0752 525.711 45.0046 525.579 44.8633C525.451 44.722 525.387 44.5465 525.387 44.3369Z" fill="#727173"/>
<path opacity="0.5" d="M580.844 40.7549C580.844 42.236 580.591 43.3366 580.085 44.0566C579.579 44.7767 578.789 45.1367 577.713 45.1367C576.651 45.1367 575.865 44.7858 575.355 44.084C574.844 43.3776 574.58 42.3249 574.562 40.9258V39.2373C574.562 37.7744 574.815 36.6875 575.321 35.9766C575.827 35.2656 576.619 34.9102 577.7 34.9102C578.771 34.9102 579.559 35.2542 580.065 35.9424C580.571 36.626 580.83 37.6833 580.844 39.1143V40.7549ZM579.579 39.0254C579.579 37.9544 579.429 37.1751 579.128 36.6875C578.827 36.1953 578.351 35.9492 577.7 35.9492C577.052 35.9492 576.581 36.193 576.285 36.6807C575.988 37.1683 575.836 37.918 575.827 38.9297V40.9531C575.827 42.0286 575.981 42.8239 576.291 43.3389C576.606 43.8493 577.08 44.1045 577.713 44.1045C578.338 44.1045 578.8 43.863 579.101 43.3799C579.406 42.8968 579.566 42.1357 579.579 41.0967V39.0254ZM589.277 45H582.755V44.0908L586.201 40.2627C586.711 39.6839 587.062 39.2145 587.253 38.8545C587.449 38.4899 587.547 38.1139 587.547 37.7266C587.547 37.207 587.39 36.7809 587.076 36.4482C586.761 36.1156 586.342 35.9492 585.818 35.9492C585.189 35.9492 584.699 36.1292 584.348 36.4893C584.002 36.8447 583.829 37.3415 583.829 37.9795H582.564C582.564 37.0635 582.858 36.3229 583.446 35.7578C584.038 35.1927 584.829 34.9102 585.818 34.9102C586.743 34.9102 587.475 35.154 588.012 35.6416C588.55 36.1247 588.819 36.7695 588.819 37.5762C588.819 38.556 588.195 39.7227 586.946 41.0762L584.28 43.9678H589.277V45ZM590.997 46.9824L590.279 46.4902C590.707 45.8932 590.931 45.278 590.949 44.6445V43.5029H592.186V44.4941C592.186 44.9544 592.072 45.4147 591.845 45.875C591.621 46.3353 591.339 46.7044 590.997 46.9824ZM600.808 44.1045C601.259 44.1045 601.653 43.9678 601.99 43.6943C602.328 43.4209 602.515 43.0791 602.551 42.6689H603.747C603.724 43.0928 603.579 43.4961 603.31 43.8789C603.041 44.2617 602.681 44.5671 602.23 44.7949C601.783 45.0228 601.309 45.1367 600.808 45.1367C599.801 45.1367 598.999 44.8018 598.402 44.1318C597.809 43.4574 597.513 42.5368 597.513 41.3701V41.1582C597.513 40.4382 597.645 39.7979 597.909 39.2373C598.174 38.6768 598.552 38.2415 599.044 37.9316C599.541 37.6217 600.127 37.4668 600.801 37.4668C601.63 37.4668 602.319 37.7152 602.865 38.2119C603.417 38.7087 603.711 39.3535 603.747 40.1465H602.551C602.515 39.668 602.332 39.276 602.004 38.9707C601.681 38.6608 601.28 38.5059 600.801 38.5059C600.158 38.5059 599.659 38.7383 599.304 39.2031C598.953 39.6634 598.778 40.3311 598.778 41.2061V41.4453C598.778 42.2975 598.953 42.9538 599.304 43.4141C599.655 43.8743 600.156 44.1045 600.808 44.1045ZM608.707 38.0273C609.637 38.0273 610.38 38.3395 610.936 38.9639C611.497 39.5837 611.777 40.4017 611.777 41.418V41.5342C611.777 42.2314 611.642 42.8558 611.373 43.4072C611.105 43.9541 610.717 44.3802 610.211 44.6855C609.71 44.9863 609.131 45.1367 608.475 45.1367C607.482 45.1367 606.682 44.8063 606.076 44.1455C605.469 43.4801 605.166 42.5892 605.166 41.4727V40.8574C605.166 39.3034 605.454 38.0684 606.028 37.1523C606.607 36.2363 607.459 35.6781 608.584 35.4775C609.222 35.3636 609.653 35.2246 609.876 35.0605C610.1 34.8965 610.211 34.6709 610.211 34.3838H611.25C611.25 34.9535 611.121 35.3978 610.861 35.7168C610.606 36.0358 610.195 36.2614 609.63 36.3936L608.687 36.6055C607.935 36.7832 607.37 37.084 606.992 37.5078C606.618 37.9271 606.374 38.4876 606.26 39.1895C606.93 38.4147 607.746 38.0273 608.707 38.0273ZM608.461 39.0664C607.842 39.0664 607.349 39.276 606.985 39.6953C606.62 40.11 606.438 40.6865 606.438 41.4248V41.5342C606.438 42.3271 606.62 42.9561 606.985 43.4209C607.354 43.8812 607.851 44.1113 608.475 44.1113C609.104 44.1113 609.601 43.8789 609.965 43.4141C610.33 42.9492 610.512 42.2702 610.512 41.377C610.512 40.6797 610.328 40.1214 609.958 39.7021C609.594 39.2783 609.095 39.0664 608.461 39.0664ZM613.517 44.3369C613.517 44.1182 613.581 43.9359 613.709 43.79C613.841 43.6442 614.037 43.5713 614.297 43.5713C614.556 43.5713 614.752 43.6442 614.884 43.79C615.021 43.9359 615.089 44.1182 615.089 44.3369C615.089 44.5465 615.021 44.722 614.884 44.8633C614.752 45.0046 614.556 45.0752 614.297 45.0752C614.037 45.0752 613.841 45.0046 613.709 44.8633C613.581 44.722 613.517 44.5465 613.517 44.3369Z" fill="#727173"/>
<path opacity="0.5" d="M668.714 40.7549C668.714 42.236 668.461 43.3366 667.955 44.0566C667.45 44.7767 666.659 45.1367 665.583 45.1367C664.522 45.1367 663.735 44.7858 663.225 44.084C662.715 43.3776 662.45 42.3249 662.432 40.9258V39.2373C662.432 37.7744 662.685 36.6875 663.191 35.9766C663.697 35.2656 664.49 34.9102 665.57 34.9102C666.641 34.9102 667.429 35.2542 667.935 35.9424C668.441 36.626 668.701 37.6833 668.714 39.1143V40.7549ZM667.45 39.0254C667.45 37.9544 667.299 37.1751 666.998 36.6875C666.698 36.1953 666.221 35.9492 665.57 35.9492C664.923 35.9492 664.451 36.193 664.155 36.6807C663.858 37.1683 663.706 37.918 663.697 38.9297V40.9531C663.697 42.0286 663.852 42.8239 664.161 43.3389C664.476 43.8493 664.95 44.1045 665.583 44.1045C666.208 44.1045 666.67 43.863 666.971 43.3799C667.276 42.8968 667.436 42.1357 667.45 41.0967V39.0254ZM672.464 39.4082H673.415C674.012 39.3991 674.481 39.2419 674.823 38.9365C675.165 38.6312 675.336 38.2188 675.336 37.6992C675.336 36.5326 674.754 35.9492 673.592 35.9492C673.045 35.9492 672.608 36.1064 672.28 36.4209C671.956 36.7308 671.795 37.1432 671.795 37.6582H670.53C670.53 36.8698 670.817 36.2158 671.391 35.6963C671.97 35.1722 672.704 34.9102 673.592 34.9102C674.531 34.9102 675.267 35.1585 675.8 35.6553C676.334 36.152 676.6 36.8424 676.6 37.7266C676.6 38.1595 676.459 38.5788 676.176 38.9844C675.898 39.39 675.518 39.693 675.035 39.8936C675.582 40.0667 676.003 40.3538 676.299 40.7549C676.6 41.1559 676.751 41.6458 676.751 42.2246C676.751 43.1178 676.459 43.8265 675.876 44.3506C675.292 44.8747 674.533 45.1367 673.599 45.1367C672.665 45.1367 671.904 44.8838 671.316 44.3779C670.733 43.8721 670.441 43.2044 670.441 42.375H671.712C671.712 42.8991 671.883 43.3184 672.225 43.6328C672.567 43.9473 673.025 44.1045 673.599 44.1045C674.21 44.1045 674.677 43.945 675.001 43.626C675.324 43.307 675.486 42.849 675.486 42.252C675.486 41.6732 675.308 41.2288 674.953 40.9189C674.597 40.609 674.085 40.4495 673.415 40.4404H672.464V39.4082ZM678.867 46.9824L678.149 46.4902C678.578 45.8932 678.801 45.278 678.819 44.6445V43.5029H680.056V44.4941C680.056 44.9544 679.943 45.4147 679.715 45.875C679.491 46.3353 679.209 46.7044 678.867 46.9824ZM685.827 45V37.6035H688.712C689.696 37.6035 690.451 37.7767 690.975 38.123C691.503 38.4648 691.768 38.9684 691.768 39.6338C691.768 39.9756 691.665 40.2855 691.46 40.5635C691.255 40.8369 690.952 41.0465 690.551 41.1924C690.998 41.2972 691.355 41.5023 691.624 41.8076C691.898 42.113 692.034 42.4775 692.034 42.9014C692.034 43.5804 691.784 44.0999 691.282 44.46C690.786 44.82 690.082 45 689.17 45H685.827ZM687.092 41.7529V43.9814H689.184C689.712 43.9814 690.107 43.8835 690.366 43.6875C690.631 43.4915 690.763 43.2158 690.763 42.8604C690.763 42.1221 690.221 41.7529 689.136 41.7529H687.092ZM687.092 40.7412H688.726C689.911 40.7412 690.503 40.3949 690.503 39.7021C690.503 39.0094 689.943 38.6517 688.821 38.6289H687.092V40.7412ZM696.967 44.1045C697.418 44.1045 697.813 43.9678 698.15 43.6943C698.487 43.4209 698.674 43.0791 698.71 42.6689H699.907C699.884 43.0928 699.738 43.4961 699.469 43.8789C699.2 44.2617 698.84 44.5671 698.389 44.7949C697.942 45.0228 697.469 45.1367 696.967 45.1367C695.96 45.1367 695.158 44.8018 694.561 44.1318C693.969 43.4574 693.672 42.5368 693.672 41.3701V41.1582C693.672 40.4382 693.804 39.7979 694.069 39.2373C694.333 38.6768 694.711 38.2415 695.204 37.9316C695.7 37.6217 696.286 37.4668 696.96 37.4668C697.79 37.4668 698.478 37.7152 699.025 38.2119C699.576 38.7087 699.87 39.3535 699.907 40.1465H698.71C698.674 39.668 698.492 39.276 698.164 38.9707C697.84 38.6608 697.439 38.5059 696.96 38.5059C696.318 38.5059 695.819 38.7383 695.463 39.2031C695.112 39.6634 694.937 40.3311 694.937 41.2061V41.4453C694.937 42.2975 695.112 42.9538 695.463 43.4141C695.814 43.8743 696.316 44.1045 696.967 44.1045ZM701.647 44.3369C701.647 44.1182 701.711 43.9359 701.839 43.79C701.971 43.6442 702.167 43.5713 702.426 43.5713C702.686 43.5713 702.882 43.6442 703.014 43.79C703.151 43.9359 703.219 44.1182 703.219 44.3369C703.219 44.5465 703.151 44.722 703.014 44.8633C702.882 45.0046 702.686 45.0752 702.426 45.0752C702.167 45.0752 701.971 45.0046 701.839 44.8633C701.711 44.722 701.647 44.5465 701.647 44.3369Z" fill="#727173"/>
<path d="M419 274.5L331 277.5L243 272.5L155 274.5L102 278" stroke="#4978E0" stroke-opacity="0.45" stroke-width="2" stroke-linecap="round"/>
<path d="M419 263L331.5 264L243 275.5L155 269.5L102 259.5" stroke="#284892" stroke-width="2" stroke-linecap="round"/>
<path d="M419 110L331 99L243 102.5L154.5 90.5L102.5 93.5" stroke="#E79B24" stroke-width="2" stroke-linecap="round"/>
<circle cx="419" cy="110" r="4" fill="#FAFAFA" stroke="#E79B24" stroke-width="2"/>
<circle cx="419" cy="263" r="4" fill="#FAFAFA" stroke="#284892" stroke-width="2"/>
<circle cx="419" cy="275" r="3" fill="#FAFAFA"/>
<circle cx="419" cy="275" r="4" stroke="#4978E0" stroke-opacity="0.45" stroke-width="2"/>
<path d="M101 329H125" stroke="#E79B24" stroke-width="2" stroke-linecap="round"/>
<circle cx="120" cy="329" r="5" fill="#FAFAFA" stroke="#E79B24" stroke-width="2"/>
<path d="M137.709 319.072C138.541 319.072 139.304 319.198 139.997 319.449C140.699 319.692 141.301 320.043 141.804 320.502C142.315 320.953 142.714 321.503 143 322.153C143.286 322.803 143.429 323.535 143.429 324.35C143.429 325.043 143.325 325.685 143.117 326.274C142.918 326.863 142.645 327.427 142.298 327.964C141.951 328.501 141.544 329.026 141.076 329.537C140.617 330.04 140.131 330.551 139.62 331.071L135.096 335.699C135.469 335.604 135.841 335.526 136.214 335.465C136.595 335.396 136.955 335.361 137.293 335.361H142.792C143.095 335.361 143.334 335.452 143.507 335.634C143.68 335.807 143.767 336.033 143.767 336.31V338H131.105V337.051C131.105 336.86 131.144 336.661 131.222 336.453C131.3 336.245 131.426 336.054 131.599 335.881L137.423 330.044C137.917 329.55 138.355 329.078 138.736 328.627C139.126 328.176 139.455 327.726 139.724 327.275C140.001 326.824 140.209 326.369 140.348 325.91C140.495 325.442 140.569 324.952 140.569 324.441C140.569 323.947 140.491 323.514 140.335 323.141C140.188 322.76 139.98 322.448 139.711 322.205C139.451 321.954 139.135 321.767 138.762 321.646C138.398 321.516 137.995 321.451 137.553 321.451C137.128 321.451 136.734 321.512 136.37 321.633C136.015 321.754 135.694 321.923 135.408 322.14C135.131 322.357 134.897 322.617 134.706 322.92C134.524 323.215 134.39 323.54 134.303 323.895C134.173 324.25 134.004 324.489 133.796 324.61C133.597 324.731 133.302 324.757 132.912 324.688L131.443 324.428C131.573 323.544 131.816 322.768 132.171 322.101C132.535 321.434 132.99 320.879 133.536 320.437C134.082 319.986 134.706 319.648 135.408 319.423C136.119 319.189 136.886 319.072 137.709 319.072ZM148.228 335.881H152.128V324.155C152.128 323.748 152.141 323.323 152.167 322.881L149.164 325.416C149.034 325.52 148.9 325.589 148.761 325.624C148.631 325.65 148.505 325.65 148.384 325.624C148.271 325.598 148.167 325.559 148.072 325.507C147.985 325.446 147.916 325.381 147.864 325.312L146.993 324.09L152.635 319.241H154.91V335.881H158.433V338H148.228V335.881ZM167.704 338.208C166.751 338.208 165.88 338.082 165.091 337.831C164.311 337.571 163.639 337.207 163.076 336.739C162.513 336.271 162.075 335.703 161.763 335.036C161.451 334.369 161.295 333.623 161.295 332.8C161.295 331.656 161.581 330.698 162.153 329.927C162.734 329.156 163.6 328.592 164.753 328.237C163.817 327.864 163.111 327.323 162.634 326.612C162.166 325.901 161.932 325.048 161.932 324.051C161.932 323.349 162.071 322.695 162.348 322.088C162.625 321.481 163.015 320.957 163.518 320.515C164.029 320.064 164.64 319.713 165.351 319.462C166.062 319.202 166.846 319.072 167.704 319.072C168.562 319.072 169.342 319.202 170.044 319.462C170.755 319.713 171.361 320.064 171.864 320.515C172.375 320.957 172.77 321.481 173.047 322.088C173.333 322.695 173.476 323.349 173.476 324.051C173.476 325.048 173.238 325.901 172.761 326.612C172.293 327.323 171.591 327.864 170.655 328.237C171.799 328.592 172.661 329.156 173.242 329.927C173.823 330.698 174.113 331.656 174.113 332.8C174.113 333.623 173.957 334.369 173.645 335.036C173.333 335.703 172.895 336.271 172.332 336.739C171.769 337.207 171.093 337.571 170.304 337.831C169.524 338.082 168.657 338.208 167.704 338.208ZM167.704 335.998C168.267 335.998 168.77 335.92 169.212 335.764C169.654 335.599 170.022 335.374 170.317 335.088C170.62 334.793 170.85 334.447 171.006 334.048C171.162 333.649 171.24 333.216 171.24 332.748C171.24 332.176 171.149 331.682 170.967 331.266C170.794 330.85 170.547 330.508 170.226 330.239C169.914 329.962 169.541 329.758 169.108 329.628C168.675 329.489 168.207 329.42 167.704 329.42C167.201 329.42 166.733 329.489 166.3 329.628C165.867 329.758 165.49 329.962 165.169 330.239C164.857 330.508 164.61 330.85 164.428 331.266C164.255 331.682 164.168 332.176 164.168 332.748C164.168 333.216 164.246 333.649 164.402 334.048C164.558 334.447 164.783 334.793 165.078 335.088C165.381 335.374 165.754 335.599 166.196 335.764C166.638 335.92 167.141 335.998 167.704 335.998ZM167.704 327.197C168.267 327.197 168.744 327.11 169.134 326.937C169.524 326.764 169.836 326.534 170.07 326.248C170.313 325.953 170.486 325.62 170.59 325.247C170.703 324.874 170.759 324.493 170.759 324.103C170.759 323.713 170.694 323.345 170.564 322.998C170.443 322.643 170.252 322.335 169.992 322.075C169.741 321.815 169.424 321.607 169.043 321.451C168.662 321.295 168.215 321.217 167.704 321.217C167.193 321.217 166.742 321.295 166.352 321.451C165.971 321.607 165.654 321.815 165.403 322.075C165.152 322.335 164.961 322.643 164.831 322.998C164.71 323.345 164.649 323.713 164.649 324.103C164.649 324.493 164.701 324.874 164.805 325.247C164.918 325.62 165.091 325.953 165.325 326.248C165.568 326.534 165.884 326.764 166.274 326.937C166.664 327.11 167.141 327.197 167.704 327.197Z" fill="#284892"/>
<path d="M192.812 324.345C192.812 325.32 192.647 326.172 192.319 326.901C191.991 327.626 191.526 328.18 190.925 328.562C190.323 328.945 189.621 329.137 188.819 329.137C188.035 329.137 187.34 328.945 186.734 328.562C186.128 328.175 185.657 327.626 185.319 326.915C184.987 326.2 184.816 325.372 184.807 324.434V323.716C184.807 322.759 184.973 321.913 185.306 321.18C185.638 320.446 186.108 319.885 186.714 319.498C187.325 319.106 188.022 318.91 188.806 318.91C189.603 318.91 190.305 319.104 190.911 319.491C191.522 319.874 191.991 320.432 192.319 321.166C192.647 321.895 192.812 322.745 192.812 323.716V324.345ZM191.506 323.702C191.506 322.522 191.269 321.617 190.795 320.988C190.321 320.355 189.658 320.038 188.806 320.038C187.976 320.038 187.322 320.355 186.844 320.988C186.37 321.617 186.126 322.492 186.112 323.613V324.345C186.112 325.489 186.352 326.389 186.83 327.045C187.313 327.697 187.976 328.022 188.819 328.022C189.667 328.022 190.323 327.715 190.788 327.1C191.253 326.48 191.492 325.593 191.506 324.44V323.702ZM200.632 329H199.367V322.649H195.963V329H194.691V321.604H200.632V329ZM207.229 329C207.156 328.854 207.096 328.594 207.051 328.221C206.463 328.831 205.761 329.137 204.945 329.137C204.216 329.137 203.617 328.932 203.147 328.521C202.683 328.107 202.45 327.583 202.45 326.949C202.45 326.179 202.742 325.582 203.325 325.158C203.913 324.73 204.738 324.516 205.8 324.516H207.03V323.935C207.03 323.493 206.898 323.142 206.634 322.882C206.369 322.618 205.98 322.485 205.465 322.485C205.014 322.485 204.635 322.599 204.33 322.827C204.025 323.055 203.872 323.331 203.872 323.654H202.601C202.601 323.285 202.73 322.93 202.99 322.588C203.255 322.242 203.61 321.968 204.057 321.768C204.508 321.567 205.002 321.467 205.54 321.467C206.392 321.467 207.06 321.681 207.543 322.109C208.026 322.533 208.277 323.119 208.295 323.866V327.271C208.295 327.95 208.382 328.49 208.555 328.891V329H207.229ZM205.13 328.036C205.526 328.036 205.902 327.934 206.258 327.729C206.613 327.523 206.871 327.257 207.03 326.929V325.411H206.039C204.49 325.411 203.715 325.865 203.715 326.771C203.715 327.168 203.847 327.478 204.111 327.701C204.376 327.924 204.715 328.036 205.13 328.036ZM213.244 328.104C213.695 328.104 214.09 327.968 214.427 327.694C214.764 327.421 214.951 327.079 214.987 326.669H216.184C216.161 327.093 216.015 327.496 215.746 327.879C215.477 328.262 215.117 328.567 214.666 328.795C214.219 329.023 213.745 329.137 213.244 329.137C212.237 329.137 211.435 328.802 210.838 328.132C210.245 327.457 209.949 326.537 209.949 325.37V325.158C209.949 324.438 210.081 323.798 210.346 323.237C210.61 322.677 210.988 322.242 211.48 321.932C211.977 321.622 212.563 321.467 213.237 321.467C214.067 321.467 214.755 321.715 215.302 322.212C215.853 322.709 216.147 323.354 216.184 324.146H214.987C214.951 323.668 214.769 323.276 214.44 322.971C214.117 322.661 213.716 322.506 213.237 322.506C212.595 322.506 212.096 322.738 211.74 323.203C211.389 323.663 211.214 324.331 211.214 325.206V325.445C211.214 326.298 211.389 326.954 211.74 327.414C212.091 327.874 212.592 328.104 213.244 328.104ZM223.648 329H222.384V325.842H218.986V329H217.715V321.604H218.986V324.81H222.384V321.604H223.648V329ZM227.066 324.153H228.987C229.826 324.162 230.489 324.381 230.977 324.81C231.464 325.238 231.708 325.819 231.708 326.553C231.708 327.291 231.457 327.883 230.956 328.33C230.455 328.777 229.78 329 228.933 329H225.802V321.604H227.066V324.153ZM234.347 329H233.075V321.604H234.347V329ZM227.066 325.186V327.968H228.946C229.42 327.968 229.787 327.847 230.047 327.605C230.307 327.359 230.437 327.024 230.437 326.601C230.437 326.19 230.309 325.855 230.054 325.596C229.803 325.331 229.45 325.195 228.994 325.186H227.066ZM239.036 324.304L240.677 321.604H242.153L239.733 325.261L242.229 329H240.766L239.057 326.231L237.348 329H235.878L238.373 325.261L235.953 321.604H237.416L239.036 324.304ZM249.393 327.147L251.115 321.604H252.469L249.495 330.142C249.035 331.372 248.303 331.987 247.301 331.987L247.062 331.967L246.59 331.878V330.853L246.932 330.88C247.36 330.88 247.693 330.793 247.93 330.62C248.171 330.447 248.369 330.13 248.524 329.67L248.805 328.918L246.166 321.604H247.547L249.393 327.147ZM256.475 328.104C256.926 328.104 257.32 327.968 257.657 327.694C257.994 327.421 258.181 327.079 258.218 326.669H259.414C259.391 327.093 259.245 327.496 258.977 327.879C258.708 328.262 258.348 328.567 257.896 328.795C257.45 329.023 256.976 329.137 256.475 329.137C255.467 329.137 254.665 328.802 254.068 328.132C253.476 327.457 253.18 326.537 253.18 325.37V325.158C253.18 324.438 253.312 323.798 253.576 323.237C253.84 322.677 254.219 322.242 254.711 321.932C255.208 321.622 255.793 321.467 256.468 321.467C257.297 321.467 257.985 321.715 258.532 322.212C259.084 322.709 259.378 323.354 259.414 324.146H258.218C258.181 323.668 257.999 323.276 257.671 322.971C257.347 322.661 256.946 322.506 256.468 322.506C255.825 322.506 255.326 322.738 254.971 323.203C254.62 323.663 254.444 324.331 254.444 325.206V325.445C254.444 326.298 254.62 326.954 254.971 327.414C255.322 327.874 255.823 328.104 256.475 328.104ZM266.899 321.604V329H265.628V322.649H263.112L262.962 325.418C262.88 326.689 262.666 327.599 262.319 328.146C261.978 328.692 261.433 328.977 260.686 329H260.18V327.886L260.542 327.858C260.952 327.813 261.246 327.576 261.424 327.147C261.602 326.719 261.715 325.926 261.766 324.769L261.902 321.604H266.899ZM268.595 325.233C268.595 324.509 268.736 323.857 269.019 323.278C269.306 322.7 269.702 322.253 270.208 321.938C270.718 321.624 271.299 321.467 271.951 321.467C272.958 321.467 273.772 321.815 274.392 322.513C275.016 323.21 275.328 324.137 275.328 325.295V325.384C275.328 326.104 275.189 326.751 274.911 327.325C274.638 327.895 274.243 328.339 273.729 328.658C273.218 328.977 272.63 329.137 271.965 329.137C270.962 329.137 270.149 328.788 269.524 328.091C268.905 327.394 268.595 326.471 268.595 325.322V325.233ZM269.866 325.384C269.866 326.204 270.055 326.863 270.434 327.359C270.816 327.856 271.327 328.104 271.965 328.104C272.607 328.104 273.118 327.854 273.496 327.353C273.874 326.847 274.063 326.14 274.063 325.233C274.063 324.422 273.87 323.766 273.482 323.265C273.1 322.759 272.589 322.506 271.951 322.506C271.327 322.506 270.823 322.754 270.44 323.251C270.058 323.748 269.866 324.459 269.866 325.384ZM277.03 329V321.604H279.915C280.899 321.604 281.654 321.777 282.178 322.123C282.706 322.465 282.971 322.968 282.971 323.634C282.971 323.976 282.868 324.285 282.663 324.563C282.458 324.837 282.155 325.047 281.754 325.192C282.201 325.297 282.558 325.502 282.827 325.808C283.101 326.113 283.237 326.478 283.237 326.901C283.237 327.58 282.987 328.1 282.485 328.46C281.989 328.82 281.285 329 280.373 329H277.03ZM278.295 325.753V327.981H280.387C280.915 327.981 281.31 327.883 281.569 327.688C281.834 327.492 281.966 327.216 281.966 326.86C281.966 326.122 281.424 325.753 280.339 325.753H278.295ZM278.295 324.741H279.929C281.114 324.741 281.706 324.395 281.706 323.702C281.706 323.009 281.146 322.652 280.024 322.629H278.295V324.741ZM289.697 321.604H290.962V329H289.697V323.606L286.286 329H285.021V321.604H286.286V327.004L289.697 321.604ZM297.777 321.604H299.042V329H297.777V323.606L294.366 329H293.102V321.604H294.366V327.004L297.777 321.604ZM298.119 318.91C298.119 319.462 297.93 319.906 297.552 320.243C297.178 320.576 296.686 320.742 296.075 320.742C295.465 320.742 294.97 320.574 294.592 320.236C294.214 319.899 294.024 319.457 294.024 318.91H295.057C295.057 319.229 295.143 319.48 295.316 319.662C295.49 319.84 295.743 319.929 296.075 319.929C296.394 319.929 296.643 319.84 296.82 319.662C297.003 319.484 297.094 319.234 297.094 318.91H298.119Z" fill="#284892"/>
<path d="M341 329H365" stroke="#284892" stroke-width="2" stroke-linecap="round"/>
<circle cx="360" cy="329" r="5" fill="#FAFAFA" stroke="#284892" stroke-width="2"/>
<path d="M373.146 335.881H377.046V324.155C377.046 323.748 377.059 323.323 377.085 322.881L374.082 325.416C373.952 325.52 373.818 325.589 373.679 325.624C373.549 325.65 373.423 325.65 373.302 325.624C373.189 325.598 373.085 325.559 372.99 325.507C372.903 325.446 372.834 325.381 372.782 325.312L371.911 324.09L377.553 319.241H379.828V335.881H383.351V338H373.146V335.881ZM397.965 320.489C397.965 320.888 397.839 321.213 397.588 321.464C397.337 321.715 396.916 321.841 396.327 321.841H390.841L390.087 326.196C390.98 326.014 391.807 325.923 392.57 325.923C393.549 325.923 394.412 326.07 395.157 326.365C395.911 326.651 396.539 327.05 397.042 327.561C397.553 328.072 397.935 328.675 398.186 329.368C398.446 330.053 398.576 330.798 398.576 331.604C398.576 332.601 398.403 333.506 398.056 334.321C397.709 335.136 397.228 335.833 396.613 336.414C395.998 336.986 395.27 337.428 394.429 337.74C393.597 338.052 392.696 338.208 391.725 338.208C391.153 338.208 390.607 338.152 390.087 338.039C389.576 337.926 389.095 337.775 388.644 337.584C388.193 337.385 387.777 337.159 387.396 336.908C387.015 336.648 386.672 336.379 386.369 336.102L387.227 334.906C387.409 334.646 387.652 334.516 387.955 334.516C388.146 334.516 388.354 334.585 388.579 334.724C388.804 334.863 389.064 335.014 389.359 335.179C389.662 335.335 390.018 335.482 390.425 335.621C390.832 335.76 391.318 335.829 391.881 335.829C392.496 335.829 393.047 335.729 393.532 335.53C394.017 335.331 394.425 335.053 394.754 334.698C395.092 334.334 395.348 333.901 395.521 333.398C395.694 332.895 395.781 332.345 395.781 331.747C395.781 331.201 395.699 330.711 395.534 330.278C395.378 329.845 395.14 329.476 394.819 329.173C394.507 328.87 394.113 328.64 393.636 328.484C393.159 328.319 392.609 328.237 391.985 328.237C391.526 328.237 391.053 328.276 390.568 328.354C390.091 328.432 389.606 328.553 389.112 328.718L387.37 328.224L388.904 319.28H397.965V320.489Z" fill="#284892"/>
<path d="M417.812 324.345C417.812 325.32 417.647 326.172 417.319 326.901C416.991 327.626 416.526 328.18 415.925 328.562C415.323 328.945 414.621 329.137 413.819 329.137C413.035 329.137 412.34 328.945 411.734 328.562C411.128 328.175 410.657 327.626 410.319 326.915C409.987 326.2 409.816 325.372 409.807 324.434V323.716C409.807 322.759 409.973 321.913 410.306 321.18C410.638 320.446 411.108 319.885 411.714 319.498C412.325 319.106 413.022 318.91 413.806 318.91C414.603 318.91 415.305 319.104 415.911 319.491C416.522 319.874 416.991 320.432 417.319 321.166C417.647 321.895 417.812 322.745 417.812 323.716V324.345ZM416.506 323.702C416.506 322.522 416.269 321.617 415.795 320.988C415.321 320.355 414.658 320.038 413.806 320.038C412.976 320.038 412.322 320.355 411.844 320.988C411.37 321.617 411.126 322.492 411.112 323.613V324.345C411.112 325.489 411.352 326.389 411.83 327.045C412.313 327.697 412.976 328.022 413.819 328.022C414.667 328.022 415.323 327.715 415.788 327.1C416.253 326.48 416.492 325.593 416.506 324.44V323.702ZM425.632 329H424.367V322.649H420.963V329H419.691V321.604H425.632V329ZM432.229 329C432.156 328.854 432.096 328.594 432.051 328.221C431.463 328.831 430.761 329.137 429.945 329.137C429.216 329.137 428.617 328.932 428.147 328.521C427.683 328.107 427.45 327.583 427.45 326.949C427.45 326.179 427.742 325.582 428.325 325.158C428.913 324.73 429.738 324.516 430.8 324.516H432.03V323.935C432.03 323.493 431.898 323.142 431.634 322.882C431.369 322.618 430.98 322.485 430.465 322.485C430.014 322.485 429.635 322.599 429.33 322.827C429.025 323.055 428.872 323.331 428.872 323.654H427.601C427.601 323.285 427.73 322.93 427.99 322.588C428.255 322.242 428.61 321.968 429.057 321.768C429.508 321.567 430.002 321.467 430.54 321.467C431.392 321.467 432.06 321.681 432.543 322.109C433.026 322.533 433.277 323.119 433.295 323.866V327.271C433.295 327.95 433.382 328.49 433.555 328.891V329H432.229ZM430.13 328.036C430.526 328.036 430.902 327.934 431.258 327.729C431.613 327.523 431.871 327.257 432.03 326.929V325.411H431.039C429.49 325.411 428.715 325.865 428.715 326.771C428.715 327.168 428.847 327.478 429.111 327.701C429.376 327.924 429.715 328.036 430.13 328.036ZM438.244 328.104C438.695 328.104 439.09 327.968 439.427 327.694C439.764 327.421 439.951 327.079 439.987 326.669H441.184C441.161 327.093 441.015 327.496 440.746 327.879C440.477 328.262 440.117 328.567 439.666 328.795C439.219 329.023 438.745 329.137 438.244 329.137C437.237 329.137 436.435 328.802 435.838 328.132C435.245 327.457 434.949 326.537 434.949 325.37V325.158C434.949 324.438 435.081 323.798 435.346 323.237C435.61 322.677 435.988 322.242 436.48 321.932C436.977 321.622 437.563 321.467 438.237 321.467C439.067 321.467 439.755 321.715 440.302 322.212C440.853 322.709 441.147 323.354 441.184 324.146H439.987C439.951 323.668 439.769 323.276 439.44 322.971C439.117 322.661 438.716 322.506 438.237 322.506C437.595 322.506 437.096 322.738 436.74 323.203C436.389 323.663 436.214 324.331 436.214 325.206V325.445C436.214 326.298 436.389 326.954 436.74 327.414C437.091 327.874 437.592 328.104 438.244 328.104ZM448.648 329H447.384V325.842H443.986V329H442.715V321.604H443.986V324.81H447.384V321.604H448.648V329ZM452.066 324.153H453.987C454.826 324.162 455.489 324.381 455.977 324.81C456.464 325.238 456.708 325.819 456.708 326.553C456.708 327.291 456.457 327.883 455.956 328.33C455.455 328.777 454.78 329 453.933 329H450.802V321.604H452.066V324.153ZM459.347 329H458.075V321.604H459.347V329ZM452.066 325.186V327.968H453.946C454.42 327.968 454.787 327.847 455.047 327.605C455.307 327.359 455.437 327.024 455.437 326.601C455.437 326.19 455.309 325.855 455.054 325.596C454.803 325.331 454.45 325.195 453.994 325.186H452.066ZM464.036 324.304L465.677 321.604H467.153L464.733 325.261L467.229 329H465.766L464.057 326.231L462.348 329H460.878L463.373 325.261L460.953 321.604H462.416L464.036 324.304ZM471.911 327.968L472.349 327.428C472.841 326.79 473.121 325.833 473.189 324.557L473.306 321.604H478.07V327.968H479.021V331.174H477.756V329H472.595V331.174H471.33L471.337 327.968H471.911ZM473.408 327.968H476.806V322.772H474.529L474.454 324.536C474.377 326.008 474.028 327.152 473.408 327.968ZM483.491 329.137C482.489 329.137 481.673 328.809 481.044 328.152C480.415 327.492 480.101 326.61 480.101 325.507V325.274C480.101 324.541 480.24 323.887 480.518 323.312C480.8 322.734 481.192 322.283 481.693 321.959C482.199 321.631 482.746 321.467 483.334 321.467C484.296 321.467 485.043 321.784 485.576 322.417C486.109 323.05 486.376 323.957 486.376 325.138V325.664H481.365C481.383 326.393 481.595 326.983 482.001 327.435C482.411 327.881 482.931 328.104 483.56 328.104C484.006 328.104 484.384 328.013 484.694 327.831C485.004 327.649 485.275 327.407 485.508 327.106L486.28 327.708C485.66 328.66 484.731 329.137 483.491 329.137ZM483.334 322.506C482.824 322.506 482.395 322.693 482.049 323.066C481.702 323.436 481.488 323.955 481.406 324.625H485.111V324.529C485.075 323.887 484.902 323.39 484.592 323.039C484.282 322.684 483.863 322.506 483.334 322.506ZM492.631 321.604H493.896V329H492.631V323.606L489.22 329H487.955V321.604H489.22V327.004L492.631 321.604ZM492.973 318.91C492.973 319.462 492.784 319.906 492.405 320.243C492.032 320.576 491.539 320.742 490.929 320.742C490.318 320.742 489.824 320.574 489.445 320.236C489.067 319.899 488.878 319.457 488.878 318.91H489.91C489.91 319.229 489.997 319.48 490.17 319.662C490.343 319.84 490.596 319.929 490.929 319.929C491.248 319.929 491.496 319.84 491.674 319.662C491.856 319.484 491.947 319.234 491.947 318.91H492.973ZM498.893 328.104C499.344 328.104 499.738 327.968 500.075 327.694C500.412 327.421 500.599 327.079 500.636 326.669H501.832C501.809 327.093 501.663 327.496 501.395 327.879C501.126 328.262 500.766 328.567 500.314 328.795C499.868 329.023 499.394 329.137 498.893 329.137C497.885 329.137 497.083 328.802 496.486 328.132C495.894 327.457 495.598 326.537 495.598 325.37V325.158C495.598 324.438 495.73 323.798 495.994 323.237C496.258 322.677 496.637 322.242 497.129 321.932C497.626 321.622 498.211 321.467 498.886 321.467C499.715 321.467 500.403 321.715 500.95 322.212C501.502 322.709 501.796 323.354 501.832 324.146H500.636C500.599 323.668 500.417 323.276 500.089 322.971C499.765 322.661 499.364 322.506 498.886 322.506C498.243 322.506 497.744 322.738 497.389 323.203C497.038 323.663 496.862 324.331 496.862 325.206V325.445C496.862 326.298 497.038 326.954 497.389 327.414C497.74 327.874 498.241 328.104 498.893 328.104ZM508.75 322.629H506.269V329H505.004V322.629H502.57V321.604H508.75V322.629ZM510.097 329V321.604H512.981C513.966 321.604 514.72 321.777 515.244 322.123C515.773 322.465 516.037 322.968 516.037 323.634C516.037 323.976 515.935 324.285 515.729 324.563C515.524 324.837 515.221 325.047 514.82 325.192C515.267 325.297 515.625 325.502 515.894 325.808C516.167 326.113 516.304 326.478 516.304 326.901C516.304 327.58 516.053 328.1 515.552 328.46C515.055 328.82 514.351 329 513.439 329H510.097ZM511.361 325.753V327.981H513.453C513.982 327.981 514.376 327.883 514.636 327.688C514.9 327.492 515.032 327.216 515.032 326.86C515.032 326.122 514.49 325.753 513.405 325.753H511.361ZM511.361 324.741H512.995C514.18 324.741 514.772 324.395 514.772 323.702C514.772 323.009 514.212 322.652 513.091 322.629H511.361V324.741ZM522.764 321.604H524.028V329H522.764V323.606L519.353 329H518.088V321.604H519.353V327.004L522.764 321.604ZM530.844 321.604H532.108V329H530.844V323.606L527.433 329H526.168V321.604H527.433V327.004L530.844 321.604ZM531.186 318.91C531.186 319.462 530.996 319.906 530.618 320.243C530.244 320.576 529.752 320.742 529.142 320.742C528.531 320.742 528.036 320.574 527.658 320.236C527.28 319.899 527.091 319.457 527.091 318.91H528.123C528.123 319.229 528.21 319.48 528.383 319.662C528.556 319.84 528.809 319.929 529.142 319.929C529.461 319.929 529.709 319.84 529.887 319.662C530.069 319.484 530.16 319.234 530.16 318.91H531.186Z" fill="#284892"/>
<path d="M574 329H598" stroke="#4978E0" stroke-opacity="0.45" stroke-width="2" stroke-linecap="round"/>
<circle cx="593" cy="329" r="6" fill="#FAFAFA"/>
<circle cx="593" cy="329" r="5" stroke="#4978E0" stroke-opacity="0.45" stroke-width="2"/>
<path d="M610.709 319.072C611.541 319.072 612.304 319.198 612.997 319.449C613.699 319.692 614.301 320.043 614.804 320.502C615.315 320.953 615.714 321.503 616 322.153C616.286 322.803 616.429 323.535 616.429 324.35C616.429 325.043 616.325 325.685 616.117 326.274C615.918 326.863 615.645 327.427 615.298 327.964C614.951 328.501 614.544 329.026 614.076 329.537C613.617 330.04 613.131 330.551 612.62 331.071L608.096 335.699C608.469 335.604 608.841 335.526 609.214 335.465C609.595 335.396 609.955 335.361 610.293 335.361H615.792C616.095 335.361 616.334 335.452 616.507 335.634C616.68 335.807 616.767 336.033 616.767 336.31V338H604.105V337.051C604.105 336.86 604.144 336.661 604.222 336.453C604.3 336.245 604.426 336.054 604.599 335.881L610.423 330.044C610.917 329.55 611.355 329.078 611.736 328.627C612.126 328.176 612.455 327.726 612.724 327.275C613.001 326.824 613.209 326.369 613.348 325.91C613.495 325.442 613.569 324.952 613.569 324.441C613.569 323.947 613.491 323.514 613.335 323.141C613.188 322.76 612.98 322.448 612.711 322.205C612.451 321.954 612.135 321.767 611.762 321.646C611.398 321.516 610.995 321.451 610.553 321.451C610.128 321.451 609.734 321.512 609.37 321.633C609.015 321.754 608.694 321.923 608.408 322.14C608.131 322.357 607.897 322.617 607.706 322.92C607.524 323.215 607.39 323.54 607.303 323.895C607.173 324.25 607.004 324.489 606.796 324.61C606.597 324.731 606.302 324.757 605.912 324.688L604.443 324.428C604.573 323.544 604.816 322.768 605.171 322.101C605.535 321.434 605.99 320.879 606.536 320.437C607.082 319.986 607.706 319.648 608.408 319.423C609.119 319.189 609.886 319.072 610.709 319.072Z" fill="#284892"/>
<path d="M635.805 329H634.485L629.475 321.33V329H628.155V319.047H629.475L634.499 326.751V319.047H635.805V329ZM641.007 329.137C640.004 329.137 639.188 328.809 638.56 328.152C637.931 327.492 637.616 326.61 637.616 325.507V325.274C637.616 324.541 637.755 323.887 638.033 323.312C638.316 322.734 638.708 322.283 639.209 321.959C639.715 321.631 640.262 321.467 640.85 321.467C641.811 321.467 642.559 321.784 643.092 322.417C643.625 323.05 643.892 323.957 643.892 325.138V325.664H638.881C638.899 326.393 639.111 326.983 639.517 327.435C639.927 327.881 640.446 328.104 641.075 328.104C641.522 328.104 641.9 328.013 642.21 327.831C642.52 327.649 642.791 327.407 643.023 327.106L643.796 327.708C643.176 328.66 642.246 329.137 641.007 329.137ZM640.85 322.506C640.339 322.506 639.911 322.693 639.564 323.066C639.218 323.436 639.004 323.955 638.922 324.625H642.627V324.529C642.59 323.887 642.417 323.39 642.107 323.039C641.798 322.684 641.378 322.506 640.85 322.506ZM649.928 329C649.855 328.854 649.796 328.594 649.75 328.221C649.162 328.831 648.46 329.137 647.645 329.137C646.915 329.137 646.316 328.932 645.847 328.521C645.382 328.107 645.149 327.583 645.149 326.949C645.149 326.179 645.441 325.582 646.024 325.158C646.612 324.73 647.437 324.516 648.499 324.516H649.729V323.935C649.729 323.493 649.597 323.142 649.333 322.882C649.069 322.618 648.679 322.485 648.164 322.485C647.713 322.485 647.335 322.599 647.029 322.827C646.724 323.055 646.571 323.331 646.571 323.654H645.3C645.3 323.285 645.43 322.93 645.689 322.588C645.954 322.242 646.309 321.968 646.756 321.768C647.207 321.567 647.701 321.467 648.239 321.467C649.091 321.467 649.759 321.681 650.242 322.109C650.725 322.533 650.976 323.119 650.994 323.866V327.271C650.994 327.95 651.081 328.49 651.254 328.891V329H649.928ZM647.829 328.036C648.226 328.036 648.602 327.934 648.957 327.729C649.312 327.523 649.57 327.257 649.729 326.929V325.411H648.738C647.189 325.411 646.414 325.865 646.414 326.771C646.414 327.168 646.546 327.478 646.811 327.701C647.075 327.924 647.414 328.036 647.829 328.036ZM656.552 322.738C656.36 322.706 656.153 322.69 655.93 322.69C655.1 322.69 654.537 323.044 654.241 323.75V329H652.977V321.604H654.207L654.228 322.458C654.642 321.797 655.23 321.467 655.991 321.467C656.237 321.467 656.424 321.499 656.552 321.562V322.738ZM663.087 319.047L666.341 327.168L669.595 319.047H671.297V329H669.984V325.124L670.107 320.94L666.84 329H665.835L662.574 320.961L662.704 325.124V329H661.392V319.047H663.087ZM674.79 329H673.525V321.604H674.79V329ZM673.423 319.642C673.423 319.437 673.484 319.263 673.607 319.122C673.735 318.981 673.922 318.91 674.168 318.91C674.414 318.91 674.601 318.981 674.729 319.122C674.856 319.263 674.92 319.437 674.92 319.642C674.92 319.847 674.856 320.018 674.729 320.154C674.601 320.291 674.414 320.359 674.168 320.359C673.922 320.359 673.735 320.291 673.607 320.154C673.484 320.018 673.423 319.847 673.423 319.642ZM681.127 327.038C681.127 326.696 680.997 326.432 680.737 326.245C680.482 326.054 680.033 325.89 679.391 325.753C678.753 325.616 678.244 325.452 677.866 325.261C677.493 325.069 677.215 324.841 677.032 324.577C676.854 324.313 676.766 323.998 676.766 323.634C676.766 323.028 677.021 322.515 677.531 322.096C678.046 321.676 678.702 321.467 679.5 321.467C680.339 321.467 681.018 321.683 681.537 322.116C682.061 322.549 682.323 323.103 682.323 323.777H681.052C681.052 323.431 680.904 323.132 680.607 322.882C680.316 322.631 679.947 322.506 679.5 322.506C679.04 322.506 678.68 322.606 678.42 322.807C678.16 323.007 678.03 323.269 678.03 323.593C678.03 323.898 678.151 324.128 678.393 324.283C678.634 324.438 679.069 324.586 679.698 324.728C680.332 324.869 680.844 325.037 681.236 325.233C681.628 325.429 681.918 325.666 682.104 325.944C682.296 326.218 682.392 326.553 682.392 326.949C682.392 327.61 682.127 328.141 681.599 328.542C681.07 328.938 680.384 329.137 679.541 329.137C678.949 329.137 678.424 329.032 677.969 328.822C677.513 328.613 677.155 328.321 676.896 327.947C676.64 327.569 676.513 327.161 676.513 326.724H677.777C677.8 327.147 677.969 327.485 678.283 327.735C678.602 327.981 679.021 328.104 679.541 328.104C680.02 328.104 680.402 328.009 680.689 327.817C680.981 327.621 681.127 327.362 681.127 327.038ZM688.346 327.038C688.346 326.696 688.216 326.432 687.956 326.245C687.701 326.054 687.252 325.89 686.609 325.753C685.971 325.616 685.463 325.452 685.085 325.261C684.711 325.069 684.433 324.841 684.251 324.577C684.073 324.313 683.984 323.998 683.984 323.634C683.984 323.028 684.24 322.515 684.75 322.096C685.265 321.676 685.921 321.467 686.719 321.467C687.557 321.467 688.236 321.683 688.756 322.116C689.28 322.549 689.542 323.103 689.542 323.777H688.271C688.271 323.431 688.122 323.132 687.826 322.882C687.535 322.631 687.165 322.506 686.719 322.506C686.258 322.506 685.898 322.606 685.639 322.807C685.379 323.007 685.249 323.269 685.249 323.593C685.249 323.898 685.37 324.128 685.611 324.283C685.853 324.438 686.288 324.586 686.917 324.728C687.55 324.869 688.063 325.037 688.455 325.233C688.847 325.429 689.136 325.666 689.323 325.944C689.515 326.218 689.61 326.553 689.61 326.949C689.61 327.61 689.346 328.141 688.817 328.542C688.289 328.938 687.603 329.137 686.76 329.137C686.167 329.137 685.643 329.032 685.188 328.822C684.732 328.613 684.374 328.321 684.114 327.947C683.859 327.569 683.731 327.161 683.731 326.724H684.996C685.019 327.147 685.188 327.485 685.502 327.735C685.821 327.981 686.24 328.104 686.76 328.104C687.238 328.104 687.621 328.009 687.908 327.817C688.2 327.621 688.346 327.362 688.346 327.038Z" fill="#284892"/>
</svg>
