<svg width="24" height="24" viewBox="0 0 24 24" fill="none" xmlns="http://www.w3.org/2000/svg">
<path d="M19.3646 4.63599C19.7395 5.01104 19.9502 5.51966 19.9502 6.04999C19.9502 6.58032 19.7395 7.08893 19.3646 7.46399C19.7929 8.66012 19.8875 9.95026 19.6384 11.1961C19.3893 12.4419 18.8059 13.5965 17.9506 14.536L15.8286 16.656C15.4421 17.1489 15.1768 17.7256 15.054 18.3398C14.9312 18.954 14.9544 19.5884 15.1216 20.192L3.80859 8.87999C4.41204 9.04704 5.04627 9.0701 5.66026 8.9473C6.27424 8.82451 6.85082 8.55929 7.34359 8.17299L9.46459 6.04999C10.4041 5.1947 11.5586 4.61124 12.8045 4.36214C14.0503 4.11304 15.3405 4.20771 16.5366 4.63599C16.9116 4.26105 17.4203 4.05042 17.9506 4.05042C18.4809 4.05042 18.9895 4.26105 19.3646 4.63599V4.63599Z" stroke="currentColor" stroke-width="1.5" stroke-linecap="round" stroke-linejoin="round"/>
<path d="M7.34357 12.414L6.63657 13.121C6.07391 13.6837 5.75781 14.4468 5.75781 15.2425C5.75781 16.0382 6.07391 16.8013 6.63657 17.364C7.19922 17.9267 7.96235 18.2428 8.75807 18.2428C9.55378 18.2428 10.3169 17.9267 10.8796 17.364L11.5866 16.657" stroke="currentColor" stroke-width="1.5" stroke-linecap="round" stroke-linejoin="round"/>
</svg>
