<svg width="24" height="24" viewBox="0 0 24 24" fill="none" xmlns="http://www.w3.org/2000/svg">
<path d="M18 3.99988H6C4.89543 3.99988 4 4.89531 4 5.99988V7.99988C4 9.10445 4.89543 9.99988 6 9.99988H18C19.1046 9.99988 20 9.10445 20 7.99988V5.99988C20 4.89531 19.1046 3.99988 18 3.99988Z" stroke="currentColor" stroke-width="1.5" stroke-linecap="round" stroke-linejoin="round"/>
<path d="M18 14.0001H6C4.89543 14.0001 4 14.8956 4 16.0001V18.0001C4 19.1047 4.89543 20.0001 6 20.0001H18C19.1046 20.0001 20 19.1047 20 18.0001V16.0001C20 14.8956 19.1046 14.0001 18 14.0001Z" stroke="currentColor" stroke-width="1.5" stroke-linecap="round" stroke-linejoin="round"/>
</svg>
