<svg width="24" height="24" viewBox="0 0 24 24" fill="none" xmlns="http://www.w3.org/2000/svg">
<path d="M14 19V15C14 14.7348 14.0395 14.4804 14.1098 14.2929C14.1802 14.1054 14.2755 14 14.375 14H19.625C19.7245 14 19.8198 14.1054 19.8902 14.2929C19.9605 14.4804 20 14.7348 20 15V19C20 19.2652 19.9605 19.5196 19.8902 19.7071C19.8198 19.8946 19.7245 20 19.625 20H14.375C14.2755 20 14.1802 19.8946 14.1098 19.7071C14.0395 19.5196 14 19.2652 14 19Z" stroke="currentColor" stroke-width="1.5" stroke-linecap="round" stroke-linejoin="round"/>
<path d="M4 19V15C4 14.7348 4.03951 14.4804 4.10984 14.2929C4.18016 14.1054 4.27554 14 4.375 14H9.625C9.72446 14 9.81984 14.1054 9.89017 14.2929C9.96049 14.4804 10 14.7348 10 15V19C10 19.2652 9.96049 19.5196 9.89017 19.7071C9.81984 19.8946 9.72446 20 9.625 20H4.375C4.27554 20 4.18016 19.8946 4.10984 19.7071C4.03951 19.5196 4 19.2652 4 19Z" stroke="currentColor" stroke-width="1.5" stroke-linecap="round" stroke-linejoin="round"/>
<path d="M14 9V5C14 4.73478 14.0395 4.48043 14.1098 4.29289C14.1802 4.10536 14.2755 4 14.375 4H19.625C19.7245 4 19.8198 4.10536 19.8902 4.29289C19.9605 4.48043 20 4.73478 20 5V9C20 9.26522 19.9605 9.51957 19.8902 9.70711C19.8198 9.89464 19.7245 10 19.625 10H14.375C14.2755 10 14.1802 9.89464 14.1098 9.70711C14.0395 9.51957 14 9.26522 14 9Z" stroke="currentColor" stroke-width="1.5" stroke-linecap="round" stroke-linejoin="round"/>
<path d="M4 9V5C4 4.73478 4.03951 4.48043 4.10984 4.29289C4.18016 4.10536 4.27554 4 4.375 4H9.625C9.72446 4 9.81984 4.10536 9.89017 4.29289C9.96049 4.48043 10 4.73478 10 5V9C10 9.26522 9.96049 9.51957 9.89017 9.70711C9.81984 9.89464 9.72446 10 9.625 10H4.375C4.27554 10 4.18016 9.89464 4.10984 9.70711C4.03951 9.51957 4 9.26522 4 9Z" stroke="currentColor" stroke-width="1.5" stroke-linecap="round" stroke-linejoin="round"/>
</svg>
