<svg width="24" height="24" viewBox="0 0 24 24" fill="none" xmlns="http://www.w3.org/2000/svg">
<path d="M8 3.99988H6C4.89543 3.99988 4 4.89531 4 5.99988V17.9999C4 19.1044 4.89543 19.9999 6 19.9999H8C9.10457 19.9999 10 19.1044 10 17.9999V5.99988C10 4.89531 9.10457 3.99988 8 3.99988Z" stroke="currentColor" stroke-width="1.5" stroke-linecap="round" stroke-linejoin="round"/>
<path d="M18 3.99988H16C14.8954 3.99988 14 4.89531 14 5.99988V11.9999C14 13.1044 14.8954 13.9999 16 13.9999H18C19.1046 13.9999 20 13.1044 20 11.9999V5.99988C20 4.89531 19.1046 3.99988 18 3.99988Z" stroke="currentColor" stroke-width="1.5" stroke-linecap="round" stroke-linejoin="round"/>
</svg>
