<svg width="25" height="24" viewBox="0 0 25 24" fill="none" xmlns="http://www.w3.org/2000/svg">
<path fill-rule="evenodd" clip-rule="evenodd" d="M12.8594 3.75C8.30303 3.75 4.60938 7.44365 4.60938 12C4.60938 16.5563 8.30303 20.25 12.8594 20.25C17.4157 20.25 21.1094 16.5563 21.1094 12C21.1094 7.44365 17.4157 3.75 12.8594 3.75ZM3.10938 12C3.10938 6.61522 7.4746 2.25 12.8594 2.25C18.2442 2.25 22.6094 6.61522 22.6094 12C22.6094 17.3848 18.2442 21.75 12.8594 21.75C7.4746 21.75 3.10938 17.3848 3.10938 12ZM16.3897 9.46967C16.6826 9.76256 16.6826 10.2374 16.3897 10.5303L12.3897 14.5303C12.0968 14.8232 11.6219 14.8232 11.329 14.5303L9.32904 12.5303C9.03615 12.2374 9.03615 11.7626 9.32904 11.4697C9.62194 11.1768 10.0968 11.1768 10.3897 11.4697L11.8594 12.9393L15.329 9.46967C15.6219 9.17678 16.0968 9.17678 16.3897 9.46967Z" fill="#8A8A8B"/>
</svg>
