<svg width="24" height="24" viewBox="0 0 24 24" fill="none" xmlns="http://www.w3.org/2000/svg">
<path d="M7.00142 18C5.7537 18 4.55708 17.5259 3.6748 16.682C2.79253 15.8381 2.29687 14.6935 2.29688 13.5C2.29687 12.3065 2.79253 11.1619 3.6748 10.318C4.55708 9.47412 5.7537 9.00001 7.00142 9.00001C7.29611 7.68719 8.15818 6.5335 9.39801 5.79273C10.0119 5.42594 10.7001 5.17156 11.4232 5.04412C12.1463 4.91669 12.8903 4.91869 13.6125 5.05001C14.3348 5.18133 15.0213 5.43941 15.6327 5.80949C16.2442 6.17958 16.7686 6.65443 17.1762 7.20694C17.5837 7.75945 17.8664 8.37879 18.008 9.02961C18.1496 9.68043 18.1473 10.35 18.0014 11H19.0014C19.9297 11 20.8199 11.3688 21.4763 12.0251C22.1327 12.6815 22.5014 13.5718 22.5014 14.5C22.5014 15.4283 22.1327 16.3185 21.4763 16.9749C20.8199 17.6313 19.9297 18 19.0014 18H18.0014" stroke="currentColor" stroke-width="1.5" stroke-linecap="round" stroke-linejoin="round"/>
<path d="M9 15L12 12L15 15" stroke="currentColor" stroke-width="1.5" stroke-linecap="round" stroke-linejoin="round"/>
<path d="M12 12V21" stroke="currentColor" stroke-width="1.5" stroke-linecap="round" stroke-linejoin="round"/>
</svg>
