<svg width="31" height="31" viewBox="0 0 31 31" fill="none" xmlns="http://www.w3.org/2000/svg">
<g filter="url(#filter0_d_632_47337)">
<path d="M21.9995 18C22.9278 18 23.818 17.6313 24.4744 16.9749C25.1308 16.3185 25.4995 15.4283 25.4995 14.5C25.4995 13.5718 25.1308 12.6815 24.4744 12.0251C23.818 11.3688 22.9278 11 21.9995 11H20.9995C21.1454 10.35 21.1476 9.68043 21.006 9.02961C20.8644 8.37879 20.5818 7.75945 20.1743 7.20694C19.7667 6.65443 19.2422 6.17958 18.6308 5.80949C18.0193 5.43941 17.3329 5.18133 16.6106 5.05001C15.8883 4.91869 15.1444 4.91669 14.4213 5.04412C13.6981 5.17156 13.01 5.42594 12.3961 5.79273C11.1563 6.5335 10.2942 7.68719 9.9995 9.00001C8.93345 8.95731 7.88504 9.27041 7.03377 9.88571C6.1825 10.501 5.58132 11.3802 5.33317 12.3728C5.08502 13.3654 5.20533 14.4097 5.6735 15.3268C6.14167 16.2439 6.92858 16.9768 7.8995 17.4" stroke="currentColor" stroke-width="1.5" stroke-linecap="round" stroke-linejoin="round"/>
<path d="M15 13V22" stroke="currentColor" stroke-width="1.5" stroke-linecap="round" stroke-linejoin="round"/>
<path d="M12 19L15 22L18 19" stroke="currentColor" stroke-width="1.5" stroke-linecap="round" stroke-linejoin="round"/>
</g>
<defs>
<filter id="filter0_d_632_47337" x="-1" y="0" width="32" height="32" filterUnits="userSpaceOnUse" color-interpolation-filters="sRGB">
<feFlood flood-opacity="0" result="BackgroundImageFix"/>
<feColorMatrix in="SourceAlpha" type="matrix" values="0 0 0 0 0 0 0 0 0 0 0 0 0 0 0 0 0 0 127 0" result="hardAlpha"/>
<feOffset dy="4"/>
<feGaussianBlur stdDeviation="2"/>
<feComposite in2="hardAlpha" operator="out"/>
<feColorMatrix type="matrix" values="0 0 0 0 0 0 0 0 0 0 0 0 0 0 0 0 0 0 0.25 0"/>
<feBlend mode="normal" in2="BackgroundImageFix" result="effect1_dropShadow_632_47337"/>
<feBlend mode="normal" in="SourceGraphic" in2="effect1_dropShadow_632_47337" result="shape"/>
</filter>
</defs>
</svg>
