<svg width="24" height="24" viewBox="0 0 24 24" fill="none" xmlns="http://www.w3.org/2000/svg">
<path d="M12 15L20.385 6.58499C20.7788 6.19114 21.0001 5.65697 21.0001 5.09998C21.0001 4.543 20.7788 4.00883 20.385 3.61498C19.9912 3.22114 19.457 2.99988 18.9 2.99988C18.343 2.99988 17.8088 3.22114 17.415 3.61498L9 12V15H12Z" stroke="currentColor" stroke-width="1.5" stroke-linecap="round" stroke-linejoin="round"/>
<path d="M16 5L19 8" stroke="currentColor" stroke-width="1.5" stroke-linecap="round" stroke-linejoin="round"/>
<path d="M8.99855 7.07001C7.24959 7.32629 5.66228 8.23457 4.55518 9.61257C3.44808 10.9906 2.90313 12.7363 3.0297 14.4994C3.15627 16.2625 3.94499 17.9125 5.23757 19.1182C6.53014 20.3239 8.23092 20.9962 9.99855 21C11.6817 20.9998 13.3084 20.3934 14.5809 19.2917C15.8534 18.19 16.6865 16.6668 16.9276 15.001" stroke="currentColor" stroke-width="1.5" stroke-linecap="round" stroke-linejoin="round"/>
</svg>
