<svg width="40" height="40" viewBox="0 0 40 40" fill="none" xmlns="http://www.w3.org/2000/svg">
<rect x="11.9382" y="1.69727" width="28.2843" height="28.2843" rx="5.83644" transform="rotate(21.23 11.9382 1.69727)" fill="#284892"/>
<rect x="20" width="28.2843" height="28.2843" rx="5.83644" transform="rotate(45 20 0)" fill="#E79B24"/>
<rect opacity="0.9" x="11.9382" y="1.69727" width="28.2843" height="28.2843" rx="5.83644" transform="rotate(21.23 11.9382 1.69727)" fill="#224084"/>
<path fill-rule="evenodd" clip-rule="evenodd" d="M32.071 27.9817L30.1744 32.8638C29.0071 35.8684 25.6252 37.3579 22.6206 36.1907L17.5779 34.2317L16.3907 33.0445C11.7021 28.356 10.4311 21.3212 15.8685 15.8838C21.924 9.82442 28.3406 11.7175 33.0291 16.4061L35.1641 18.5411L24.1742 29.531C26.1249 31.0209 29.0625 30.9902 30.9671 29.0856L32.071 27.9817ZM26.2401 20.4495C26.2401 20.4495 26.0865 20.2998 26.0366 20.246C24.5544 18.6448 22.7304 18.0726 20.9103 19.4511C20.7221 19.5971 20.3612 19.9004 20.1922 20.0886C18.6332 21.7551 19.1439 23.9093 20.2613 25.499C20.3612 25.6411 20.6492 26.0366 20.6492 26.0366L26.2401 20.4495Z" fill="white"/>
</svg>
