<svg width="288" height="191" viewBox="0 0 288 191" fill="none" xmlns="http://www.w3.org/2000/svg">
<path d="M232.72 73.0433C231.434 67.474 228.436 62.3332 224.366 58.4775C227.579 55.4787 226.508 48.6241 225.008 44.7685C224.366 43.0548 223.295 41.7696 222.224 40.4844L221.581 39.8418C220.51 38.3424 220.296 37.2714 220.082 35.1293C219.867 32.5589 218.368 30.4169 216.869 28.4891C215.798 27.2039 214.941 25.7044 214.298 24.4192C214.084 23.9908 214.084 23.5623 213.87 23.3481C213.655 22.9197 213.656 22.2772 213.441 21.8488C212.37 19.0641 210.228 16.9221 207.658 15.6369C206.373 14.9943 205.087 14.3517 203.802 13.4948C202.517 12.8522 201.232 11.9954 199.946 11.3528C196.733 9.85339 193.306 8.78233 190.093 7.49712C187.308 6.6403 184.31 5.56929 181.739 4.28407C181.311 4.06986 180.882 3.85569 180.454 3.64148C179.811 3.21308 179.169 2.78467 178.312 2.57047C177.027 2.14206 175.527 2.14205 174.028 2.35625C173.599 2.35625 172.957 2.57045 172.743 2.35625C172.743 2.35625 172.529 2.14202 172.529 1.92782C172.314 1.71361 172.314 1.49942 172.1 1.07102C171.243 0 170.172 0.428446 169.744 0.642649C169.53 0.642649 169.53 0.642649 169.315 0.642649C168.887 0.642649 168.244 0.642636 167.602 0.428433C167.173 0.428433 166.745 0.214216 166.317 0.214216C164.175 1.30707e-05 162.033 0 159.676 0C155.178 0 150.68 0.214229 146.181 0.428433C132.258 1.28525 116.407 2.35624 103.341 4.28407C98.1999 4.92668 92.8449 5.56931 87.4898 5.78351C84.9193 5.99772 82.1347 5.99773 79.5643 5.99773C78.2791 5.99773 76.7796 5.99773 75.4944 5.99773C75.2802 5.99773 74.8518 5.99773 74.6376 5.99773C74.2092 5.99773 73.3524 6.21193 73.1382 5.99773C72.924 5.99773 72.924 5.78351 72.7098 5.78351C72.4956 5.78351 72.4955 5.5693 72.2813 5.5693C69.7109 3.85567 67.3547 5.35512 66.2837 5.99773C65.6411 6.42614 65.641 6.21191 64.7842 5.5693C64.3558 5.14089 63.7132 4.9267 63.0706 4.7125C61.357 4.28409 59.6434 5.14088 58.144 7.49712C57.2872 8.99654 56.2161 10.7102 56.0019 12.638C55.7877 14.1374 56.0019 15.6368 56.2161 17.1363C56.2161 17.7789 56.4303 18.6357 56.4303 19.2783C56.6445 21.2061 56.2161 22.9198 56.0019 24.8476V25.4902C54.7167 34.4867 54.5025 43.4833 55.3593 52.4798C55.5735 53.5508 55.7877 54.6218 56.0019 55.6929C56.2161 56.3355 56.4303 56.9781 56.4303 57.6207C56.6445 58.6917 56.6445 60.1912 56.6445 61.4764C56.6445 62.3332 56.6445 62.9758 56.6445 63.8326V64.6894C56.8587 66.8315 57.0729 70.6871 60.9286 70.6871C62.6422 70.6871 64.3558 70.0445 66.0695 69.1877C66.9263 68.7593 67.7831 68.3309 68.6399 68.1167C69.0683 67.9025 69.4967 67.9025 69.9251 67.6883C72.0672 67.0456 73.5666 66.6172 75.2802 67.6883C78.4933 69.8303 81.9205 71.3297 85.562 72.4007C92.8449 74.5428 100.556 74.5428 108.053 74.5428H119.834C121.762 74.5428 124.119 74.5427 126.261 73.6859C126.475 73.6859 126.689 73.4718 126.903 73.4718C127.546 73.2576 128.188 72.8291 128.617 73.0433C129.259 73.0433 129.688 73.4717 130.33 73.9001C130.759 74.1143 130.973 74.3286 131.401 74.5428C133.543 75.6138 135.9 75.1854 138.042 74.5428C139.541 75.6138 140.826 76.6848 142.326 77.97C142.968 78.6126 143.611 79.2552 144.468 79.4694C145.325 79.8978 146.181 79.4694 146.824 79.2552C147.038 79.2552 147.252 79.041 147.467 79.041C147.467 79.2552 147.467 79.6837 147.467 79.8979C147.467 80.5405 147.467 80.9688 147.681 81.3972C148.109 82.4683 148.538 83.5393 149.395 84.1819C150.037 84.6103 150.68 85.0387 151.322 85.2529C150.894 85.8956 150.466 86.5382 150.251 87.395C149.609 89.537 150.466 91.679 151.108 93.1784C151.322 93.6068 151.322 93.821 151.537 94.2494C152.393 96.3915 153.036 98.3193 155.821 99.3903C156.677 99.8187 157.534 99.8187 158.391 99.8187C159.676 99.8187 161.176 99.3903 162.461 98.7477C164.603 97.6767 166.317 95.7489 166.745 93.6069C167.388 90.8222 168.244 87.8233 167.173 84.6103C166.317 82.4683 166.102 79.8978 165.674 77.3274C165.46 76.2564 165.46 75.1854 165.246 74.1143C165.031 73.4717 165.031 72.8291 164.817 71.9723C164.603 71.5439 164.389 70.9013 164.175 70.2587C163.318 68.3309 162.461 66.1888 163.532 64.4752C163.318 64.4752 163.318 64.4752 163.104 64.261C163.746 64.261 164.175 64.4752 165.031 64.6894C166.317 65.1178 167.602 65.7604 168.887 66.1888C171.243 67.2598 173.814 68.5451 176.384 68.5451H176.598C177.027 68.5451 177.455 68.5451 177.884 68.7593C178.098 68.9735 178.312 69.1876 178.312 69.4018C180.454 72.6149 182.596 75.1854 186.238 77.1132C189.879 79.041 193.735 80.7546 197.376 82.4683C201.66 84.1819 207.229 86.324 212.799 86.324C215.798 86.324 218.796 85.6814 221.581 84.1819C223.08 83.3251 224.151 82.2541 224.366 81.183C224.794 81.183 225.008 81.3972 225.437 81.3972C227.793 81.8257 230.149 80.7546 231.22 79.041C233.576 77.1132 233.148 74.757 232.72 73.0433Z" fill="#AEDCF4"/>
<path d="M219.438 54.4075C217.296 52.9081 214.726 52.0513 212.584 50.7661C210.656 49.6951 208.942 48.1957 207.443 46.4821C206.586 45.6252 205.301 42.8406 204.016 42.8406C202.302 42.8406 202.302 46.4821 201.66 47.7673C200.589 49.4809 199.089 50.9803 197.376 51.8371C194.163 53.5508 190.521 53.5507 186.88 53.5507C182.167 53.3365 177.669 52.9082 173.171 51.8371C169.529 50.9803 166.744 52.4798 163.103 51.8371C158.819 50.9803 154.535 50.3377 150.251 50.1235C147.466 49.9093 144.681 49.9093 141.897 50.5519C136.113 51.8371 132.686 56.978 127.117 58.2632C120.048 59.9769 112.765 61.4763 105.697 60.4053C100.77 59.5485 95.8432 57.4064 91.9875 54.1934C91.5591 53.9792 91.3449 53.5507 90.9165 53.3365C89.2029 51.8371 87.9176 50.1235 86.204 48.8383C83.8478 47.1247 81.2774 47.3388 79.1353 46.0536C77.6359 45.1968 75.4939 44.9826 73.566 45.1968C67.3541 45.411 61.3564 45.8394 55.1445 46.0536C55.1445 48.4099 55.3588 50.7661 55.573 53.1224C55.7872 54.1934 56.0013 55.2644 56.2155 56.3354C56.4298 56.978 56.644 57.6206 56.644 58.2632C56.8582 59.3343 56.8582 60.8337 56.8582 62.1189C56.8582 62.9757 56.8582 63.6183 56.8582 64.4751V65.3319C57.0724 67.474 57.2866 71.3297 61.1423 71.3297C62.8559 71.3297 64.5695 70.687 66.2831 69.8302C67.1399 69.4018 67.9968 68.9734 68.8536 68.7592C69.282 68.545 69.7104 68.545 70.1388 68.3308C72.2808 67.6881 73.7802 67.2597 75.4938 68.3308C78.7069 70.4728 82.1342 71.9722 85.7756 73.0433C93.0585 75.1853 100.77 75.1853 108.267 75.1853H120.048C121.976 75.1853 124.332 75.1853 126.474 74.3285C126.688 74.3285 126.903 74.1143 127.117 74.1143C127.759 73.9001 128.402 73.4716 128.831 73.6858C129.473 73.6858 129.901 74.1143 130.544 74.5427C130.973 74.7569 131.187 74.9711 131.615 75.1853C133.757 76.2563 136.113 75.8279 138.255 75.1853C139.755 76.2563 141.04 77.3273 142.54 78.6126C143.182 79.2552 143.825 79.8977 144.682 80.1119C145.538 80.5403 146.395 80.112 147.038 79.8978C147.252 79.8978 147.466 79.6836 147.68 79.6836C147.68 79.8978 147.68 80.3262 147.68 80.5404C147.68 81.183 147.68 81.6114 147.895 82.0398C148.323 83.1108 148.751 84.1818 149.608 84.8244C150.251 85.2528 150.893 85.6812 151.536 85.8955C151.108 86.5381 150.679 87.1807 150.465 88.0375C149.822 90.1795 150.679 92.3216 151.322 93.821C151.536 94.2494 151.536 94.4636 151.75 94.892C152.607 97.034 153.25 98.9619 156.034 100.033C156.891 100.461 157.748 100.461 158.605 100.461C159.89 100.461 161.389 100.033 162.675 99.3902C164.817 98.3192 166.53 96.3914 166.959 94.2494C167.601 91.4647 168.458 88.4659 167.387 85.2529C166.53 83.1108 166.316 80.5403 165.888 77.9699C165.673 76.8989 165.673 75.8279 165.459 74.7569C165.245 74.1142 165.245 73.4716 165.031 72.6148C164.817 72.1864 164.602 71.5438 164.388 70.9012C163.531 68.9734 162.675 66.8313 163.746 65.1177C163.531 65.1177 163.531 65.1178 163.317 64.9036C163.96 64.9036 164.388 65.1177 165.245 65.3319C166.53 65.7603 167.815 66.403 169.101 66.8314C171.457 67.9024 174.027 69.1876 176.598 69.1876H176.812C177.24 69.1876 177.669 69.1876 178.097 69.4018C178.311 69.616 178.526 69.8302 178.526 70.0444C180.668 73.2575 182.81 75.8279 186.451 77.7558C188.807 79.041 191.378 80.1119 193.734 81.3972C198.232 80.9688 203.159 82.254 206.586 85.2529C207.015 85.4671 207.229 85.8955 207.657 86.3239C209.371 86.7523 211.085 86.9665 213.012 86.9665C213.655 86.9665 214.083 86.9665 214.512 86.9665C216.654 85.2528 219.01 83.5392 221.152 81.6114C216.654 78.6125 211.513 74.1143 213.012 68.9734C214.083 65.1177 218.367 63.1899 222.223 61.6905C223.294 58.2633 221.58 55.907 219.438 54.4075Z" fill="#457AF0"/>
<path d="M225.865 49.6975C226.079 49.4833 226.079 49.2691 226.294 49.0549C226.079 47.5555 225.651 46.056 225.008 44.7708C224.366 43.0572 223.295 41.772 222.224 40.4867L221.581 39.8442C220.51 38.3447 220.296 37.2737 220.082 35.1317C219.867 32.5612 218.368 30.4192 216.869 28.4914C215.798 27.2062 214.941 25.7067 214.298 24.4215C214.084 23.9931 214.084 23.5647 213.87 23.3505C213.655 22.9221 213.656 22.2795 213.441 21.8511C212.799 20.3517 211.728 18.8523 210.657 17.7812C208.086 23.9931 210.442 34.9175 213.013 40.2726C213.656 41.772 214.727 43.2714 215.369 44.985C216.44 47.5555 217.297 50.9827 220.082 51.8396C222.224 52.4822 224.58 51.4112 225.865 49.6975Z" fill="#457AF0"/>
<path d="M156.892 15.2053C157.749 15.2053 158.606 15.4195 159.248 15.8479C160.105 16.4905 160.319 17.5616 160.962 18.4184C162.676 20.3462 165.674 19.2752 168.245 19.4894C172.315 19.9178 174.885 23.5593 177.456 26.7723C178.098 27.4149 179.598 28.486 179.383 29.557C179.383 29.9854 179.169 30.4138 178.741 30.628C177.027 32.1274 173.814 29.7712 171.886 29.1286C166.96 27.4149 161.604 26.9865 156.249 26.9865C152.394 26.7723 145.968 27.8434 142.755 25.2729C133.544 18.2042 153.036 14.9911 156.892 15.2053Z" fill="#457AF0"/>
<path d="M221.066 79.0461C222.78 79.903 224.493 80.7598 226.207 80.974C227.921 81.1882 230.063 80.7598 231.134 79.0461C232.205 77.5467 231.991 75.6189 231.562 73.9053C230.063 67.6934 226.421 61.9099 221.495 58.0543C217.853 55.2696 214.64 52.2708 210.784 49.7003C209.071 48.4151 207.786 47.3441 206.286 45.8446C206.072 45.6304 205.644 45.202 205.215 44.9878C204.358 44.3452 202.216 42.6316 201.574 44.131C200.717 46.0589 202.645 47.7725 203.716 49.0577C205.001 50.5571 206.5 51.8423 207.571 53.1275C209.713 55.698 212.07 58.0543 215.069 59.3395C217.853 60.4105 221.066 60.1963 223.208 58.2685C225.993 55.698 225.136 49.2719 223.637 45.8446C222.78 44.131 221.709 42.6316 220.424 40.918C219.138 39.2044 218.924 37.9192 218.71 35.7771C218.282 31.7073 214.426 28.9226 213.141 25.067C212.927 24.2101 212.712 23.3533 212.284 22.4965C211.213 19.9261 209.285 17.9982 206.929 16.9272C204.358 15.642 202.002 13.9284 199.217 12.6431C193.434 9.85849 187.008 8.3591 181.01 5.78866C179.939 5.36026 178.868 4.2892 177.797 4.075C176.726 3.8608 175.441 3.64658 174.156 3.86078C173.299 4.07499 172.442 4.28924 171.799 3.64663C171.371 3.21823 171.371 2.78981 170.943 2.3614C170.3 1.71879 169.657 2.3614 169.015 2.3614C168.158 2.3614 166.873 2.14717 166.016 1.93297C163.874 1.71876 161.732 1.71875 159.59 1.71875C155.092 1.71875 150.593 1.93298 146.095 2.14718C132.814 3.004 116.535 4.07504 103.469 5.78866C98.1136 6.43127 92.9726 7.07385 87.6176 7.28805C85.0471 7.50225 82.2625 7.50226 79.6921 7.50226C78.4069 7.50226 76.9075 7.50226 75.6222 7.50226C74.7654 7.50226 73.2659 7.71647 72.6233 7.50226C72.1949 7.28806 71.9807 7.07388 71.7665 6.85968C70.0529 5.78866 68.5535 6.43124 67.0541 7.28805C65.3405 8.35906 64.4836 6.64544 62.9842 6.21703C61.4848 5.78863 60.1996 7.28806 59.3428 8.57328C58.486 10.0727 57.6292 11.5722 57.415 13.2858C56.9865 15.4278 57.6291 17.5698 57.8433 19.7119C58.0575 21.8539 57.6292 23.9959 57.415 26.138C56.1297 34.9203 55.9155 43.9168 56.9865 52.6992C57.2007 54.4128 57.8433 55.9122 58.2718 57.6258C58.7002 59.5537 58.4859 61.9099 58.7001 63.8377C58.9143 66.1939 58.7001 69.6212 61.9132 69.6212C64.2694 69.6212 67.054 67.6934 69.4103 67.0508C72.4091 66.1939 74.337 65.123 76.9074 66.8366C79.9062 68.7644 83.3335 70.478 86.7608 71.549C93.8295 73.6911 101.541 73.6911 109.038 73.6911C112.894 73.6911 116.749 73.6911 120.819 73.6911C122.747 73.6911 124.889 73.6911 126.817 73.0485C127.888 72.6201 128.745 72.1917 129.816 72.1917C131.101 72.1917 131.958 73.0485 133.029 73.6911C136.242 75.1905 139.883 73.4769 142.882 71.7633C146.524 69.8354 150.165 68.1218 154.021 66.6224C155.306 66.194 156.377 65.3371 157.662 65.1229C159.376 64.6945 161.304 63.6235 163.017 63.4093C164.088 63.1951 165.159 63.4093 166.23 63.8377C170.086 65.1229 173.299 67.6934 177.369 67.6934C178.011 67.6934 178.868 67.6934 179.511 68.1218C179.939 68.336 180.153 68.7644 180.368 69.1928C182.51 72.4058 184.652 74.7621 188.079 76.4757C191.72 78.4036 195.362 80.1172 199.217 81.8308C206.5 85.0439 215.283 87.4001 222.351 83.5444C224.279 82.4734 225.565 80.974 224.279 78.8319C223.637 77.7609 222.78 76.9041 221.709 76.2615C217.853 73.2627 213.998 70.6922 209.713 68.5502C208.214 67.6934 206.715 67.0508 205.429 66.194C202.216 64.2661 199.218 61.9099 196.647 59.1253C195.576 58.0543 194.933 56.9832 193.434 56.3406C192.577 55.9122 190.864 55.0554 190.007 56.1264C188.936 57.1975 190.649 59.3395 191.292 60.4105C191.506 60.8389 191.72 61.0531 192.149 61.4815C193.22 62.5525 194.505 63.6235 195.79 64.2661C197.29 65.1229 198.575 65.9798 200.074 66.8366C201.574 67.4792 202.859 67.6934 204.358 68.1218C207.786 69.407 210.999 71.1207 213.783 73.2627C215.711 75.4047 218.282 77.5467 221.066 79.0461Z" stroke="currentColor" stroke-miterlimit="10"/>
<path d="M164.302 64.2577C164.088 64.0435 163.874 64.0435 163.66 64.0435C163.446 64.0435 163.231 64.2577 163.017 64.4719C161.304 67.0423 163.446 70.2554 164.302 72.6116C164.517 73.2542 164.731 73.8968 164.731 74.5394C165.373 77.9667 165.373 82.0365 166.659 85.2496C167.73 88.0342 167.087 90.8189 166.23 93.8177C165.373 97.6734 160.447 100.244 156.805 98.7444C154.021 97.6734 153.806 95.7456 152.735 93.1751C152.093 91.4615 151.45 89.7479 151.879 88.0343C152.521 86.1064 154.235 84.8212 156.163 83.9644C157.019 83.536 161.089 81.8223 160.018 84.3928C158.947 86.5348 154.877 85.4638 153.378 85.0354C152.521 84.8212 151.664 84.607 151.022 83.9644C150.379 83.3218 149.951 82.6792 149.737 81.8224C149.522 81.1798 149.737 79.6803 149.522 79.2519C148.88 78.1809 147.166 79.6803 146.095 79.2519C145.238 79.0377 144.81 78.3951 144.167 77.7525C142.668 76.253 140.954 74.9678 139.026 73.6826" stroke="currentColor" stroke-miterlimit="10"/>
<path d="M225.566 129.594C223.424 119.098 204.146 61.6912 204.146 61.6912L205.859 20.35C207.787 19.7074 209.072 18.6363 209.072 17.7795L209.286 13.7097C209.286 11.1392 202.432 8.78302 193.864 8.56882C185.296 8.35462 178.227 10.0682 178.013 12.6387L177.799 16.7085C177.799 17.7795 178.87 18.8506 180.797 19.7074L180.155 33.6306C181.868 34.4874 184.011 34.4874 185.938 34.4874C191.079 34.7016 198.576 37.0579 199.433 43.0556C200.504 50.9811 190.651 55.2651 184.225 55.9078C182.511 56.122 181.012 55.9078 179.298 55.9078L179.084 61.0486C179.084 61.0486 155.307 116.741 152.308 127.023C149.31 137.305 151.88 144.802 159.163 149.086C167.303 154.013 208.43 155.512 216.784 151.442C224.495 147.373 227.494 140.09 225.566 129.594Z" fill="#F1F2F2" fill-opacity="0.7"/>
<path d="M180.368 33.4191C178.011 32.1338 173.942 25.2793 172.014 23.5657C170.3 22.0663 167.515 22.0663 165.373 22.2805C161.304 22.7089 157.662 25.2793 153.806 26.3503C148.023 28.0639 142.025 26.7787 136.242 25.4935C135.599 25.2793 134.742 25.0651 134.314 24.6367C133.671 23.9941 133.886 22.7089 134.528 22.0662C135.171 21.4236 136.028 20.781 136.67 20.3526C139.026 19.2816 141.383 18.2106 143.953 17.9964C146.524 17.7822 149.308 18.4248 151.022 20.3526C152.307 21.6379 153.164 23.5657 154.449 24.8509C155.734 26.1361 157.662 26.5646 159.376 27.2072C163.017 28.2782 166.659 29.3492 170.514 30.206C173.085 30.6344 175.655 30.8486 177.797 32.1338C178.654 32.5622 179.511 32.9907 180.368 33.4191ZM180.368 33.4191C182.081 34.2759 184.223 34.2759 186.151 34.2759C191.292 34.4901 198.789 36.8463 199.646 42.844C200.717 50.7695 190.864 55.0536 184.437 55.6962C182.295 55.9104 180.153 55.6962 178.011 55.482C175.655 55.0536 175.013 55.0536 175.869 52.6974C175.869 52.4832 175.869 52.4831 175.869 52.2689C175.869 52.0547 175.441 52.0547 175.227 52.0547C174.156 52.2689 173.085 52.6973 172.014 53.1257C171.371 53.3399 170.728 53.5541 170.3 53.1257C169.443 52.0547 172.656 48.6275 169.443 50.3411C167.944 51.1979 166.873 52.0548 165.159 51.8406C162.803 51.8406 160.233 50.9837 157.876 50.7695C155.092 50.5553 152.307 50.5553 149.522 50.7695C148.023 50.7695 146.524 50.9837 144.81 50.9837C143.31 50.9837 141.597 52.0547 140.312 51.6263C139.883 51.6263 139.455 51.1979 139.026 50.9837C137.741 50.1269 136.67 49.0559 135.171 48.8417C134.742 48.8417 134.314 48.8417 134.314 49.2701C134.314 49.4843 134.528 49.4843 134.528 49.6985C135.599 50.5553 137.313 51.4121 137.527 52.9116C137.527 53.1258 137.527 53.34 137.527 53.5542C137.313 53.9826 136.884 53.9826 136.456 53.7684C136.028 53.5542 135.813 53.3399 135.385 53.3399C133.886 52.6973 131.958 54.8394 130.672 55.482C128.959 56.553 127.031 57.624 125.103 58.2667C121.248 59.3377 117.178 59.3377 113.108 59.1235C108.181 58.9092 103.469 58.695 98.7562 57.4098C95.3289 56.553 91.9017 55.0536 89.117 52.6974C87.1892 51.1979 86.1182 48.6275 83.9762 47.5565C80.5489 45.8429 80.3347 49.9127 80.1205 52.2689C79.9063 54.411 79.6921 56.553 79.2637 58.695" stroke="currentColor" stroke-miterlimit="10"/>
<path d="M209.104 13.9906C209.207 11.3901 202.296 9.00374 193.667 8.66055C185.038 8.31736 177.959 10.1473 177.855 12.7478C177.752 15.3484 184.663 17.7348 193.292 18.0779C201.921 18.4211 209 16.5912 209.104 13.9906Z" stroke="currentColor" stroke-miterlimit="10"/>
<path d="M181.01 17.1241C181.01 14.5536 185.08 12.4116 193.648 12.84C202.216 13.2684 209.285 15.6246 209.07 17.9809C209.07 20.5513 202.002 22.2649 193.219 22.0507" stroke="currentColor" stroke-miterlimit="10"/>
<path d="M181.011 17.1296L180.366 33.6454M170.943 147.365C170.943 145.437 176.941 143.081 188.294 143.51C199.646 143.938 208.857 146.508 208.857 149.293C208.643 152.078 199.218 154.006 187.865 153.577C175.656 153.149 163.446 151.435 159.376 149.079C152.093 144.795 149.523 137.298 152.522 127.016C155.521 116.734 179.297 61.0413 179.297 61.0413L179.479 56.3722" stroke="currentColor" stroke-miterlimit="10"/>
<path d="M-2.5 8.5C7 9.5 51.418 11.7775 57.8441 10.9207" stroke="currentColor" stroke-miterlimit="10"/>
<path d="M58 65.5C40 68.5 10 70 -0.5 71.5" stroke="currentColor" stroke-miterlimit="10"/>
<path d="M259.838 52.4758H233.491C231.991 52.4758 230.706 51.1906 230.706 49.6912C230.706 48.1918 231.991 46.9065 233.491 46.9065H259.838C261.337 46.9065 262.622 48.1918 262.622 49.6912C262.408 51.1906 261.337 52.4758 259.838 52.4758Z" stroke="currentColor" stroke-miterlimit="10"/>
<path d="M258.981 52.054V95.9656C258.981 95.9656 280.615 152.515 282.972 162.797C285.542 173.293 282.543 180.576 275.26 184.646C266.906 189.144 225.779 189.144 217.64 184.646C210.357 180.576 207.572 173.293 209.928 162.797C210.357 160.869 211.428 157.228 213.141 152.515C214.212 149.302 277.831 151.444 277.831 152.301" stroke="currentColor" stroke-miterlimit="10" stroke-linecap="round"/>
<path d="M246.558 182.076C263.711 182.076 277.617 180.158 277.617 177.792C277.617 175.426 263.711 173.508 246.558 173.508C229.404 173.508 215.498 175.426 215.498 177.792C215.498 180.158 229.404 182.076 246.558 182.076Z" fill="#C4C4C4"/>
<path opacity="0.5" d="M191.236 113.609C174.1 112.966 159.534 116.18 156.107 120.892C155.678 121.963 154.607 125.176 154.607 125.604C151.608 135.886 154.179 143.383 161.462 147.667C169.601 152.594 210.729 154.094 219.082 150.024C226.58 146.382 229.793 139.099 227.651 128.389C227.436 127.746 227.436 126.89 227.008 126.033C226.794 125.819 226.151 123.248 225.294 122.177C220.582 117.679 207.087 114.037 191.236 113.609Z" fill="#FFC56C"/>
<path opacity="0.5" d="M226.635 135.29C226.84 129.379 210.999 124.034 191.255 123.351C171.51 122.669 155.339 126.908 155.135 132.82C154.93 138.731 170.771 144.077 190.515 144.759C210.26 145.441 226.431 141.202 226.635 135.29Z" fill="#FF9E07"/>
<path opacity="0.5" d="M287.091 165.093C286.662 163.165 285.591 159.738 284.092 155.24C283.664 153.74 281.95 154.383 281.95 154.597C281.95 155.24 267.813 155.882 250.676 155.882C233.326 155.882 219.403 155.24 219.403 154.597C219.403 154.597 217.903 153.526 217.475 155.026C215.975 159.524 214.69 163.165 214.262 165.093C211.691 175.589 214.69 182.872 221.973 186.942C230.327 191.44 271.454 191.44 279.594 186.942C286.662 182.872 289.661 175.589 287.091 165.093Z" fill="#979797"/>
<path d="M204.787 31.0591L204.145 62.1156C204.145 62.1156 224.494 119.308 225.565 130.018C227.279 145.655 216.14 144.584 220.21 134.088C226.208 118.451 230.278 109.026 234.348 96.1739V52.2623" stroke="currentColor" stroke-miterlimit="10"/>
</svg>
