<svg width="48" height="48" viewBox="0 0 48 48" fill="none" xmlns="http://www.w3.org/2000/svg">
<path d="M24 4C12.9715 4 4 12.9715 4 24C4 35.0285 12.9715 44 24 44C35.0285 44 44 35.0285 44 24C44 12.9715 35.0285 4 24 4ZM25.0409 42.2404C25.1648 35.8463 26.6518 28.4857 35.0037 27.6431C35.7968 27.5688 33.2937 26.9244 30.7162 27.8414C28.1388 28.7584 25.4374 30.9641 23.8513 34.9789C23.8017 35.1029 23.6035 35.1029 23.5539 34.9789C21.8934 30.6171 18.7708 28.0149 15.8959 27.3457C15.7472 27.3209 15.6729 27.5192 15.7968 27.5936C20.6791 30.3197 22.2404 37.1351 22.7856 42.2156C13.2689 41.596 5.73482 33.6654 5.73482 24C5.73482 13.9133 13.938 5.73482 24 5.73482C34.062 5.73482 42.2652 13.938 42.2652 24C42.2652 33.715 34.632 41.6952 25.0409 42.2404Z" fill="#284892"/>
<path d="M27.7174 11.2608C27.6926 11.236 27.6431 11.236 27.6183 11.2608C24.9913 13.3426 21.8438 18.4231 24.9665 23.3797C24.9913 23.4293 25.0904 23.4045 25.0904 23.3549C25.14 20.2323 26.3048 18.6214 26.7509 18.1257C26.8004 18.0761 26.8748 18.1257 26.85 18.1753C26.503 19.811 26.4535 21.9423 26.8252 24.1728C26.8252 24.2224 26.8748 24.2471 26.9244 24.2224C28.9814 22.7106 32.674 17.407 27.7174 11.2608Z" fill="#284892"/>
<path d="M22.4636 14.8533C22.3149 13.2176 22.8106 12.1272 22.9841 11.8298C23.0088 11.7802 23.0584 11.7802 23.0832 11.8298C23.4797 12.3502 23.7276 13.6637 23.6532 14.8037C23.6532 14.8533 23.7276 14.9029 23.7771 14.8533C25.7102 12.375 25.2889 9.27711 22.9841 7.39359C22.9593 7.3688 22.9345 7.3688 22.9097 7.39359C20.704 9.27711 20.7288 13.1681 22.3645 14.9029C22.3893 14.9277 22.4636 14.9029 22.4636 14.8533Z" fill="#284892"/>
<path d="M38.0273 21.1009C38.0273 21.0761 38.0273 21.0266 37.9778 21.0266C31.6581 19.0935 29.2541 22.9101 28.7336 23.9757C28.7089 24.0253 28.7584 24.0749 28.808 24.0501C30.1711 23.4305 31.435 23.4057 32.4263 23.5297C32.4759 23.5297 32.5007 23.604 32.4511 23.6288C31.5837 24.4466 30.295 25.2397 29.1797 25.7601C29.1302 25.7849 29.1302 25.8593 29.1797 25.8841C31.782 26.8258 36.0199 26.8754 38.0273 21.1009Z" fill="#284892"/>
<path d="M19.3658 18.598C19.3658 18.5236 19.4649 18.5236 19.4897 18.5732C20.0349 19.7628 20.9271 21.3985 22.5133 22.4394C22.5628 22.4641 22.6124 22.4394 22.6124 22.3898C23.7276 16.0453 19.8615 12.9722 16.144 12.7739C16.1192 12.7739 16.0696 12.7987 16.0696 12.8235C15.1774 19.0193 18.3745 22.018 20.7289 22.8607C20.7784 22.8854 20.828 22.8111 20.8032 22.7615C19.9358 21.6215 19.3162 20.1345 19.3658 18.598Z" fill="#284892"/>
<path d="M19.688 25.4603C18.2258 25.3612 16.5901 24.816 15.8218 24.1716C15.7722 24.1468 15.797 24.0725 15.8466 24.0725C16.7883 23.7751 18.1762 23.7007 19.6632 24.0229C19.7127 24.0477 19.7623 23.9733 19.7375 23.9238C18.994 22.9325 15.6483 18.8928 9.72513 23.3786C9.70035 23.4033 9.70035 23.4529 9.72513 23.4777C13.3435 27.3439 17.9779 26.6251 19.7375 25.5842C19.7623 25.5347 19.7375 25.4603 19.688 25.4603Z" fill="#284892"/>
<path d="M31.8069 18.2767C32.2778 17.5828 33.0956 17.1367 33.5913 17.0623C33.6409 17.0623 33.6904 17.1367 33.6409 17.1615C33.1452 17.5828 32.5008 18.4502 32.4017 19.4663C33.8143 19.2185 36.6148 18.2024 36.144 14.2371C36.144 14.2123 36.1192 14.1875 36.0696 14.1875C35.5987 14.1875 32.3769 14.4106 31.6582 18.2272C31.683 18.3015 31.7821 18.3263 31.8069 18.2767Z" fill="#284892"/>
<path d="M14.3593 20.1816C14.4336 20.1816 14.4584 20.0825 14.3841 20.0577C13.6406 19.686 13.0706 18.9425 12.9467 18.4468C12.9219 18.3972 12.9962 18.3477 13.0458 18.3972C13.5415 18.8185 14.4584 19.3638 15.4993 19.3142C15.0532 17.9511 13.6902 15.2993 9.82398 16.2659C9.7992 16.2659 9.77441 16.3154 9.77441 16.3402C9.87355 16.8111 10.4931 19.9834 14.3593 20.1816Z" fill="#284892"/>
<path d="M10.1465 33.0691C10.1465 33.0938 10.1465 33.1434 10.196 33.1434C10.7413 33.2921 14.7809 34.1843 16.491 30.5907C16.5158 30.5412 16.4414 30.4668 16.3918 30.5164C15.6483 31.0121 15.0288 31.136 14.5331 31.1112C14.4835 31.1112 14.4588 31.0616 14.4835 31.0368C14.6818 30.2933 15.6236 29.7233 15.9953 29.5251C16.0449 29.5003 16.0449 29.4259 15.9705 29.4012C13.8887 28.8807 11.113 29.3268 10.1465 33.0691Z" fill="#284892"/>
<path d="M31.8315 30.221C31.782 30.2458 31.7572 30.3202 31.8067 30.3449C32.1785 30.5432 33.1202 31.0884 33.3185 31.8567C33.3185 31.9063 33.2937 31.9311 33.2689 31.9311C32.7485 31.9558 32.1289 31.8319 31.4102 31.3363C31.3606 31.3115 31.2863 31.361 31.3111 31.4106C32.922 34.7563 37.036 34.0624 37.606 33.9633C37.6308 33.9633 37.6556 33.9137 37.6556 33.8889C36.689 30.0971 33.9133 29.6758 31.8315 30.221Z" fill="#284892"/>
<path d="M26.1422 27.2915C26.3111 25.9194 25.3358 24.6702 23.9638 24.5013C22.5917 24.3324 21.3425 25.3077 21.1736 26.6797C21.0046 28.0518 21.98 29.301 23.352 29.4699C24.7241 29.6389 25.9733 28.6635 26.1422 27.2915Z" fill="#284892"/>
</svg>
