<svg width="137" height="96" viewBox="0 0 137 96" fill="none" xmlns="http://www.w3.org/2000/svg">
<path d="M85.0654 51.7538C87.4248 42.3065 81.6789 32.7352 72.2316 30.3758C62.7842 28.0164 53.213 33.7623 50.8536 43.2097C48.4942 52.657 54.2401 62.2282 63.6874 64.5876C73.1348 66.947 82.706 61.2011 85.0654 51.7538Z" fill="#FFC56C"/>
<path d="M80.3373 18.086L79.0737 21.2449L80.3373 18.086ZM39.114 59.3093L42.2729 58.0458L39.114 59.3093ZM56.1719 18.244L57.4354 21.4028L56.1719 18.244ZM94.0784 36.7234L97.2372 35.4598L94.0784 36.7234ZM38.9561 35.1439L42.1149 36.4075L38.9561 35.1439Z" stroke="white" stroke-miterlimit="10" stroke-linejoin="round"/>
<path d="M82.5481 78.8914C79.3893 75.7325 83.9697 67.3615 84.2855 70.0466C84.6014 72.7316 77.494 78.7335 74.8089 76.3643C71.808 73.6793 79.5472 61.9915 82.7061 63.7288C85.3911 65.1503 77.494 73.0475 73.3874 73.0475C72.7557 73.0475 71.0183 72.5737 70.3865 70.5204C66.9118 64.8344 62.0155 64.8344 56.8034 60.57C52.6968 57.0952 50.9594 52.8307 50.8015 48.5662C50.4856 44.9335 51.4333 41.3008 53.3286 38.142C55.2239 34.9831 58.0669 32.6139 61.5417 31.1925C64.8585 29.771 68.6491 29.4551 72.2818 30.4027C75.9145 31.1925 79.0734 33.2457 81.4426 35.9308C83.8117 38.6158 85.2332 42.0905 85.707 45.8812C86.9706 68.783 50.1697 72.4157 34.6913 70.0466C19.2128 67.5195 6.10348 58.8326 6.26142 43.9859C7.05114 22.6635 35.0071 1 74.8089 1C114.611 1 138.618 23.4532 135.775 47.3027C132.616 73.6792 103.081 89.6316 73.3874 92.1587C53.9604 93.8961 34.3754 88.368 24.4249 83.6297C24.109 83.4717 23.6352 83.4717 23.1614 83.6297L3.10255 94.6857C1.99695 95.3175 0.733395 94.3699 1.04928 93.1063L4.36611 76.5222" stroke="white" stroke-miterlimit="10" stroke-linejoin="round"/>
<path d="M71.8079 51.8832C71.492 49.672 72.9135 46.671 74.177 45.2495C74.8088 44.6178 69.5967 44.4598 67.0696 45.2495C61.6995 47.1449 60.12 52.6729 58.8565 50.7776C57.7509 48.8822 65.806 44.7757 70.2284 58.6747" stroke="currentColor" stroke-miterlimit="10" stroke-linejoin="round"/>
</svg>
