<svg width="165" height="32" viewBox="0 0 165 32" fill="none" xmlns="http://www.w3.org/2000/svg">
<path fill-rule="evenodd" clip-rule="evenodd" d="M32.3311 10.7598L32.211 10.8349C30.5286 7.90572 27.6895 5.63748 24.6702 4.82633C21.6509 4.01517 17.7904 4.48083 14.8612 6.17825L14.7861 6.05808L25.0307 0.139649C25.5114 -0.145758 26.1273 0.0194773 26.4127 0.515184L32.3311 10.7598Z" fill="#224084"/>
<path fill-rule="evenodd" clip-rule="evenodd" d="M20.5394 0.815596V0.950788C17.1595 0.950788 13.7797 2.25765 11.5566 4.4658C9.33339 6.67394 7.80121 10.249 7.80121 13.6289H7.66602L7.69606 1.79199C7.69606 1.2362 8.1467 0.785553 8.70249 0.785553L20.5394 0.815596Z" fill="#E79B24"/>
<path fill-rule="evenodd" clip-rule="evenodd" d="M6.1037 5.30695L6.22387 5.38205C4.52645 8.29621 3.97066 11.8863 4.76679 14.9056C5.56293 17.9399 7.89125 21.0494 10.8054 22.7618L10.7303 22.882L0.500713 16.9035C0.0200278 16.6181 -0.145207 16.0022 0.1402 15.5215L6.1037 5.30695Z" fill="#224084"/>
<path fill-rule="evenodd" clip-rule="evenodd" d="M3.3999 21.1545L3.52007 21.0794C5.18745 24.0086 8.01148 26.2918 11.0308 27.133C14.0501 27.9592 17.9106 27.5236 20.8548 25.8562L20.9299 25.9764L10.6402 31.8347C10.1595 32.1051 9.54366 31.9399 9.25825 31.4592L3.3999 21.1545Z" fill="#E79B24"/>
<path fill-rule="evenodd" clip-rule="evenodd" d="M14.4404 31.8798V31.7446C17.8202 31.7747 21.2001 30.4829 23.4383 28.2897C25.6764 26.0966 27.2237 22.5215 27.2537 19.1567H27.3889L27.2837 30.9936C27.2837 31.5494 26.8181 32 26.2623 32L14.4404 31.8798Z" fill="#224084"/>
<path fill-rule="evenodd" clip-rule="evenodd" d="M29.6122 26.8026L29.492 26.7275C31.2044 23.8284 31.7903 20.2383 31.0092 17.204C30.2281 14.1696 27.9298 11.0302 25.0156 9.31771L25.0907 9.19754L35.2752 15.2211C35.7559 15.5065 35.9212 16.1224 35.6358 16.6031L29.6122 26.8026Z" fill="#E79B24"/>
<path fill-rule="evenodd" clip-rule="evenodd" d="M153.178 25.7961L152.067 27.9442V29.0257H151.736V27.9442L150.625 25.7961H150.985L151.902 27.6137L152.818 25.7961H153.178ZM148.687 29.0257H148.357L146.419 26.1867V29.0257H146.088V25.7961H146.524L148.357 28.4849V25.7961H148.687V29.0257ZM143.174 27.6588L142.558 26.1716L141.927 27.6588H143.174ZM144.12 29.0257H143.775L143.309 27.9442H141.807L141.341 29.0257H140.996L142.393 25.7961H142.754L144.12 29.0257ZM139.344 26.7725C139.344 26.5772 139.284 26.427 139.163 26.3068C139.028 26.1716 138.818 26.0965 138.548 26.0965H137.842V27.4485H138.548C138.818 27.4485 139.013 27.3734 139.148 27.2382C139.284 27.103 139.344 26.9528 139.344 26.7725ZM139.674 26.7725C139.674 27.0429 139.584 27.2682 139.419 27.4334C139.223 27.6287 138.938 27.7339 138.548 27.7339H137.842V29.0257H137.511V25.7961H138.533C138.953 25.7961 139.254 25.9163 139.449 26.1416C139.599 26.3068 139.674 26.5171 139.674 26.7725ZM135.288 29.0257H134.957V26.1566L133.726 29.0257H133.455L132.224 26.1566V29.0257H131.893V25.7961H132.389L133.575 28.545L134.762 25.7961H135.258V29.0257H135.288ZM129.46 27.3884C129.46 26.9828 129.324 26.6673 129.069 26.412C128.799 26.1566 128.468 26.0365 128.078 26.0365C127.687 26.0365 127.357 26.1716 127.086 26.427C126.816 26.6974 126.681 27.0279 126.681 27.4184C126.681 27.824 126.816 28.1545 127.086 28.4098C127.357 28.6652 127.687 28.8004 128.078 28.8004C128.468 28.8004 128.799 28.6652 129.069 28.4098C129.324 28.1394 129.46 27.794 129.46 27.3884ZM129.79 27.3884C129.79 27.8691 129.625 28.2746 129.294 28.6051C128.964 28.9206 128.558 29.0858 128.078 29.0858C127.597 29.0858 127.191 28.9356 126.861 28.6201C126.53 28.3047 126.365 27.9141 126.365 27.4334C126.365 26.9528 126.53 26.5472 126.861 26.2317C127.191 25.9163 127.597 25.751 128.078 25.751C128.558 25.751 128.979 25.9013 129.294 26.2167C129.625 26.5171 129.79 26.9227 129.79 27.3884ZM124.382 28.1845C124.232 28.4699 124.022 28.6952 123.766 28.8455C123.511 29.0107 123.226 29.0858 122.91 29.0858C122.43 29.0858 122.024 28.9356 121.709 28.6201C121.378 28.3047 121.213 27.8991 121.213 27.4034C121.213 26.9227 121.378 26.5322 121.693 26.2167C122.009 25.9013 122.415 25.736 122.895 25.736C123.226 25.736 123.526 25.8111 123.796 25.9613C124.052 26.1116 124.262 26.3369 124.397 26.6073H123.977C123.887 26.4721 123.781 26.3519 123.661 26.2618C123.436 26.0965 123.181 26.0214 122.88 26.0214C122.475 26.0214 122.159 26.1566 121.904 26.427C121.648 26.6974 121.528 27.0128 121.528 27.4034C121.528 27.794 121.663 28.1244 121.934 28.3948C122.204 28.6652 122.535 28.8004 122.91 28.8004C123.121 28.8004 123.316 28.7553 123.511 28.6502C123.721 28.545 123.887 28.3948 124.007 28.1845H124.382ZM117.172 28.1845C117.022 28.4699 116.812 28.6952 116.556 28.8455C116.301 29.0107 116.015 29.0858 115.7 29.0858C115.219 29.0858 114.814 28.9356 114.498 28.6201C114.168 28.3047 114.003 27.8991 114.003 27.4034C114.003 26.9227 114.168 26.5322 114.483 26.2167C114.799 25.9013 115.204 25.736 115.685 25.736C116.015 25.736 116.316 25.8111 116.586 25.9613C116.842 26.1116 117.052 26.3369 117.187 26.6073H116.797C116.706 26.4721 116.601 26.3519 116.481 26.2618C116.256 26.0965 116 26.0214 115.7 26.0214C115.294 26.0214 114.979 26.1566 114.724 26.427C114.468 26.6974 114.348 27.0128 114.348 27.4034C114.348 27.794 114.483 28.1244 114.754 28.3948C115.024 28.6652 115.354 28.8004 115.73 28.8004C115.94 28.8004 116.136 28.7553 116.331 28.6502C116.541 28.545 116.706 28.3948 116.827 28.1845H117.172ZM111.87 29.0257H111.539V25.7961H111.87V29.0257ZM109.286 29.0257H108.955V26.1566L107.724 29.0257H107.453L106.221 26.1566V29.0257H105.891V25.7961H106.387L107.573 28.545L108.76 25.7961H109.256V29.0257H109.286ZM103.458 27.3884C103.458 26.9828 103.322 26.6673 103.067 26.412C102.797 26.1566 102.466 26.0365 102.076 26.0365C101.685 26.0365 101.355 26.1716 101.084 26.427C100.814 26.6974 100.679 27.0279 100.679 27.4184C100.679 27.824 100.814 28.1545 101.084 28.4098C101.355 28.6652 101.685 28.8004 102.076 28.8004C102.466 28.8004 102.797 28.6652 103.067 28.4098C103.337 28.1394 103.458 27.794 103.458 27.3884ZM103.788 27.3884C103.788 27.8691 103.623 28.2746 103.292 28.6051C102.962 28.9206 102.556 29.0858 102.076 29.0858C101.595 29.0858 101.189 28.9356 100.859 28.6201C100.528 28.3047 100.363 27.9141 100.363 27.4334C100.363 26.9528 100.528 26.5472 100.859 26.2317C101.189 25.9163 101.595 25.751 102.076 25.751C102.556 25.751 102.977 25.9013 103.292 26.2167C103.623 26.5171 103.788 26.9227 103.788 27.3884ZM98.891 26.0815H98.1549V29.0257H97.8395V26.0815H97.0884V25.7961H98.891V26.0815ZM94.8653 27.6588L94.2494 26.1716L93.6185 27.6588H94.8653ZM95.8116 29.0257H95.4661L95.0005 27.9442H93.4983L93.0326 29.0257H92.6872L94.0841 25.7961H94.4447L95.8116 29.0257ZM88.9468 29.0257H87.2795V25.7961H87.6099V28.7403H88.9468V29.0257ZM84.3653 27.6588L83.7494 26.1716L83.1185 27.6588H84.3653ZM85.2966 29.0257H84.9511L84.4855 27.9442H82.9833L82.5177 29.0257H82.1722L83.5692 25.7961H83.9297L85.2966 29.0257ZM80.1893 29.0257H79.8589L77.9211 26.1867V29.0257H77.5906V25.7961H78.0263L79.8589 28.4849V25.7961H80.1893V29.0257ZM75.1572 27.3884C75.1572 26.9828 75.022 26.6673 74.7666 26.412C74.4962 26.1566 74.1658 26.0365 73.7752 26.0365C73.3846 26.0365 73.0542 26.1716 72.7838 26.427C72.5134 26.6974 72.3782 27.0279 72.3782 27.4184C72.3782 27.824 72.5134 28.1545 72.7688 28.4098C73.0392 28.6652 73.3696 28.8004 73.7602 28.8004C74.1507 28.8004 74.4812 28.6652 74.7516 28.4098C75.022 28.1394 75.1572 27.794 75.1572 27.3884ZM75.4726 27.3884C75.4726 27.8691 75.3074 28.2746 74.9769 28.6051C74.6464 28.9206 74.2409 29.0858 73.7602 29.0858C73.2795 29.0858 72.8739 28.9356 72.5434 28.6201C72.213 28.3047 72.0477 27.9141 72.0477 27.4334C72.0477 26.9528 72.213 26.5472 72.5434 26.2317C72.8739 25.9163 73.2795 25.751 73.7602 25.751C74.2409 25.751 74.6615 25.9013 74.9769 26.2167C75.3074 26.5171 75.4726 26.9227 75.4726 27.3884ZM69.9147 29.0257H69.5993V25.7961H69.9297V29.0257H69.9147ZM67.6315 26.0815H66.8954V29.0257H66.5649V26.0815H65.8289V25.7961H67.6315V26.0815ZM63.6057 27.6588L62.9898 26.1716L62.3589 27.6588H63.6057ZM64.537 29.0257H64.1915L63.7259 27.9442H62.2237L61.7581 29.0257H61.4126L62.8096 25.7961H63.1701L64.537 29.0257ZM59.4298 29.0257H59.0993L57.1615 26.1867V29.0257H56.8311V25.7961H57.2667L59.0993 28.4849V25.7961H59.4298V29.0257Z" fill="#224084"/>
<path d="M160.929 11.2252H160.869L158.376 15.266L155.897 11.2252H155.822H152.758V21.6351H155.732V15.9119L157.865 19.2617H158.887L161.035 15.9119V21.6351H164.009V11.2252H160.929Z" fill="#224084"/>
<path d="M116.061 11.2252H115.986L113.507 15.266L111.013 11.2252H110.953H107.874V21.6351H110.848V15.9119L112.996 19.2617H114.018L116.166 15.9119V21.6351H119.14V11.2252H116.061Z" fill="#224084"/>
<path d="M59.9411 11.1953L55.5098 21.6803H58.5441L59.2952 19.8176H63.3059L64.0569 21.6803H67.1514L62.72 11.1953H59.9411ZM60.1364 17.5644L61.308 14.6052L62.4647 17.5644H60.1364Z" fill="#224084"/>
<path d="M55.9752 11.2252H52.5503L48.9752 15.4913V11.2252H46.001V21.6351H48.9752V18.9913L50.0267 17.7896L52.6404 21.6351H54.5932L55.1791 20.2982L52.0246 15.7166L55.9752 11.2252Z" fill="#224084"/>
<path d="M80.9557 11.1953L76.5244 21.6803H79.5587L80.3098 19.8176H84.3205L85.0716 21.6803H88.166L83.7347 11.1953H80.9557ZM81.151 17.5644L82.3227 14.6052L83.4793 17.5644H81.151Z" fill="#224084"/>
<path d="M76.69 19.2617H71.5226L76.6449 13.3583V11.2252H67.7222V13.9141H72.7694L67.3467 19.8175L68.1128 21.6351H75.7587L76.7501 19.2617H76.69Z" fill="#224084"/>
<path d="M86.3784 13.794H89.5029V21.6803H92.387V13.794H95.4964V11.2704H86.3784V13.794Z" fill="#224084"/>
<path d="M101.295 11.0601C98.0802 11.0601 95.6768 13.4785 95.6768 16.4678C95.6768 19.4871 98.0501 21.8755 101.265 21.8755C104.479 21.8755 106.883 19.457 106.883 16.4678C106.883 13.4485 104.494 11.0601 101.295 11.0601ZM101.295 19.2768C99.7175 19.2768 98.636 17.9699 98.636 16.4678C98.636 14.9356 99.6875 13.6588 101.265 13.6588C102.857 13.6588 103.939 14.9656 103.939 16.4678C103.939 18 102.887 19.2768 101.295 19.2768Z" fill="#224084"/>
<path d="M125.119 11.2704H120.657V21.6803H123.541V18.706H124.968C127.552 18.706 129.445 17.4142 129.445 14.9507C129.445 12.6223 127.747 11.2704 125.119 11.2704ZM124.908 16.4378H123.541V13.6889H124.893C125.93 13.6889 126.561 14.1695 126.561 15.0558C126.561 15.912 125.93 16.4378 124.908 16.4378Z" fill="#224084"/>
<path d="M139.599 14.8455C139.599 13.794 139.284 12.9829 138.683 12.382C137.977 11.676 136.88 11.2704 135.288 11.2704H130.361V21.6803H133.245V18.5258H134.507L136.61 21.6803H139.945L137.466 18.0451C138.758 17.5043 139.599 16.4378 139.599 14.8455ZM135.153 16.2575H133.245V13.764H135.138C136.099 13.764 136.7 14.1846 136.7 14.9957C136.7 15.7919 136.144 16.2575 135.153 16.2575Z" fill="#224084"/>
<path d="M146.029 11.0601C142.814 11.0601 140.411 13.4785 140.411 16.4678C140.411 19.4871 142.784 21.8755 145.999 21.8755C149.213 21.8755 151.617 19.457 151.617 16.4678C151.617 13.4485 149.243 11.0601 146.029 11.0601ZM146.029 19.2768C144.451 19.2768 143.37 17.9699 143.37 16.4678C143.37 14.9356 144.421 13.6588 145.999 13.6588C147.591 13.6588 148.672 14.9656 148.672 16.4678C148.672 18 147.621 19.2768 146.029 19.2768Z" fill="#224084"/>
</svg>
