<svg width="367" height="323" viewBox="0 0 367 323" fill="none" xmlns="http://www.w3.org/2000/svg">
<path d="M117.913 48.0664H82.8251L65.3701 78.2592L82.8251 108.63H117.913L135.547 78.2592L117.913 48.0664Z" fill="#FFC56C"/>
<path d="M226.542 228.797H191.454L173.999 258.99L191.454 289.36H226.542L244.175 258.99L226.542 228.797Z" fill="#FFC56C"/>
<path d="M320.752 49.9878H285.664L268.208 80.1806L285.664 110.551H320.752L338.385 80.1806L320.752 49.9878Z" fill="#FFC56C"/>
<path d="M129.493 81.4763L112.033 50.9219" stroke="currentColor" stroke-miterlimit="10"/>
<path d="M112.033 112.035L129.493 81.4805" stroke="currentColor" stroke-miterlimit="10"/>
<path d="M77.1133 112.031H112.033" stroke="currentColor" stroke-miterlimit="10"/>
<path d="M59.6533 81.4805L77.113 112.035" stroke="currentColor" stroke-miterlimit="10"/>
<path d="M77.113 50.9219L59.6533 81.4763" stroke="currentColor" stroke-miterlimit="10"/>
<path d="M112.033 50.9219H77.1133" stroke="currentColor" stroke-miterlimit="10"/>
<path d="M119.308 81.4803L107.668 59.6558" stroke="currentColor" stroke-miterlimit="10"/>
<path d="M82.9336 101.848H107.668" stroke="currentColor" stroke-miterlimit="10"/>
<path d="M82.9331 59.6558L69.8384 81.4803" stroke="currentColor" stroke-miterlimit="10"/>
<path d="M328.824 74.2006L317.184 52.376" stroke="currentColor" stroke-miterlimit="10"/>
<path d="M292.45 96.031H317.184" stroke="currentColor" stroke-miterlimit="10"/>
<path d="M292.449 52.376L279.354 74.2006" stroke="currentColor" stroke-miterlimit="10"/>
<path d="M228.431 254.621L215.336 232.797" stroke="currentColor" stroke-miterlimit="10"/>
<path d="M192.056 274.992H215.335" stroke="currentColor" stroke-miterlimit="10"/>
<path d="M192.056 232.797L178.961 254.621" stroke="currentColor" stroke-miterlimit="10"/>
<path d="M321.549 43.6529L331.734 24.7383" stroke="currentColor" stroke-miterlimit="10"/>
<path d="M39.2842 81.4805H59.6538" stroke="currentColor" stroke-miterlimit="10"/>
<path d="M221.156 285.176L231.341 302.635" stroke="currentColor" stroke-miterlimit="10"/>
<path d="M168.777 254.621H148.407" stroke="currentColor" stroke-miterlimit="10"/>
<path d="M339.008 74.2068L321.549 43.6523" stroke="currentColor" stroke-miterlimit="10"/>
<path d="M321.549 104.762L339.008 74.2075" stroke="currentColor" stroke-miterlimit="10"/>
<path d="M286.63 104.754H321.549" stroke="currentColor" stroke-miterlimit="10"/>
<path d="M286.63 43.6523L269.17 74.2068" stroke="currentColor" stroke-miterlimit="10"/>
<path d="M321.549 43.6523H286.63" stroke="currentColor" stroke-miterlimit="10"/>
<path d="M238.615 254.622L221.156 224.067" stroke="currentColor" stroke-miterlimit="10"/>
<path d="M221.155 285.176L238.615 254.621" stroke="currentColor" stroke-miterlimit="10"/>
<path d="M168.776 254.621L186.173 285.176H221.155" stroke="currentColor" stroke-miterlimit="10"/>
<path d="M186.237 224.067L168.777 254.622" stroke="currentColor" stroke-miterlimit="10"/>
<path d="M222.61 112.034H220.671L212.911 100.799V112.034H210.971V97.4839H212.911L220.671 108.718V97.4839H222.61V112.034Z" fill="#ED9205"/>
<path d="M226.975 170.236H225.035L217.275 159.002V170.236H215.335V155.687H217.275L225.035 166.921V155.687H226.975V170.236Z" fill="#ED9205"/>
<path d="M168.777 148.405H166.837L159.077 137.17V148.405H157.137V133.855H159.077L166.837 145.09V133.855H168.777V148.405Z" fill="#ED9205"/>
<path d="M352.503 11.5417C353.26 11.1635 353.638 10.7852 354.205 10.2179C354.773 9.65057 354.773 9.08324 354.773 8.32679C354.773 7.00301 354.394 6.05747 353.638 5.30103C352.881 4.54458 351.558 4.35547 350.045 4.35547H345.128V19.2953H350.234C351.747 19.2953 353.071 18.9171 353.827 18.1606C354.584 17.4042 355.151 16.2695 355.151 14.9457C355.151 14.0001 354.962 13.2437 354.394 12.6764C353.827 12.109 353.26 11.7308 352.503 11.5417ZM346.83 6.05746H349.667C350.612 6.05746 351.369 6.24658 351.747 6.6248C352.314 7.00302 352.503 7.57035 352.503 8.32679C352.503 9.08324 352.314 9.65059 351.747 10.0288C351.179 10.407 350.612 10.5962 349.667 10.5962H346.641V6.05746H346.83ZM352.314 17.0259C351.747 17.4042 350.99 17.7824 350.234 17.7824H347.019V12.4873H350.234C352.125 12.4873 353.071 13.4328 353.071 15.1348C353.071 15.8913 352.882 16.6477 352.314 17.0259Z" fill="#ED9205"/>
<path d="M364.418 8.32373V16.2664C363.851 17.4011 362.905 17.9684 361.581 17.9684C360.257 17.9684 359.501 17.212 359.501 15.51V8.32373H357.61V15.51C357.61 16.8338 357.988 17.7793 358.555 18.5358C359.123 19.2922 360.068 19.4813 361.203 19.4813C362.716 19.4813 363.661 19.1031 364.418 18.1575V19.2922H366.12V8.32373H364.418V8.32373Z" fill="#ED9205"/>
<path d="M272.887 127.27C271.942 126.703 270.996 126.325 269.673 126.325C268.538 126.325 267.403 126.703 266.647 127.27C265.701 127.838 264.945 128.783 264.567 129.729C263.999 130.863 263.81 131.998 263.81 133.511V134.646C263.81 135.969 263.999 137.293 264.567 138.428C265.134 139.563 265.701 140.319 266.647 140.886C267.592 141.454 268.538 141.832 269.673 141.832C270.807 141.832 271.942 141.454 272.887 140.886C273.833 140.319 274.4 139.563 274.968 138.428C275.535 137.293 275.724 136.159 275.724 134.646V133.7C275.724 132.187 275.535 131.053 274.968 129.918C274.589 128.594 273.833 127.838 272.887 127.27ZM273.833 134.646C273.833 136.348 273.455 137.671 272.698 138.617C271.942 139.563 270.996 139.941 269.673 139.941C268.349 139.941 267.403 139.373 266.647 138.428C265.89 137.482 265.512 136.159 265.512 134.457V133.322C265.512 131.62 265.89 130.296 266.647 129.351C267.403 128.405 268.349 128.027 269.483 128.027C270.807 128.027 271.753 128.405 272.509 129.351C273.266 130.296 273.644 131.62 273.644 133.322V134.646H273.833Z" fill="#ED9205"/>
<path d="M288.206 126.516V132.946H280.641V126.516H278.75V141.456H280.641V134.459H288.206V141.456H290.097V126.516H288.206Z" fill="#ED9205"/>
<path d="M171.713 186.837C170.768 186.269 169.822 185.891 168.498 185.891C167.364 185.891 166.229 186.269 165.472 186.837C164.527 187.404 163.77 188.35 163.392 189.295C162.825 190.43 162.636 191.564 162.636 193.077V194.212C162.636 195.536 162.825 196.86 163.392 197.994C163.96 199.129 164.527 199.885 165.472 200.453C166.418 201.02 167.364 201.398 168.498 201.398C169.633 201.398 170.768 201.02 171.713 200.453C172.659 199.885 173.226 199.129 173.793 197.994C174.361 196.86 174.55 195.725 174.55 194.212V193.267C174.55 191.754 174.361 190.619 173.793 189.484C173.415 188.16 172.659 187.404 171.713 186.837ZM172.659 194.212C172.659 195.914 172.28 197.238 171.524 198.183C170.768 199.129 169.822 199.507 168.498 199.507C167.174 199.507 166.229 198.94 165.472 197.994C164.716 197.049 164.338 195.725 164.338 194.023V192.888C164.338 191.186 164.716 189.862 165.472 188.917C166.229 187.971 167.174 187.593 168.309 187.593C169.633 187.593 170.578 187.971 171.335 188.917C172.091 189.862 172.47 191.186 172.47 192.888V194.212H172.659Z" fill="#ED9205"/>
<path d="M187.031 186.265V192.506H179.467V186.265H177.576V201.016H179.467V194.208H187.031V201.016H188.922V186.265H187.031Z" fill="#ED9205"/>
<path d="M168.121 73.9456C167.176 73.3782 166.23 73 164.906 73C163.772 73 162.637 73.3782 161.881 73.9456C160.935 74.5129 160.179 75.4584 159.8 76.404C159.233 77.5387 159.044 78.6733 159.044 80.1862V81.3209C159.044 82.6447 159.233 83.9685 159.8 85.1031C160.368 86.2378 160.935 86.9942 161.881 87.5615C162.826 88.1289 163.772 88.5071 164.906 88.5071C166.041 88.5071 167.176 88.1289 168.121 87.5615C169.067 86.9942 169.634 86.2378 170.202 85.1031C170.769 83.9685 170.958 82.8338 170.958 81.3209V80.3753C170.958 78.8624 170.769 77.7278 170.202 76.5931C169.634 75.2693 169.067 74.5129 168.121 73.9456ZM169.067 81.3209C169.067 83.0229 168.689 84.3467 167.932 85.2922C167.176 86.2378 166.23 86.616 164.906 86.616C163.583 86.616 162.637 86.0487 161.881 85.1031C161.124 84.1576 160.746 82.8338 160.746 81.1318V79.9971C160.746 78.2951 161.124 76.9714 161.881 76.0258C162.637 75.0802 163.583 74.702 164.717 74.702C166.041 74.702 166.987 75.0802 167.743 76.0258C168.5 76.9714 168.878 78.2951 168.878 79.9971V81.3209H169.067Z" fill="#ED9205"/>
<path d="M183.25 73.1912V79.6209H175.874V73.1912H173.794V88.131H175.874V81.1338H183.25V88.131H185.33V73.1912H183.25Z" fill="#ED9205"/>
<path d="M130.22 21.7499H126.947V27.6435H125.128V13.0938H129.857C131.493 13.0938 132.767 13.4621 133.494 14.1988C134.403 14.9355 134.767 16.0405 134.767 17.5139C134.767 18.4348 134.585 19.1715 134.04 19.9082C133.494 20.6449 132.948 21.0132 132.039 21.3816L135.313 27.4593V27.6435H133.312L130.22 21.7499ZM126.947 20.2765H129.857C130.766 20.2765 131.493 20.0923 132.039 19.5398C132.585 18.9873 132.948 18.4348 132.948 17.5139C132.948 16.5931 132.767 15.8564 132.221 15.488C131.675 14.9355 130.948 14.7513 129.857 14.7513H126.947V20.2765Z" fill="#ED9205"/>
<path d="M339.736 136.104H336.462V142.587H334.644V126.582H339.372C341.009 126.582 342.282 126.987 343.01 127.798C343.919 128.608 344.283 129.823 344.283 131.444C344.283 132.457 344.101 133.268 343.555 134.078C343.01 134.888 342.464 135.293 341.555 135.699L344.828 142.384V142.587H342.828L339.736 136.104ZM336.28 134.483H339.19C340.1 134.483 340.827 134.28 341.373 133.673C341.918 133.065 342.282 132.457 342.282 131.444C342.282 130.431 342.1 129.621 341.555 129.216C341.009 128.608 340.282 128.405 339.19 128.405H336.28V134.483Z" fill="#ED9205"/>
<path d="M133.858 256H130.116V261.893H128.038V247.344H133.442C135.312 247.344 136.767 247.712 137.599 248.449C138.638 249.185 139.054 250.29 139.054 251.764C139.054 252.685 138.846 253.421 138.222 254.158C137.599 254.895 136.975 255.263 135.936 255.631L139.677 261.709V261.893H137.391L133.858 256ZM130.116 254.342H133.442C134.481 254.342 135.312 254.158 135.936 253.605C136.56 253.053 136.975 252.5 136.975 251.579C136.975 250.659 136.767 249.922 136.144 249.554C135.52 249.185 134.689 248.817 133.442 248.817H130.116V254.342Z" fill="#ED9205"/>
<path d="M340.408 0.190827V2.48061H341.919V3.62549H340.408V9.34996C340.408 9.7316 340.408 9.92243 340.576 10.1132C340.743 10.3041 340.911 10.304 341.247 10.304C341.415 10.304 341.583 10.3041 341.919 10.1132V11.4489C341.583 11.6398 341.247 11.6398 340.911 11.6398C340.24 11.6398 339.904 11.449 339.568 11.0673C339.233 10.6857 339.065 10.1132 339.065 9.15917V3.43469H337.554V2.28978H339.065V0H340.408V0.190827Z" fill="#ED9205"/>
<path d="M15.1302 78.4802C15.8867 78.1019 16.2649 77.7237 16.8322 77.1564C17.3996 76.589 17.3996 76.0217 17.3996 75.2652C17.3996 73.9415 17.0213 72.9959 16.2649 72.2395C15.5085 71.4831 14.1847 71.2939 12.6718 71.2939H7.75488V86.2337H12.8609C14.3738 86.2337 15.6976 85.8555 16.454 85.0991C17.2105 84.3426 17.7778 83.2079 17.7778 81.8841C17.7778 80.9386 17.5887 80.1822 17.0214 79.6148C16.6431 79.2366 15.8867 78.8584 15.1302 78.4802ZM9.646 73.1851H12.4827C13.4282 73.1851 14.1847 73.3741 14.5629 73.7524C15.1302 74.1306 15.3193 74.6979 15.3193 75.4544C15.3193 76.2108 15.1302 76.7781 14.5629 77.1564C13.9956 77.5346 13.4282 77.7237 12.4827 77.7237H9.4569V73.1851H9.646ZM14.9411 84.1535C14.3738 84.5317 13.6174 84.9099 12.8609 84.9099H9.646V79.6148H12.8609C14.752 79.6148 15.6976 80.5604 15.6976 82.2624C15.6976 83.0188 15.5085 83.5862 14.9411 84.1535Z" fill="#ED9205"/>
<path d="M27.0444 75.2632V83.2059C26.477 84.3406 25.5315 84.9079 24.2077 84.9079C22.8839 84.9079 22.1274 84.1515 22.1274 82.4495V75.2632H20.2363V82.4495C20.2363 83.7732 20.6146 84.7188 21.1819 85.4752C21.7492 86.2317 22.6948 86.4208 23.8294 86.4208C25.3423 86.4208 26.2879 86.0426 27.0444 85.097V86.2317H28.7463V75.2632H27.0444Z" fill="#ED9205"/>
<path d="M2.85399 67.1166V69.4064H4.36492V70.5513H2.85399V76.2757C2.85399 76.6574 2.854 76.8482 3.02188 77.039C3.18976 77.2298 3.35763 77.2298 3.6934 77.2298C3.86128 77.2298 4.02915 77.2298 4.36492 77.039V78.3747C4.02915 78.5655 3.6934 78.5656 3.35764 78.5656C2.68611 78.5656 2.35034 78.3747 2.01458 77.9931C1.67881 77.6114 1.51093 77.039 1.51093 76.0849V70.3604H0V69.2156H1.51093V66.9258H2.85399V67.1166Z" fill="#ED9205"/>
<path d="M253.22 315.061C253.977 314.683 254.355 314.305 254.922 313.737C255.489 313.17 255.489 312.603 255.489 311.846C255.489 310.523 255.111 309.577 254.355 308.821C253.598 308.064 252.275 307.875 250.762 307.875H245.845V322.815H250.951C252.464 322.815 253.787 322.437 254.544 321.68C255.3 320.924 255.868 319.789 255.868 318.465C255.868 317.52 255.679 316.763 255.111 316.196C254.733 315.818 253.977 315.439 253.22 315.061ZM247.736 309.766H250.573C251.518 309.766 252.275 309.955 252.653 310.333C253.22 310.712 253.409 311.279 253.409 312.035C253.409 312.792 253.22 313.359 252.653 313.737C252.085 314.116 251.518 314.305 250.573 314.305H247.547V309.766H247.736ZM253.031 320.545C252.464 320.924 251.707 321.302 250.951 321.302H247.736V316.007H250.951C252.842 316.007 253.787 316.952 253.787 318.654C253.787 319.6 253.598 320.167 253.031 320.545Z" fill="#ED9205"/>
<path d="M265.134 311.843V319.786C264.567 320.921 263.621 321.488 262.298 321.488C260.974 321.488 260.217 320.732 260.217 319.03V311.843H258.326V319.03C258.326 320.353 258.704 321.299 259.272 322.055C259.839 322.812 260.785 323.001 261.919 323.001C263.432 323.001 264.378 322.623 265.134 321.677V322.812H266.836V311.843H265.134Z" fill="#ED9205"/>
<path d="M241.469 304.281V306.57H242.98V307.715H241.469V313.44C241.469 313.821 241.469 314.012 241.637 314.203C241.805 314.394 241.973 314.394 242.309 314.394C242.477 314.394 242.644 314.394 242.98 314.203V315.539C242.644 315.73 242.309 315.73 241.973 315.73C241.301 315.73 240.966 315.539 240.63 315.157C240.294 314.776 240.126 314.203 240.126 313.249V307.525H238.615V306.38H240.126V304.09H241.469V304.281Z" fill="#ED9205"/>
<path d="M122.218 33.4619L112.033 50.9216" stroke="currentColor" stroke-miterlimit="10"/>
<path d="M321.549 104.754L331.734 122.214" stroke="currentColor" stroke-miterlimit="10"/>
<path d="M176.052 206.3L186.259 224.069H221.226L238.616 193.824L228.409 176.055" stroke="currentColor" stroke-miterlimit="10"/>
<path d="M234.25 74.2075L224.065 91.6672" stroke="currentColor" stroke-miterlimit="10"/>
<path d="M269.17 74.2075H234.25" stroke="currentColor" stroke-miterlimit="10"/>
<path d="M286.63 104.762L269.17 74.2075" stroke="currentColor" stroke-miterlimit="10"/>
<path d="M276.445 122.214L286.63 104.754" stroke="currentColor" stroke-miterlimit="10"/>
<path d="M129.492 141.137H148.407" stroke="currentColor" stroke-miterlimit="10"/>
<path d="M112.033 112.031L129.493 141.131" stroke="currentColor" stroke-miterlimit="10"/>
<path d="M149.862 81.4805H129.492" stroke="currentColor" stroke-miterlimit="10"/>
<path d="M240.071 117.851L229.886 112.031" stroke="currentColor" stroke-miterlimit="10"/>
<path d="M234.25 157.135L240.07 153.302V117.851" stroke="currentColor" stroke-miterlimit="10"/>
<path d="M193.511 180.417L209.516 171.687" stroke="currentColor" stroke-miterlimit="10"/>
<path d="M164.412 155.687V162.781L193.512 180.421" stroke="currentColor" stroke-miterlimit="10"/>
<path d="M193.512 90.208L164.412 107.458V126.582" stroke="currentColor" stroke-miterlimit="10"/>
<path d="M205.151 96.0279L193.511 90.208" stroke="currentColor" stroke-miterlimit="10"/>
</svg>
