<svg width="25" height="24" viewBox="0 0 25 24" fill="none" xmlns="http://www.w3.org/2000/svg">
<path fill-rule="evenodd" clip-rule="evenodd" d="M6.60938 5.75V9.25H10.1094V5.75H6.60938ZM5.10938 5.5C5.10938 4.80964 5.66902 4.25 6.35938 4.25H10.3594C11.0497 4.25 11.6094 4.80964 11.6094 5.5V9.5C11.6094 10.1904 11.0497 10.75 10.3594 10.75H6.35938C5.66902 10.75 5.10938 10.1904 5.10938 9.5V5.5ZM6.60938 14.75V18.25H10.1094V14.75H6.60938ZM5.10938 14.5C5.10938 13.8096 5.66902 13.25 6.35938 13.25H10.3594C11.0497 13.25 11.6094 13.8096 11.6094 14.5V18.5C11.6094 19.1904 11.0497 19.75 10.3594 19.75H6.35938C5.66902 19.75 5.10938 19.1904 5.10938 18.5V14.5ZM15.3897 14.4697C15.0968 14.1768 14.6219 14.1768 14.329 14.4697C14.0362 14.7626 14.0362 15.2374 14.329 15.5303L17.329 18.5303C17.401 18.6022 17.4838 18.6565 17.5723 18.6931C17.6607 18.7298 17.7577 18.75 17.8594 18.75C18.0513 18.75 18.2433 18.6768 18.3897 18.5303L21.3897 15.5303C21.6826 15.2374 21.6826 14.7626 21.3897 14.4697C21.0968 14.1768 20.6219 14.1768 20.329 14.4697L18.6094 16.1893V6C18.6094 5.58579 18.2736 5.25 17.8594 5.25C17.4452 5.25 17.1094 5.58579 17.1094 6V16.1893L15.3897 14.4697Z" fill="#8A8A8B"/>
</svg>
