<svg width="48" height="48" viewBox="0 0 48 48" fill="none" xmlns="http://www.w3.org/2000/svg">
<path d="M37.9849 16.2662L29.4645 21.18C29.4161 21.2042 29.3434 21.2042 29.2708 21.18L13.053 11.8124C12.9804 11.7882 12.9562 11.7156 12.9562 11.6429L13.1498 8.01209C13.1498 7.93948 13.1983 7.89105 13.2467 7.86685L16.2482 6.14825C16.2966 6.12405 16.3692 6.12405 16.4176 6.14825L19.6612 7.79424C19.7338 7.81844 19.758 7.89106 19.758 7.96368V14.3782C19.758 14.4508 19.7822 14.4992 19.8548 14.5476L21.3314 15.3948C21.4524 15.4674 21.6218 15.3706 21.6218 15.2254V6.80181C21.6218 6.72919 21.5734 6.65657 21.525 6.63237L16.3692 4.01815C16.3208 3.99395 16.2482 3.99395 16.1998 4.01815L11.4554 6.75339C11.407 6.7776 11.3586 6.85021 11.3586 6.89862L11.0682 12.6596C11.0682 12.7322 11.0924 12.8048 11.165 12.829L19.6854 17.7428C19.7338 17.767 19.7822 17.8396 19.7822 17.9122V36.6474C19.7822 36.72 19.7338 36.7927 19.6854 36.8169L16.4418 38.4628C16.3934 38.487 16.3208 38.487 16.2724 38.4628L13.2709 36.7442C13.2225 36.72 13.174 36.6474 13.174 36.599L12.9804 32.9681C12.9804 32.8955 13.0046 32.8229 13.0772 32.7987L18.6203 29.6035C18.6687 29.5793 18.7172 29.5067 18.7172 29.4341V27.7155C18.7172 27.5703 18.5719 27.4734 18.4267 27.5461L11.1408 31.7579C11.0681 31.7821 11.0439 31.8547 11.0439 31.9273L11.3344 37.6883C11.3344 37.7609 11.3828 37.8093 11.4312 37.8335L16.1756 40.5687C16.224 40.5929 16.2966 40.5929 16.345 40.5687L21.5008 37.9303C21.5734 37.9061 21.5976 37.8335 21.5976 37.7609V27.9334C21.5976 27.8608 21.6218 27.8123 21.6944 27.7639L37.9123 18.3963C37.9849 18.3721 38.0575 18.3721 38.1059 18.3963L41.1558 20.357C41.2042 20.3812 41.2526 20.4538 41.2526 20.5264V23.9878C41.2526 24.0605 41.2284 24.1089 41.1558 24.1573L38.1059 26.1179C38.0575 26.1664 37.9607 26.1664 37.9123 26.1179L32.3449 22.8986C32.2965 22.8744 32.2239 22.8744 32.1513 22.8986L30.6748 23.7458C30.5537 23.8184 30.5537 23.9878 30.6748 24.0605L37.9607 28.2722C38.0333 28.2964 38.1059 28.2964 38.1543 28.2722L43.0197 25.1255C43.0681 25.1013 43.1165 25.0287 43.1165 24.9561V19.4614C43.1165 19.3888 43.0923 19.3403 43.0197 19.2919L38.1543 16.1452C38.1301 16.2178 38.0575 16.2178 37.9849 16.2662ZM21.6218 25.3918V19.2193C21.6218 19.0741 21.7671 18.9773 21.9123 19.0499L27.2618 22.124C27.3828 22.1966 27.3828 22.3661 27.2618 22.4387L21.9123 25.5128C21.7671 25.6096 21.6218 25.537 21.6218 25.3918Z" fill="#284892"/>
<path d="M27.4071 11.2307V7.9387C27.4071 7.86608 27.4555 7.79348 27.504 7.76927L30.7475 6.12327C30.7959 6.09907 30.8685 6.09907 30.917 6.12327L33.9185 7.84189C33.9669 7.86609 34.0153 7.9387 34.0153 7.98712L34.2089 11.618C34.2089 11.6906 34.1847 11.7632 34.1121 11.7874L28.5448 15.0068C28.4964 15.031 28.448 15.1036 28.448 15.1762V16.8948C28.448 17.04 28.5932 17.1369 28.7384 17.0642L36.0244 12.8525C36.097 12.8283 36.1212 12.7556 36.1212 12.683L35.8307 6.92207C35.8307 6.84946 35.7823 6.80104 35.7339 6.77683L30.9896 4.04159C30.9412 4.01739 30.8685 4.01739 30.8201 4.04159L25.6643 6.68002C25.5917 6.70422 25.5675 6.77683 25.5675 6.84945V16.677C25.5675 16.7496 25.5433 16.798 25.4707 16.8464L24.9624 17.1369C24.8413 17.2095 24.8413 17.3789 24.9624 17.4515L27.1409 18.7102C27.2619 18.7828 27.4313 18.686 27.4313 18.5408V11.2307H27.4071Z" fill="#284892"/>
<path d="M18.6686 23.5509V21.0335C18.6686 20.8883 18.5234 20.7915 18.3782 20.8641L9.22843 26.1409C9.15581 26.1651 9.08319 26.1651 9.03478 26.1409L5.98487 24.1803C5.93646 24.1561 5.88804 24.0834 5.88804 24.0108V20.5494C5.88804 20.4768 5.91225 20.4284 5.98487 20.38L9.03478 18.4193C9.08319 18.3709 9.18002 18.3709 9.22843 18.4193L14.7715 21.6145C14.8199 21.6387 14.8926 21.6387 14.9652 21.6145L16.4417 20.7673C16.5627 20.6946 16.5627 20.5252 16.4417 20.4526L9.15581 16.2408C9.08319 16.2166 9.01058 16.2166 8.96216 16.2408L4.09682 19.3875C4.04841 19.4118 4 19.4844 4 19.557V25.0517C4 25.1243 4.02421 25.1727 4.09682 25.2211L8.96216 28.3679C9.01058 28.4163 9.1074 28.4163 9.15581 28.3679L17.6762 23.4541C17.7246 23.4299 17.7972 23.4299 17.8699 23.4541L18.3782 23.7446C18.5234 23.793 18.6686 23.6961 18.6686 23.5509Z" fill="#284892"/>
<path d="M27.1405 25.9231L25.6398 26.7945C25.5914 26.8187 25.543 26.8914 25.543 26.964V27.7628C25.543 27.8354 25.5672 27.8838 25.6398 27.9322L34.1118 32.8218C34.1844 32.846 34.2086 32.9186 34.2086 32.9912L34.015 36.622C34.015 36.6947 33.9665 36.7431 33.9181 36.7673L30.9166 38.4859C30.8682 38.5101 30.7956 38.5101 30.7472 38.4859L27.5036 36.8399C27.431 36.8157 27.4068 36.7431 27.4068 36.6704V30.2559C27.4068 30.1833 27.3826 30.1349 27.31 30.0865L25.8334 29.2393C25.7124 29.1667 25.543 29.2635 25.543 29.4087V37.8323C25.543 37.9049 25.5914 37.9776 25.6398 38.0018L30.7956 40.6402C30.844 40.6644 30.9166 40.6644 30.965 40.6402L35.7094 37.9049C35.7578 37.8807 35.8062 37.8081 35.8062 37.7597L36.0966 31.9988C36.0966 31.9261 36.0724 31.8535 35.9998 31.8293L27.5036 26.8429C27.4552 26.8187 27.4068 26.7461 27.4068 26.6735V26.0926C27.4068 25.9473 27.2616 25.8505 27.1405 25.9231Z" fill="#284892"/>
<path d="M22.7594 43.5473L23.5098 43.983C23.5582 44.0072 23.6308 44.0072 23.7034 43.983L24.4538 43.5473C24.5022 43.5231 24.5506 43.4505 24.5506 43.3779V27.741C24.5506 27.5958 24.4054 27.499 24.2602 27.5716L22.7836 28.4188C22.7352 28.443 22.6868 28.5156 22.6868 28.5882V43.3537C22.6626 43.4505 22.6868 43.4989 22.7594 43.5473Z" fill="#284892"/>
</svg>
