<svg width="25" height="24" viewBox="0 0 25 24" fill="none" xmlns="http://www.w3.org/2000/svg">
<path fill-rule="evenodd" clip-rule="evenodd" d="M7.10938 18.75H10.6094V15.25H7.10938V18.75ZM6.85938 20.25C6.16902 20.25 5.60938 19.6904 5.60938 19V15C5.60938 14.3096 6.16902 13.75 6.85938 13.75H10.8594C11.5497 13.75 12.1094 14.3096 12.1094 15V19C12.1094 19.6904 11.5497 20.25 10.8594 20.25H6.85938ZM16.1094 18.75H19.6094V15.25H16.1094V18.75ZM15.8594 20.25C15.169 20.25 14.6094 19.6904 14.6094 19V15C14.6094 14.3096 15.169 13.75 15.8594 13.75H19.8594C20.5497 13.75 21.1094 14.3096 21.1094 15V19C21.1094 19.6904 20.5497 20.25 19.8594 20.25H15.8594ZM15.829 9.96967C15.5362 10.2626 15.5362 10.7374 15.829 11.0303C16.1219 11.3232 16.5968 11.3232 16.8897 11.0303L19.8897 8.03033C19.9616 7.95842 20.0159 7.87555 20.0525 7.78709C20.0891 7.69866 20.1094 7.60169 20.1094 7.5C20.1094 7.30806 20.0362 7.11612 19.8897 6.96967L16.8897 3.96967C16.5968 3.67678 16.1219 3.67678 15.829 3.96967C15.5362 4.26256 15.5362 4.73744 15.829 5.03033L17.5487 6.75H7.35938C6.94516 6.75 6.60938 7.08579 6.60938 7.5C6.60938 7.91421 6.94516 8.25 7.35938 8.25H17.5487L15.829 9.96967Z" fill="#8A8A8B"/>
</svg>
