<svg width="25" height="24" viewBox="0 0 25 24" fill="none" xmlns="http://www.w3.org/2000/svg">
<path fill-rule="evenodd" clip-rule="evenodd" d="M12.8486 2.21875C12.3574 2.21875 11.8751 2.35033 11.4519 2.59982C11.0311 2.84794 10.684 3.20367 10.4462 3.63037L3.3497 15.8744C3.33221 15.9046 3.31685 15.9359 3.30372 15.9683C3.13864 16.3747 3.07318 16.8147 3.1128 17.2516C3.15243 17.6884 3.29599 18.1095 3.53149 18.4796C3.767 18.8496 4.08763 19.158 4.4666 19.3789C4.84557 19.5999 5.27189 19.7269 5.70997 19.7495C5.74168 19.7511 5.77303 19.7508 5.8039 19.7485C5.82196 19.7498 5.8402 19.7505 5.85859 19.7505H19.8586L19.8638 19.7505C20.3125 19.7473 20.7536 19.6345 21.1486 19.4217C21.5437 19.2089 21.8806 18.9027 22.1301 18.5298C22.3796 18.1569 22.5341 17.7286 22.5801 17.2823C22.6261 16.836 22.5621 16.3852 22.3939 15.9692C22.3806 15.9366 22.3651 15.9049 22.3475 15.8744L15.2509 3.63035C15.0132 3.20366 14.6661 2.84794 14.2452 2.59982C13.8221 2.35033 13.3398 2.21875 12.8486 2.21875Z" fill="#8A8A8B"/>
</svg>
