<svg width="25" height="24" viewBox="0 0 25 24" fill="none" xmlns="http://www.w3.org/2000/svg">
<path fill-rule="evenodd" clip-rule="evenodd" d="M12.8486 2.21875C12.3574 2.21875 11.8751 2.35033 11.4519 2.59982C11.0311 2.84794 10.684 3.20367 10.4462 3.63037L3.3497 15.8744C3.33221 15.9046 3.31685 15.9359 3.30372 15.9683C3.13864 16.3747 3.07318 16.8147 3.1128 17.2516C3.15243 17.6884 3.29599 18.1095 3.53149 18.4796C3.767 18.8496 4.08763 19.158 4.4666 19.3789C4.84557 19.5999 5.27189 19.7269 5.70997 19.7495C5.74168 19.7511 5.77303 19.7508 5.8039 19.7485C5.82196 19.7498 5.8402 19.7505 5.85859 19.7505H19.8586L19.8638 19.7505C20.3125 19.7473 20.7536 19.6345 21.1486 19.4217C21.5437 19.2089 21.8806 18.9027 22.1301 18.5298C22.3796 18.1569 22.5341 17.7286 22.5801 17.2823C22.6261 16.836 22.5621 16.3852 22.3939 15.9692C22.3806 15.9366 22.3651 15.9049 22.3475 15.8744L15.2509 3.63035C15.0132 3.20366 14.6661 2.84794 14.2452 2.59982C13.8221 2.35033 13.3398 2.21875 12.8486 2.21875ZM5.85859 18.2505C5.84002 18.2505 5.82161 18.2512 5.80338 18.2525L5.7872 18.2515C5.58807 18.2412 5.39429 18.1835 5.22203 18.0831C5.04977 17.9826 4.90404 17.8425 4.79699 17.6743C4.68994 17.506 4.62468 17.3146 4.60667 17.1161C4.59006 16.9329 4.61409 16.7485 4.67683 16.5759L11.7475 4.37659L11.7548 4.3636C11.8629 4.16822 12.0214 4.00537 12.2137 3.89196C12.4061 3.77856 12.6253 3.71875 12.8486 3.71875C13.0719 3.71875 13.2911 3.77856 13.4834 3.89196C13.6758 4.00537 13.8342 4.16822 13.9423 4.3636L13.9497 4.37659L21.02 16.5754C21.084 16.7522 21.1073 16.9413 21.088 17.1286C21.0671 17.3315 20.9969 17.5262 20.8835 17.6957C20.77 17.8652 20.6169 18.0044 20.4373 18.1011C20.2584 18.1974 20.0588 18.2487 19.8556 18.2505H5.85859Z" fill="#8A8A8B"/>
</svg>
