<svg width="25" height="24" viewBox="0 0 25 24" fill="none" xmlns="http://www.w3.org/2000/svg">
<path d="M20.8594 17V5C20.8594 3.879 19.9804 3 18.8594 3C17.7384 3 16.8594 3.879 16.8594 5V17L18.8594 19L20.8594 17Z" stroke="currentColor" stroke-width="1.5" stroke-linecap="round" stroke-linejoin="round"/>
<path d="M16.8594 7H20.8594" stroke="currentColor" stroke-width="1.5" stroke-linecap="round" stroke-linejoin="round"/>
<path d="M18.8594 19H5.85938C5.32894 19 4.82023 18.7893 4.44516 18.4142C4.07009 18.0391 3.85938 17.5304 3.85938 17C3.85938 16.4696 4.07009 15.9609 4.44516 15.5858C4.82023 15.2107 5.32894 15 5.85938 15H9.85938C10.3898 15 10.8985 14.7893 11.2736 14.4142C11.6487 14.0391 11.8594 13.5304 11.8594 13C11.8594 12.4696 11.6487 11.9609 11.2736 11.5858C10.8985 11.2107 10.3898 11 9.85938 11H6.85938" stroke="currentColor" stroke-width="1.5" stroke-linecap="round" stroke-linejoin="round"/>
</svg>
