<svg width="197" height="122" viewBox="0 0 197 122" fill="none" xmlns="http://www.w3.org/2000/svg">    <path d="M196.953 18.9619L21.418 18.9619V118.59H196.953V18.9619Z" fill="#F2F6FD"/>    <path d="M183.547 21.334H194.582V120.962H47.0469" stroke="#648CE5" stroke-miterlimit="10" stroke-linecap="round"/>    <path d="M186.282 102.652L175.868 3.56958L1.29492 21.918L11.7089 121L186.282 102.652Z" fill="white" stroke="#648CE5" stroke-miterlimit="10" stroke-linecap="round"/>    <path d="M177.98 0.962155L3.40625 19.3105L13.8202 118.393L188.393 100.044L177.98 0.962155Z" fill="white"/>    <path d="M85.0469 13.1153L175.868 3.56958L186.282 102.652L11.7089 121L1.29492 21.918L14.5469 20.5251" stroke="#648CE5" stroke-miterlimit="10" stroke-linecap="round"/>    <path d="M164.686 25.947L98.6309 32.8896L99.5098 41.2527L165.565 34.31L164.686 25.947Z" fill="#E4EBFA"/>    <path d="M166.4 42.2663L100.346 49.209L101.225 57.572L167.279 50.6294L166.4 42.2663Z" fill="#E4EBFA"/>    <path d="M168.115 58.5857L102.061 65.5283L102.94 73.8913L168.994 66.9487L168.115 58.5857Z" fill="#E4EBFA"/>    <path d="M169.739 74.9149L28.1934 89.792L29.0723 98.155L170.618 83.2779L169.739 74.9149Z" fill="#E4EBFA"/>    <path d="M54.8304 90.7934C76.3212 90.7934 93.7429 73.3667 93.7429 51.8698C93.7429 30.373 76.3212 12.9463 54.8304 12.9463C33.3397 12.9463 15.918 30.373 15.918 51.8698C15.918 73.3667 33.3397 90.7934 54.8304 90.7934Z" fill="#F2F6FD"/>    <path d="M12.2543 59.2251C11.7306 53.7514 11.866 49.0205 12.7777 43.5083C13.8032 37.3085 16.3113 31.4326 20.0982 26.3583C23.8851 21.284 28.8438 17.1545 34.5714 14.3055C40.299 11.4564 46.6337 9.96826 53.0607 9.96193C59.4877 9.95561 65.8255 11.4313 71.5589 14.2691C77.2924 17.1068 82.2597 21.2266 86.057 26.2934C89.8543 31.3602 92.3745 37.2312 93.4127 43.4289C94.4221 49.4544 94.003 55.6235 92.1909 61.4619" stroke="#648CE5" stroke-linecap="round" stroke-linejoin="round"/>    <path d="M72.2734 85.7412C73.0479 85.4619 73.5479 84.9619 74.0479 84.4619C74.5479 80.4619 75.0479 77.9619 75.5479 75.9619L76.0479 74.4619C74.8255 74.8404 73.8895 75.0418 72.6326 75.2817C72.7792 78.7722 72.6591 82.2689 72.2734 85.7412Z" fill="#ECECEC"/>    <path d="M37.8283 74.3628C35.9223 74.3964 34.0332 74.0007 32.3008 73.2051C32.5602 73.8438 32.8096 74.4826 33.0291 75.1313C34.3661 78.9937 35.6034 82.926 36.7408 86.8682L37.1199 86.968C37.7285 82.8726 38.0719 78.7421 38.1476 74.6023C38.1476 74.3428 38.0678 74.3528 37.8283 74.3628Z" fill="#ECECEC"/>    <path d="M67.4689 39.5106C64.0928 37.8225 63.0973 35.2399 62.2027 32.4554C61.8998 31.5609 61.7988 30.5653 61.3082 29.6708C60.9042 28.9783 60.2117 28.3723 59.5192 27.8818C57.5281 26.4967 54.8446 25.9917 52.464 26.3957C52.262 26.3957 52.06 26.4967 51.7715 26.4967C50.9779 26.5977 49.5784 26.9007 48.8859 27.1892C47.9914 27.5932 46.6929 28.0838 44.7163 30.6663C44.5143 30.9693 44.2257 31.2579 44.0238 31.5609C43.8218 31.8638 43.5332 32.1524 43.2302 32.3544C42.8262 33.5519 42.6387 34.937 42.6387 36.3365C42.6387 37.231 42.8407 38.0245 42.9417 38.919C43.1437 39.7125 43.3456 40.7081 43.2446 41.5016C43.1436 42.2951 43.0427 43.0886 43.0427 43.8822C43.0427 45.3971 43.3601 46.9986 43.8795 48.4269C44.1536 49.1627 44.5432 49.8553 44.9616 50.5189C45.5964 51.5145 46.3178 52.4667 47.0103 53.4334C47.7028 54.4289 48.6984 55.4244 49.6939 56.1169C50.0978 58.4975 51.7859 60.3875 53.8635 61.2821C59.0286 63.4751 65.0017 59.19 66.3868 53.9239C64.6987 53.6209 63.8042 49.9418 63.6022 48.8598C64.0928 47.6623 64.5978 46.2772 64.9873 44.2862C65.3913 44.2862 65.7808 44.2861 66.1848 44.0842C66.5888 43.8822 66.8773 43.4926 67.0793 42.9877C67.5699 41.7901 67.6708 40.9966 67.7718 39.7125C67.7574 39.6116 67.6276 39.5827 67.4689 39.5106Z" fill="white"/>    <path d="M51.656 54.0244C51.959 53.9234 52.1466 53.8224 52.4496 53.7214C52.8535 53.6204 53.2431 53.5194 53.3441 53.2308C53.4451 52.9279 53.0411 52.6393 52.7526 52.5383C52.3486 52.4373 51.959 52.3363 51.4541 52.2353C50.9635 52.0333 50.4585 51.8313 50.069 51.3408C49.0735 50.1433 49.867 48.3542 50.17 47.0702C50.3719 45.8727 50.8625 44.6896 51.1655 43.5931C51.757 41.4001 52.161 39.0195 51.4685 36.8409C50.8769 34.9509 49.5784 33.3638 48.1934 31.8777C47.3998 31.0842 46.6063 30.0887 46.2023 28.9922C45.7551 29.425 45.2645 29.9733 44.7163 30.6802C44.5143 30.9832 44.2257 31.2718 44.0238 31.5748C43.8218 31.8777 43.5332 32.1663 43.2302 32.3683C42.8262 33.5658 42.6387 34.9509 42.6387 36.3503C42.6387 37.2449 42.8407 38.0384 42.9417 38.9329C43.1437 39.7264 43.3456 40.722 43.2446 41.5155C43.1436 42.309 43.0427 43.1025 43.0427 43.8961C43.0427 45.411 43.3601 47.0125 43.8795 48.4408C44.1536 49.1766 44.5432 49.8692 44.9616 50.5328C45.5964 51.5284 46.3178 52.4806 47.0103 53.4473C47.7028 54.4428 48.6984 55.4383 49.6939 56.1308C50.0978 56.4338 50.5884 56.6214 50.9924 56.8234C51.5262 57.0398 52.0889 57.1408 52.6804 57.1408C52.7237 57.1408 52.7237 57.1263 52.6804 57.1119C51.4108 56.7368 50.3287 54.688 51.656 54.0244Z" fill="#ECECEC"/>    <path d="M83.2957 59.7531C80.8142 54.184 74.9421 54.184 69.5749 53.8954C69.3729 53.8954 68.9834 54.386 68.7814 54.2994C68.6804 54.2994 68.6371 54.1695 68.6083 54.083C68.5938 54.0253 68.5794 53.982 68.565 53.9243C68.5506 53.8954 68.5506 53.8521 68.5361 53.8377C68.5073 53.7944 68.4784 53.8088 68.4352 53.8088C67.858 53.8088 67.2809 53.7078 66.7038 53.6068C66.6028 53.5924 66.4441 53.6357 66.372 53.9243C64.9869 59.1904 59.0138 63.461 53.8487 61.2824C51.7566 60.3879 50.0686 58.4979 49.6791 56.1173C48.6835 55.4247 47.688 54.4292 46.9955 53.4337C46.6204 52.8855 46.2164 52.3516 45.8413 51.8178C42.2632 52.5103 37.4876 50.6203 34.0105 52.4093C31.1249 53.7944 29.0473 56.781 28.2394 59.8685C27.7488 61.8595 27.6479 63.8506 27.5469 65.8272C29.7399 67.5152 31.3269 70.0978 32.4234 72.8823C34.2125 73.6759 36.0015 74.0799 37.8916 74.0799C38.0936 74.0799 38.1945 74.0798 38.1945 74.3828C38.0935 78.4515 37.8916 82.6355 37.199 86.7041C42.1622 88.9837 47.7313 90.1812 53.5024 90.1812C60.2546 90.1812 66.6173 88.4932 72.1864 85.5066V85.4056C72.4894 81.9286 72.7779 78.4515 72.5904 74.9744C73.8889 74.7724 75.1729 74.3828 76.4714 73.9789C77.3659 71.9878 78.2605 70.0978 79.155 68.6117C79.9485 67.3132 80.7421 65.9282 81.9396 65.0336C82.7331 64.4421 83.6276 64.1391 84.5221 63.8361C84.2913 62.4366 83.9017 61.0516 83.2957 59.7531Z" fill="#FFC56C"/>    <path d="M63.5869 48.8447C62.7933 50.5328 61.9998 51.6293 61.0043 52.6248C58.9123 54.7168 54.3387 58.1939 50.9626 56.7944C50.5586 56.5924 50.068 56.3905 49.6641 56.1019C50.068 58.4825 51.7561 60.3725 53.8337 61.267C58.9988 63.4601 64.972 59.175 66.357 53.9089C64.6834 53.6203 63.7888 49.9412 63.5869 48.8447Z" fill="#F6F6F6"/>    <path d="M56.8359 56.2036C57.2399 55.8429 57.9035 55.338 58.6249 54.732C58.8702 54.53 58.7259 54.5877 58.5816 54.6887C56.302 56.3479 53.3443 57.7763 50.9782 56.7952C50.5742 56.5932 50.0837 56.3912 49.6797 56.1026C50.0837 58.4832 51.7717 60.3733 53.8493 61.2678C54.5995 61.5852 55.3498 61.7439 56.1145 61.816C55.9125 61.1379 55.5229 60.4598 55.2344 59.7817C54.7438 58.2957 55.7394 57.0982 56.8359 56.2036Z" fill="#D4D3D4"/>    <path d="M66.9646 58.3965C67.3686 58.4975 67.0656 59.392 66.9646 59.594C66.3731 61.8736 66.0701 64.2686 64.9736 66.3462C64.0791 68.0342 61.8861 69.0297 60.703 70.5158C59.9094 71.4103 58.813 73.6034 57.6154 73.0984C56.4179 72.6078 55.7254 71.0064 55.0329 69.9243C54.2394 68.6258 53.4458 67.3417 53.2438 65.8556C53.1428 64.4706 54.4413 64.4706 55.5234 64.3696C57.7164 64.1676 59.996 63.5761 61.9871 62.5805C63.2856 61.888 64.3676 60.9935 65.3631 59.998C65.6661 59.695 66.4597 58.4109 66.8492 58.4109C66.8636 58.3965 66.8637 58.3965 66.9646 58.3965Z" fill="#EFA93C"/>    <path d="M53.2167 50.9661C52.6251 51.9183 51.4276 52.3944 50.4754 52.1636C49.9704 52.0914 49.5088 51.7019 49.1913 51.3268C48.8451 50.9228 48.6286 50.4467 48.5565 49.9128C48.4844 49.3934 48.8307 49.1482 49.1625 48.8163C49.3068 48.6721 49.5953 48.5422 49.7973 48.5999C50.0859 48.6721 50.2878 48.8019 50.5908 48.7009C50.9515 48.5855 51.1824 48.4556 51.5431 48.7009C52.2645 49.177 53.6928 50.1437 53.2167 50.9661Z" fill="#89A7EB"/>    <path d="M47.2308 39.1788C47.2308 39.5684 47.125 39.8984 46.9804 40.1163C46.8333 40.3379 46.6856 40.3957 46.591 40.3957C46.4964 40.3957 46.3487 40.3379 46.2016 40.1163C46.0569 39.8984 45.9512 39.5684 45.9512 39.1788C45.9512 38.7892 46.0569 38.4592 46.2016 38.2413C46.3487 38.0197 46.4964 37.9619 46.591 37.9619C46.6856 37.9619 46.8333 38.0197 46.9804 38.2413C47.125 38.4592 47.2308 38.7892 47.2308 39.1788Z" fill="#284892" stroke="#284892"/>    <path d="M58.76 39.4669C58.76 39.8565 58.6543 40.1865 58.5096 40.4044C58.3625 40.626 58.2148 40.6838 58.1202 40.6838C58.0257 40.6838 57.878 40.626 57.7309 40.4044C57.5862 40.1865 57.4805 39.8565 57.4805 39.4669C57.4805 39.0773 57.5862 38.7473 57.7309 38.5294C57.878 38.3078 58.0257 38.25 58.1202 38.25C58.2148 38.25 58.3625 38.3078 58.5096 38.5294C58.6543 38.7473 58.76 39.0773 58.76 39.4669Z" fill="#284892" stroke="#284892"/>    <path d="M51.2944 47.0422C51.2079 46.9845 51.1213 46.9267 51.0347 46.869C50.8327 46.7392 50.6308 46.6238 50.4432 46.4939C50.1546 46.3063 49.8661 46.1332 49.5631 45.9457C49.4477 45.8302 49.4477 45.585 49.693 45.585L52.8382 45.9457C53.069 45.9457 53.069 46.1909 52.9536 46.3063C52.6939 46.4651 52.4342 46.6093 52.1745 46.768C52.0158 46.869 51.8283 47.0133 51.6551 47.0855C51.5253 47.1432 51.3954 47.1143 51.2944 47.0422Z" fill="#BBBBBB"/>    <path d="M43.216 32.3546C43.519 32.1526 43.8075 31.8641 44.0095 31.5611C44.2115 31.2581 44.5001 30.9695 44.702 30.6665C46.6931 28.084 47.9771 27.579 48.8717 27.1895C49.5642 26.8865 50.9637 26.5979 51.7572 26.4969C52.0602 26.4969 52.2478 26.3959 52.4498 26.3959C54.8303 25.992 57.5139 26.4969 59.505 27.882C60.1975 28.3725 60.89 28.9785 61.294 29.671C61.7845 30.5656 61.8855 31.5611 62.1885 32.4556C63.083 35.2402 64.0785 37.8227 67.4546 39.5108C67.6133 39.5829 67.7576 39.6118 67.7576 39.7128C67.6566 41.0113 67.5556 41.8048 67.0651 42.9879C66.8631 43.4784 66.5746 43.8824 66.1706 44.0844C65.7666 44.2864 65.377 44.2864 64.9731 44.2864C64.5691 46.2774 64.0785 47.6625 63.588 48.86C63.79 49.9565 64.6845 53.6356 66.3725 53.9241C66.4447 53.6211 66.6034 53.5923 66.7044 53.6067C67.2815 53.7077 67.8586 53.7943 68.4357 53.8087C68.479 53.8087 68.5079 53.7943 68.5367 53.8375C68.5511 53.8664 68.5656 53.8953 68.5656 53.9241C68.58 53.9818 68.5944 54.0395 68.6089 54.0828C68.6377 54.1694 68.681 54.2992 68.782 54.2992C68.984 54.4002 69.3735 53.8952 69.5755 53.8952C70.672 53.8952 72.4178 52.5246 72.9228 52.1351C74.4088 50.8366 75.0148 49.3505 75.9093 47.8644C76.7028 46.4794 76.8038 44.7769 76.9048 43.2908C76.9048 41.0113 76.3133 39.0202 75.2168 37.2312C75.0148 36.9282 74.8128 36.6396 74.8128 36.6396C74.7118 36.4377 74.6108 36.3367 74.5098 36.1491C74.4088 35.7451 74.5098 35.2546 74.7118 34.9516C74.8128 34.7496 75.0148 34.4611 75.1158 34.1581C75.8083 31.4745 75.0148 28.589 73.4277 26.3094C72.4322 24.9243 71.2347 23.6258 69.8497 22.6303C69.1571 22.1397 68.4646 21.4328 67.7576 21.1442C67.2671 20.9422 66.6611 20.9422 66.0696 20.6537C65.579 20.3507 65.1751 19.7592 64.7711 19.2686C63.9776 18.2731 62.881 17.5806 61.7845 17.0756C60.2985 16.3831 58.6104 16.0801 57.0089 16.1811C56.2154 16.1811 55.4219 16.4841 54.6284 16.6716C53.9358 16.9746 53.2433 17.3641 52.4353 17.5661C52.1324 17.6671 51.8438 17.5661 51.5408 17.5661C49.2612 17.4651 47.4722 20.0477 46.2747 21.7358C45.4811 22.8323 44.9762 22.6303 43.7931 22.8323C39.811 23.5248 38.729 27.3049 37.1275 30.479C36.9255 30.782 36.6369 31.0705 36.9255 31.4745C37.2285 31.7775 37.719 31.6765 37.921 32.066C38.224 32.5566 37.82 33.4511 37.618 33.8551C36.8245 36.2357 36.5215 38.8182 36.8245 41.3142C37.618 46.9844 42.9419 50.1152 42.0618 51.9042C43.115 51.9908 44.1394 52.0341 45.0916 51.9331C45.1493 51.9186 45.2214 51.9186 45.2792 51.9042C45.4523 51.8754 45.6399 51.8609 45.7986 51.8321C45.4956 51.3992 45.1926 50.9808 44.9185 50.5336C44.5001 49.8699 44.1105 49.1774 43.8364 48.4416C43.3026 47.0132 42.9996 45.4262 42.9996 43.8968C42.9996 43.1033 43.1006 42.3098 43.2016 41.5162C43.3026 40.7227 43.1006 39.7272 42.8986 38.9337C42.7976 38.0391 42.5956 37.2456 42.5956 36.3511C42.61 34.9372 42.812 33.5521 43.216 32.3546Z" fill="#9BB5EE"/>    <path d="M43.0557 88.8097C40.5164 85.0007 38.7562 79.9943 38.2946 75.1033C38.2657 74.858 38.2368 74.5695 38.208 74.3819C38.1936 74.2376 38.1647 74.1943 38.1647 74.1943C38.1791 74.2376 38.1791 74.2953 38.1791 74.3675C38.0781 78.4361 37.8761 82.6202 37.1836 86.6888C39.0592 87.5545 41.0214 88.2614 43.0557 88.8097Z" fill="#EFA93C"/>    <path d="M38.1521 74.1804C38.1666 74.065 38.181 73.964 38.181 73.964C37.979 70.1839 37.5895 66.5048 36.8825 62.8257C36.8825 62.7248 36.6805 62.7248 36.5795 62.8257L35.584 70.6745C35.584 70.6745 35.483 71.569 34.5885 71.468C33.4198 71.367 32.3522 71.0784 31.3711 70.6023C31.7606 71.3381 32.1069 72.0884 32.4099 72.8675C34.1989 73.661 35.988 74.065 37.878 74.065C38.0223 74.065 38.1089 74.0794 38.1521 74.1804Z" fill="#EFA93C"/>    <path d="M73.4576 72.3766C73.1546 67.803 73.1546 63.4314 74.3521 58.9588C74.4531 58.7568 74.1501 58.4683 73.9481 58.5548C73.2556 58.7568 72.1591 63.3304 71.9571 64.023C71.8561 64.3259 71.3656 64.3259 71.3656 64.023C71.2646 63.72 70.9616 63.72 70.875 63.821C70.2835 64.4125 70.673 65.61 70.774 66.3025C70.875 66.9951 71.077 67.7886 71.2646 68.4956C71.7551 70.1836 72.1591 71.7707 72.4621 73.4587C72.4621 73.4587 72.5631 74.4542 72.5631 74.9448C73.8616 74.7428 75.1457 74.3532 76.4442 73.9493C76.8481 73.0547 77.2377 72.2035 77.6417 71.3811V71.3667C75.7516 72.2612 74.2511 72.4632 73.7606 72.5642C73.6596 72.5786 73.4576 72.4776 73.4576 72.3766Z" fill="#EFA93C"/>    <path d="M48.5815 26.2948C46.7924 26.4967 45.5949 27.9828 45.2054 29.4689C45.1188 29.8873 44.9024 30.2913 44.7148 30.6519C46.6914 28.0838 47.9899 27.5788 48.8845 27.1893C49.1153 27.0883 49.3894 27.045 49.6058 26.8863C49.6636 26.843 49.7357 26.7853 49.7213 26.7132C49.6203 26.1793 48.8123 26.2659 48.5815 26.2948Z" fill="#4978E0" fill-opacity="0.75"/>    <path d="M45.6984 25.0966C45.5975 24.7937 45.1069 24.9956 44.9049 24.9956C44.2124 25.0966 43.7074 25.3996 43.2169 25.8902C42.2214 26.8857 41.8318 28.2708 40.8363 29.2663C40.8363 29.3673 40.6343 29.4683 40.7353 29.5692C40.8363 29.6702 41.1393 29.4682 41.2258 29.3673C41.8174 29.0643 42.5244 28.7757 43.1159 28.2707C43.5199 28.0688 43.8084 27.6792 44.0104 27.3762C44.3134 26.9722 44.4144 26.5827 44.7029 26.2797C44.9049 25.9767 45.1935 25.7892 45.3955 25.5872C45.5975 25.5006 45.7994 25.2986 45.6984 25.0966Z" fill="#4978E0" fill-opacity="0.75"/>    <path d="M67.7575 39.7119C67.6565 41.0104 67.5555 41.8039 67.065 42.987C66.863 43.4776 66.5745 43.8815 66.1705 44.0835C65.7665 44.2855 65.3769 44.2855 64.973 44.2855C64.569 46.2765 64.0784 47.6616 63.5879 48.8591C63.7899 49.9556 64.6844 53.6347 66.3725 53.9233C66.4446 53.6203 66.6033 53.5914 66.7043 53.6059C67.2814 53.7068 67.8585 53.7934 68.4356 53.8078C68.4789 53.8078 68.5078 53.7934 68.5366 53.8367C68.551 53.8656 68.5655 53.8944 68.5655 53.9233C68.5799 53.981 68.5943 54.0387 68.6088 54.082C68.6376 54.1685 68.6809 54.2984 68.7819 54.2984C68.854 54.3272 68.955 54.284 69.056 54.2263C73.6296 50.0422 72.9227 42.684 67.7575 39.7119Z" fill="#4978E0" fill-opacity="0.75"/>    <path d="M44.9455 50.5191C44.5271 49.8554 44.1376 49.1628 43.8634 48.427C43.3296 46.9987 43.0266 45.4116 43.0266 43.8823C43.0266 43.0888 43.1276 42.2952 43.2286 41.5017C43.3296 40.7082 43.1276 39.7127 42.9256 38.9191C42.8246 38.0246 42.6227 37.2311 42.6227 36.3366C42.6227 34.9515 42.8246 33.552 43.2142 32.3545C42.4207 32.946 41.7281 33.249 40.9346 33.7396C39.4485 34.7351 38.0346 35.7306 37.0391 37.0291C36.9958 37.0868 36.9526 37.1301 36.9093 37.1878C36.7361 38.5584 36.7073 39.9435 36.866 41.2997C37.6595 46.9698 42.9834 50.1006 42.1033 51.8897C43.1565 51.9763 44.1809 52.0195 45.1331 51.9185C45.1908 51.9041 45.263 51.9041 45.3207 51.8897C45.4938 51.8608 45.6813 51.8464 45.84 51.8176C45.5226 51.3847 45.2197 50.9519 44.9455 50.5191Z" fill="#4978E0" fill-opacity="0.75"/>    <path d="M67.265 30.0604C68.4625 32.1524 71.0884 33.0037 72.8775 34.5042C73.469 34.9947 74.0173 35.543 74.5078 36.1345C74.5222 36.1634 74.5511 36.2066 74.5222 36.1201C74.2481 35.3121 75.258 33.6818 74.3491 32.0514C73.6565 30.6664 72.358 30.1614 70.872 29.6709C69.6745 29.2669 68.1884 29.0793 67.2939 28.1848C66.8755 27.8097 66.5581 27.2037 66.2695 26.54C66.4571 27.7375 66.5869 28.9206 67.265 30.0604Z" fill="#4978E0" fill-opacity="0.75"/>    <path d="M59.5184 27.8818C60.1965 28.3579 60.8602 28.935 61.2641 29.6131C61.192 29.3823 61.1054 29.1514 61.0189 28.9206C60.6293 27.9251 60.1676 26.944 59.5184 26.0062C58.0323 23.9142 55.2477 22.5291 52.7662 23.7266C51.8716 24.2171 51.0781 25.0251 51.0781 26.1072C51.0781 26.5256 51.4244 26.5544 51.7707 26.5112C52.0736 26.5112 52.2612 26.4102 52.4632 26.4102C54.8438 25.9918 57.5273 26.4823 59.5184 27.8818Z" fill="#4978E0" fill-opacity="0.75"/>    <path d="M75.2171 37.2162C75.0152 36.9132 74.8132 36.6247 74.8132 36.6247C74.7266 36.466 74.6545 36.3505 74.5679 36.2207C74.0629 35.6003 73.4858 35.0232 72.8654 34.5038C71.0764 33.0177 68.4505 32.1521 67.253 30.06C66.2575 28.372 66.4595 26.583 65.8679 24.7939C65.666 24.2024 65.2764 23.4954 64.8724 23.0049C62.9824 20.4223 59.5053 19.5278 56.5187 20.0183C54.9317 20.3213 53.4312 20.8118 52.2482 22.0093C51.1516 23.2068 50.4591 24.4909 51.0506 26.078C51.0506 24.9815 51.8442 24.1879 52.7387 23.6974C55.2203 22.4999 58.0048 23.8994 59.4909 25.977C60.1401 26.9148 60.6162 27.9103 60.9914 28.8914C61.0779 29.1222 61.1645 29.3531 61.2367 29.5839C61.2511 29.5983 61.2655 29.6272 61.2799 29.6416C61.7705 30.5362 61.8715 31.5317 62.1745 32.4262C63.069 35.2108 64.0645 37.7933 67.4406 39.4814C67.5993 39.5535 67.7436 39.5824 67.7436 39.6834C72.9087 42.6699 73.6012 50.0136 69.0421 54.1977C69.2296 54.0823 69.446 53.8803 69.5759 53.8803C70.6724 53.8803 72.4182 52.5096 72.9231 52.1201C74.4092 50.8216 75.0152 49.3355 75.9097 47.8495C76.7032 46.4644 76.8042 44.7619 76.9052 43.2759C76.9052 40.9963 76.3137 39.0053 75.2171 37.2162Z" fill="#B6C9F3"/>    <path d="M43.7113 25.3594C43.0627 25.4913 42.4684 25.8146 42.0052 26.2876C41.0075 27.2856 40.5585 28.6629 39.6405 29.7108C39.6405 29.7707 39.4011 29.8905 39.4909 29.9803C39.5806 30.0701 39.9199 29.8406 39.9997 29.8006" stroke="#284892" stroke-linecap="round"/>    <path d="M27.0468 65.7909C27.047 63.775 27.278 61.7659 27.7353 59.8026C28.11 58.2128 28.8214 56.7219 29.8215 55.4305C30.8215 54.1392 32.0869 53.0776 33.5322 52.3173C37.0942 50.6007 41.8439 52.5569 45.4059 51.8183" stroke="#284892" stroke-linecap="round" stroke-linejoin="round"/>    <path d="M63.3574 48.9531C63.5371 50.031 64.3555 53.7936 66.1619 54.0132" stroke="#284892" stroke-linecap="round" stroke-linejoin="round"/>    <path d="M72.4473 75.1416C73.7601 74.8881 75.0563 74.5548 76.3285 74.1436" stroke="#284892" stroke-linecap="round" stroke-linejoin="round"/>    <path d="M49.3203 56.1391C49.5325 57.294 50.0322 58.3767 50.7734 59.2873C51.5146 60.1979 52.4732 60.9069 53.5608 61.3488C58.7391 63.5944 64.8354 59.2031 66.1424 53.9334C66.1543 53.8487 66.196 53.771 66.26 53.7143C66.3241 53.6576 66.4062 53.6256 66.4917 53.624C67.0804 53.7039 67.679 53.7538 68.2876 53.7937C68.4672 53.7937 68.4473 54.3027 68.6269 54.3127C68.8064 54.3226 69.2555 53.8636 69.475 53.8735C74.8928 54.1829 80.7097 54.2228 83.234 59.7819" stroke="#284892" stroke-linecap="round" stroke-linejoin="round"/>    <path d="M67.4092 39.8311C67.4571 40.9938 67.3252 42.062 66.8506 43.1246C66.6974 43.5669 66.3936 43.9414 65.9923 44.1825C65.6166 44.3725 65.3298 44.389 64.9141 44.3222" stroke="#284892" stroke-linecap="round" stroke-linejoin="round"/>    <path d="M50.1336 40.7174C50.2622 38.0086 48.1712 35.7083 45.4631 35.5796C42.755 35.4509 40.4554 37.5425 40.3267 40.2514C40.198 42.9602 42.2891 45.2606 44.9972 45.3893C47.7053 45.518 50.0049 43.4263 50.1336 40.7174Z" stroke="#284892" stroke-linecap="round" stroke-linejoin="round"/>    <path d="M61.0484 44.769C63.1702 43.0282 63.4793 39.8964 61.739 37.7741C59.9986 35.6517 56.8678 35.3424 54.7461 37.0833C52.6243 38.8241 52.3151 41.9559 54.0555 44.0782C55.7958 46.2006 58.9267 46.5099 61.0484 44.769Z" stroke="#284892" stroke-linecap="round" stroke-linejoin="round"/>    <path d="M47.8516 48.9619C48.2706 49.421 50.0866 51.4071 54.0476 50.2793" stroke="#284892" stroke-linecap="round" stroke-linejoin="round"/>    <path d="M61.9109 36.7176C60.2347 35.1307 56.4333 33.3841 53.6895 35.989" stroke="#284892" stroke-linecap="round" stroke-linejoin="round"/>    <path d="M42.8438 35.8694C45.2982 33.7535 47.9622 34.1228 49.3092 35.8095" stroke="#284892" stroke-linecap="round" stroke-linejoin="round"/>    <path d="M50.1777 39.5722C50.5813 39.3851 51.0225 39.2931 51.4672 39.3035C51.9119 39.3139 52.3483 39.4263 52.7427 39.6321" stroke="#284892" stroke-linecap="round" stroke-linejoin="round"/>    <path d="M62.7695 39.0725C63.5181 38.7132 64.2067 38.4038 64.7656 38.1543" stroke="#284892" stroke-linecap="round" stroke-linejoin="round"/>    <path d="M35.9688 31.5677C36.3723 31.2375 36.6877 30.8122 36.8867 30.3301C38.523 27.0865 39.5607 23.3439 43.5816 22.6353C44.8089 22.4357 45.3377 22.6353 46.086 21.5773C47.2434 19.8607 49.0294 17.3457 51.3342 17.4055C51.6419 17.4504 51.9544 17.4504 52.2621 17.4055C53.0174 17.1536 53.757 16.857 54.4771 16.5173C55.2495 16.2146 56.0639 16.0328 56.8916 15.9783C58.5469 15.8832 60.1998 16.2022 61.7008 16.9065C62.8442 17.4336 63.864 18.1953 64.6941 19.1421C65.0273 19.6606 65.434 20.1279 65.9014 20.5294C66.4302 20.8588 67.0289 20.7989 67.5776 21.0484C68.3559 21.4574 69.0855 21.9529 69.7527 22.5255C71.1395 23.5748 72.3576 24.8302 73.3646 26.2482C74.1832 27.3725 74.7579 28.6555 75.0517 30.0151C75.3455 31.3746 75.352 32.7805 75.0708 34.1427C74.7615 35.3203 74.5619 36.0689 75.4001 36.9871C75.6317 37.2366 75.9107 37.4374 76.2207 37.5779C76.5308 37.7184 76.8657 37.7958 77.206 37.8055C77.751 37.8105 78.283 37.6389 78.7225 37.3164C78.9651 37.1203 79.1609 36.8725 79.2956 36.591C79.4302 36.3096 79.5003 36.0016 79.5008 35.6896" stroke="#284892" stroke-linecap="round" stroke-linejoin="round"/>    <path d="M42.6253 39.8116C42.5155 38.6638 42.1861 37.566 42.1762 36.3584C42.1318 35.0047 42.3243 33.6536 42.745 32.3662" stroke="#284892" stroke-linecap="round" stroke-linejoin="round"/>    <path d="M33.7031 51.1094C35.1004 51.5884 36.9867 54.7921 36.9567 57.8861" stroke="#284892" stroke-linecap="round" stroke-linejoin="round"/>    <path d="M72.0784 85.6109C72.4837 82.0633 72.6005 78.4885 72.4277 74.9219C72.047 71.8203 71.9201 68.6926 72.0484 65.5703" stroke="#284892" stroke-linecap="round" stroke-linejoin="round"/>    <path d="M42.7555 88.9947C40.0545 84.586 38.4721 79.5836 38.1459 74.4233C37.7358 70.3795 36.4794 65.7802 36.9788 61.2891" stroke="#284892" stroke-linecap="round" stroke-linejoin="round"/>    <path d="M61.2225 30.4493C59.8556 27.1558 55.5153 25.8384 51.9933 26.4571C51.5543 26.527 50.6562 26.8663 50.6562 26.1278C50.6808 25.6067 50.856 25.1039 51.1607 24.6805C51.4653 24.2571 51.8862 23.9312 52.3724 23.7425C54.8568 22.5847 57.6605 23.8922 59.1272 26.028C62.3999 30.7886 61.1228 36.5872 67.1093 39.6013C72.7266 42.4757 73.3552 49.951 68.7655 54.2625C68.2667 55.4203 68.107 56.7277 67.2989 57.7457" stroke="#284892" stroke-linecap="round" stroke-linejoin="round"/>    <path d="M43.9509 31.0687C46.1759 27.875 47.6925 27.5356 48.6104 27.0765C48.9197 26.9368 49.6082 26.7871 49.0195 26.5176C48.7247 26.3889 48.4019 26.3374 48.0816 26.3679C47.2575 26.509 46.4931 26.89 45.8844 27.4634C45.2756 28.0368 44.8496 28.7771 44.6594 29.5916C44.0707 31.7174 42.1051 32.7254 40.3989 33.8133C37.5054 35.6497 34.4124 38.4542 34.1031 41.8775C33.8038 44.7817 35.2505 47.207 38.2038 47.5663" stroke="#284892" stroke-linecap="round" stroke-linejoin="round"/>    <path d="M54.4062 20.4096C58.5669 18.9924 63.9149 20.2799 65.5312 24.771C66.1698 26.5176 65.9803 28.364 66.9281 30.0307C68.1354 32.1565 70.8193 32.8452 72.6153 34.3323C73.9562 35.3915 75.0373 36.7434 75.7757 38.2847C76.5141 39.826 76.8904 41.5157 76.8757 43.2248C76.9255 44.8235 76.5829 46.4101 75.878 47.8457C74.99 49.3328 73.5731 53.0555 69.5023 53.834" stroke="#284892" stroke-linecap="round" stroke-linejoin="round"/>    <path d="M65.1641 23.8828C65.8026 25.1803 66.2715 27.3161 67.2493 28.2442C69.2448 30.1106 73.3157 29.1325 74.4631 31.9969" stroke="#284892" stroke-linecap="round" stroke-linejoin="round"/>    <path d="M50.5659 22.0262C50.9417 21.538 51.4931 21.2158 52.1029 21.1279C51.5735 21.5537 51.1404 22.0871 50.8325 22.6927C50.5245 23.2983 50.3486 23.9624 50.3164 24.641" stroke="#284892" stroke-linecap="round" stroke-linejoin="round"/>    <path d="M38.6322 31.1387C37.8397 32.3622 37.2627 33.7124 36.926 35.1308C36.6498 36.2122 36.4859 37.3193 36.4371 38.4343C36.3982 39.3582 36.445 40.2837 36.5768 41.1989C37.385 46.8877 42.7229 49.9817 41.8749 51.8081" stroke="#284892" stroke-linecap="round" stroke-linejoin="round"/>    <path d="M42.7239 41.8169C42.4272 43.896 42.6395 46.0159 43.3425 47.9948C44.1905 49.9592 45.3015 51.7991 46.6451 53.4641C47.6427 54.9392 49.0221 56.1155 50.6361 56.8674C53.9886 58.2547 58.6181 54.7815 60.7034 52.7056C62.7887 50.6296 64.3752 48.3641 65.5226 40.3398" stroke="#284892" stroke-linecap="round" stroke-linejoin="round"/>    <path d="M74.7305 72.5572C75.2958 72.4187 75.847 72.2283 76.3773 71.9883" stroke="#284892" stroke-linecap="round" stroke-linejoin="round"/>    <path d="M32.1172 72.9082C33.849 73.7058 35.7385 74.1016 37.6447 74.0659C37.8842 74.0659 37.9341 74.0659 37.9241 74.3354C37.8569 78.4744 37.5237 82.6049 36.9264 86.7011" stroke="#284892"/>    <path d="M65.2602 60.4805C62.5774 63.0906 59.1694 64.8298 55.4822 65.4707C54.7438 65.6004 53.796 65.8699 53.7461 66.6184C53.7474 66.9375 53.8486 67.2481 54.0354 67.5067C55.1729 69.5826 56.45 71.7783 58.5852 72.8063" stroke="#284892" stroke-linecap="round" stroke-linejoin="round"/>    <path d="M99.8347 64.0701C99.475 64.4228 99.1408 64.8591 98.5558 64.9367C98.2561 64.9765 97.7842 65.1407 97.7842 65.1407C97.611 65.367 97.5376 65.58 97.3635 65.6902C97.177 65.8166 96.9904 65.943 96.7051 65.9808C96.1466 66.2582 94.5282 66.8649 94.0288 66.9312C93.7689 67.2706 93.5081 67.4939 93.2217 67.6335C92.4635 67.9374 91.4789 68.068 90.7074 68.272C88.8647 68.7197 86.9955 68.9677 85.1641 69.501C84.0442 70.1433 84.0555 71.6518 84.1109 72.8351C84.1151 73.6332 84.2192 74.4179 84.3366 75.3026C81.514 78.8714 78.1163 81.9357 74.2519 84.4376C74.8139 80.3555 75.5765 76.363 76.3516 72.3544C77.261 67.9359 78.8695 63.4246 82.9318 60.882C86.249 58.7431 90.3125 58.509 94.1844 57.4871C94.7562 57.3096 95.6011 56.8926 96.1668 57.3258C96.6193 57.6723 96.5104 58.3837 96.0488 58.7354C95.7757 58.9749 95.5036 59.1126 95.1173 59.2655C93.7119 59.9456 92.122 60.7663 90.5514 61.0763C91.9132 61.491 93.4359 61.6956 94.3338 61.6781C94.4204 61.5649 94.5937 61.3387 94.766 61.2142C95.139 60.9614 95.6109 60.7972 96.1092 60.8327C96.2091 60.8195 96.2356 61.0192 96.1622 61.2322C96.362 61.2057 96.5314 61.1688 96.7301 61.244C96.8501 61.0539 97.2282 60.2922 97.3882 59.9661C97.8824 59.2036 98.4642 58.2262 99.3223 57.9091C99.7942 57.7448 100.294 57.6786 100.36 58.178C100.426 58.6774 100.264 58.9893 100.019 59.3268C99.6721 59.7793 99.4511 60.3023 99.3157 60.8139C99.9229 60.138 101.263 58.8568 101.782 58.2797C102.302 57.717 102.836 57.1381 103.76 57.3204C103.973 57.3938 104.371 57.4425 104.498 57.629C104.637 57.9154 104.362 58.1407 104.189 58.3669C103.782 59.0163 103.249 59.5952 102.728 60.158C101.785 61.372 100.89 62.9427 99.8347 64.0701Z" fill="white"/>    <path d="M86.0512 69.2818C86.0654 69.2799 86.0797 69.278 86.094 69.2761C85.7838 69.3463 85.4756 69.4307 85.1531 69.5171C84.0332 70.1593 84.0445 71.6679 84.0999 72.8512C84.1041 73.6492 84.2082 74.434 84.3255 75.3186C83.5545 76.2921 82.733 77.2142 81.8792 78.1115C81.6212 74.1964 81.001 69.8501 86.0512 69.2818Z" fill="#ECECEC"/>    <path d="M74.2325 84.3821C74.8077 80.3999 75.5571 76.3075 76.3454 72.3987C77.2548 67.9802 78.8634 63.4689 82.9256 60.9263C86.2428 58.7874 90.3063 58.5533 94.1783 57.5315C94.7501 57.354 95.5949 56.937 96.1606 57.3702C96.6131 57.7167 96.5042 58.4281 96.0427 58.7797C95.7695 59.0192 95.4974 59.157 95.1111 59.3098C93.7058 59.9899 92.1159 60.8107 90.5453 61.1207" stroke="#284892" stroke-miterlimit="10" stroke-linecap="round" stroke-linejoin="round"/>    <path d="M96.1665 61.2612C96.4072 61.2147 96.5556 61.2386 96.7344 61.2729" stroke="#284892" stroke-miterlimit="10" stroke-linecap="round" stroke-linejoin="round"/>    <path d="M88.504 60.0851C88.9432 60.3318 89.7058 60.8259 90.5435 61.1214C91.9072 61.5503 93.3244 61.7253 94.3259 61.7231" stroke="#284892" stroke-miterlimit="10" stroke-linecap="round" stroke-linejoin="round"/>    <path d="M84.3154 75.2329C84.2113 74.4482 84.094 73.5635 84.103 72.8653C84.059 71.7677 84.0506 70.1716 85.1562 69.5312" stroke="#284892" stroke-miterlimit="10" stroke-linecap="round" stroke-linejoin="round"/>    <path d="M95.6552 62.9692C96.3136 62.6786 96.594 61.5088 96.8425 61.0838C97.0025 60.7577 97.2368 60.3345 97.3968 60.0084C97.891 59.2459 98.4728 58.2685 99.331 57.9514C99.8028 57.7871 100.302 57.7209 100.369 58.2203C100.435 58.7197 100.273 59.0316 100.027 59.3691C98.9512 61.109 98.7671 63.4421 97.791 65.1687C97.6853 65.357 97.5244 65.5671 97.3702 65.7182C97.2693 65.8333 97.1342 65.9093 96.9953 65.9567C96.8012 66.026 96.6176 66.0649 96.4397 66.1466C96.3027 66.2083 96.1657 66.2701 96.0286 66.3318C95.7137 66.4752 95.4036 66.5454 95.0725 66.6764C94.7128 66.8113 94.4084 66.9243 94.0231 66.9754" stroke="#284892" stroke-miterlimit="10" stroke-linecap="round" stroke-linejoin="round"/>    <path d="M99.3063 60.8446C99.9136 60.1687 101.254 58.8875 101.773 58.3104C102.293 57.7477 102.826 57.1688 103.751 57.3511C103.964 57.4245 104.362 57.4732 104.489 57.6597C104.628 57.9461 104.353 58.1714 104.18 58.3976C103.772 59.047 103.239 59.6259 102.719 60.1887C101.778 61.417 100.875 62.9306 99.8359 64.0704C99.4762 64.423 99.142 64.8594 98.557 64.937C98.2573 64.9767 97.7854 65.141 97.7854 65.141" stroke="#284892" stroke-miterlimit="10" stroke-linecap="round" stroke-linejoin="round"/>    <path d="M8.70977 69.7247C9.10967 70.0311 9.49431 70.4237 10.0844 70.4298C10.3867 70.4329 10.875 70.5386 10.875 70.5386C11.0744 70.7422 11.1731 70.9447 11.3593 71.033C11.5598 71.1358 11.7603 71.2387 12.0481 71.2416C12.6362 71.4492 14.3162 71.8551 14.8199 71.8602C15.1191 72.1656 15.405 72.3557 15.7062 72.4595C16.4958 72.6691 17.4889 72.6793 18.2795 72.7882C20.1629 73.0091 22.0484 73.0284 23.9309 73.3356C25.1205 73.8372 25.2923 75.336 25.3809 76.5173C25.4735 77.31 25.4654 78.1016 25.4562 78.9939C28.691 82.1939 32.4353 84.8234 36.5747 86.8379C35.5216 82.8542 34.2802 78.9837 33.0246 75.0987C31.5858 70.8232 29.4418 66.5404 25.1011 64.5094C21.5489 62.7888 17.487 63.0494 13.5197 62.5048C12.9306 62.398 12.0413 62.0866 11.5324 62.5852C11.1253 62.9841 11.3197 63.677 11.8205 63.97C12.1207 64.1746 12.4075 64.2783 12.8095 64.3832C14.2869 64.8878 15.9647 65.5096 17.5613 65.6267C16.2599 66.2036 14.7733 66.5914 13.8799 66.683C13.7801 66.5812 13.5807 66.3776 13.3946 66.2749C12.9937 66.0693 12.5054 65.9635 12.015 66.0592C11.9142 66.0582 11.9122 66.2597 12.0108 66.4622C11.8093 66.4602 11.6367 66.444 11.4486 66.5428C11.3064 66.3686 10.8387 65.6585 10.6403 65.3542C10.0573 64.6573 9.3612 63.7577 8.47091 63.547C7.98258 63.4412 7.4788 63.4361 7.47363 63.9398C7.46846 64.4436 7.66703 64.7335 7.95179 65.0387C8.35066 65.4459 8.63349 65.9382 8.82997 66.4296C8.14516 65.8324 6.6595 64.7232 6.07456 64.2133C5.48947 63.7179 4.89013 63.208 3.99466 63.5011C3.79213 63.5997 3.40247 63.6965 3.29965 63.897C3.1958 64.1982 3.49614 64.3884 3.69558 64.592C4.17888 65.1871 4.77821 65.6971 5.3633 66.1925C6.44609 67.2832 7.52519 68.7337 8.70977 69.7247Z" fill="white"/>    <path d="M23.0275 73.2258C23.0132 73.2256 22.9988 73.2255 22.9844 73.2253C23.3007 73.2574 23.6169 73.3038 23.9475 73.3504C25.1371 73.852 25.3089 75.3508 25.3975 76.5321C25.4901 77.3247 25.482 78.1163 25.4728 79.0087C26.3563 79.8814 27.2836 80.697 28.2399 81.4842C28.0211 77.5666 28.1093 73.1772 23.0275 73.2258Z" fill="#ECECEC"/>    <path d="M36.5907 86.7808C35.5366 82.8978 34.2963 78.9266 33.0396 75.1423C31.6008 70.8668 29.4568 66.584 25.1161 64.553C21.5639 62.8324 17.502 63.093 13.5347 62.5485C12.9456 62.4417 12.0564 62.1302 11.5474 62.6288C11.1403 63.0277 11.3347 63.7206 11.8355 64.0137C12.1357 64.2183 12.4225 64.322 12.8245 64.4269C14.3019 64.9314 15.9797 65.5532 17.5763 65.6704" stroke="#284892" stroke-miterlimit="10" stroke-linecap="round" stroke-linejoin="round"/>    <path d="M12.0125 66.491C11.768 66.4741 11.6236 66.5158 11.4503 66.5716" stroke="#284892" stroke-miterlimit="10" stroke-linecap="round" stroke-linejoin="round"/>    <path d="M19.4737 64.3939C19.0676 64.6921 18.3706 65.2751 17.5749 65.67C16.2733 66.2612 14.8879 66.6068 13.8934 66.7262" stroke="#284892" stroke-miterlimit="10" stroke-linecap="round" stroke-linejoin="round"/>    <path d="M25.4717 78.9218C25.4798 78.1302 25.489 77.2378 25.3953 76.5459C25.3058 75.451 25.1205 73.8657 23.9453 73.3643" stroke="#284892" stroke-miterlimit="10" stroke-linecap="round" stroke-linejoin="round"/>    <path d="M12.7266 68.125C12.0378 67.9164 11.6175 66.7893 11.3193 66.3976C11.1209 66.0933 10.837 65.7017 10.6386 65.3974C10.0556 64.7005 9.35946 63.8008 8.46916 63.5902C7.98083 63.4844 7.47706 63.4792 7.47189 63.983C7.46672 64.4867 7.66528 64.7767 7.95004 65.0819C9.22917 66.6784 9.69503 68.9719 10.8734 70.5674C11.0012 70.7415 11.1863 70.9305 11.3577 71.0618C11.4718 71.1637 11.6152 71.2228 11.7588 71.2531C11.9599 71.2983 12.1468 71.3146 12.3334 71.3741C12.4769 71.4188 12.6203 71.4634 12.7638 71.5081C13.0938 71.6122 13.4102 71.6443 13.7547 71.7342C14.1281 71.8244 14.444 71.8996 14.8326 71.9036" stroke="#284892" stroke-miterlimit="10" stroke-linecap="round" stroke-linejoin="round"/>    <path d="M8.84408 66.4589C8.15927 65.8616 6.67362 64.7524 6.08867 64.2426C5.50358 63.7472 4.90424 63.2372 4.00877 63.5303C3.80624 63.629 3.41659 63.7258 3.31377 63.9262C3.20991 64.2275 3.51025 64.4177 3.70969 64.6212C4.19299 65.2164 4.79232 65.7263 5.37741 66.2217C6.46006 67.3268 7.53973 68.7198 8.70977 69.725C9.10967 70.0314 9.49431 70.424 10.0844 70.4301C10.3867 70.4332 10.875 70.539 10.875 70.539" stroke="#284892" stroke-miterlimit="10" stroke-linecap="round" stroke-linejoin="round"/>    <path d="M20.4199 73.1934C24.0431 78.4974 28.8924 82.8484 34.556 85.8769C40.2195 88.9055 46.5301 90.5223 52.9519 90.5899C59.3736 90.6575 65.7169 89.1739 71.4429 86.2652C76.6458 83.6223 81.1995 79.8737 84.7893 75.29C86.1172 73.4723 87.42 71.346 88.6146 68.9619" stroke="#648CE5" stroke-linecap="round" stroke-linejoin="round"/>    <path d="M89.9802 66.0596C90.7385 65.7558 91.6629 65.9381 92.2948 65.4477C92.8401 65.0704 93.0621 64.4457 93.2842 63.8209C93.4309 63.3949 93.6549 62.7844 93.9015 62.3451C94.1482 61.9058 94.3462 61.6472 94.6917 61.2965C95.0514 60.9438 95.6327 60.8377 96.1311 60.8732C96.3441 60.9466 96.0994 61.4001 96.026 61.6132C95.5114 62.9882 95.0719 64.6001 94.5422 65.861C94.2335 66.5989 94.0096 67.2094 93.1989 67.6655C92.4406 67.9693 91.456 68.0999 90.6845 68.3039C88.8418 68.7517 86.9726 68.9996 85.1412 69.5329C84.6066 69.662 83.7542 69.8041 83.1586 70.1299" stroke="#284892" stroke-miterlimit="10" stroke-linecap="round" stroke-linejoin="round"/>    <path d="M18.7355 70.5036C17.946 70.294 17.0505 70.5871 16.3638 70.177C15.7767 69.8687 15.4805 69.2755 15.1843 68.6823C14.987 68.2772 14.6906 67.6984 14.3925 67.2923C14.0944 66.8862 13.8665 66.6535 13.481 66.3473C13.0811 66.0409 12.4912 66.006 12.0008 66.1018C11.7983 66.2005 12.0963 66.621 12.1949 66.8235C12.8725 68.126 13.5044 69.6727 14.1832 70.86C14.5791 71.555 14.8754 72.1338 15.7354 72.4881C16.525 72.6977 17.5181 72.7079 18.3087 72.8168C20.1921 73.0376 22.0776 73.057 23.9602 73.3642C24.5065 73.4274 25.3698 73.465 26.0006 73.7162" stroke="#284892" stroke-miterlimit="10" stroke-linecap="round" stroke-linejoin="round"/></svg>