<?xml version="1.0" encoding="utf-8"?>
<!-- Generator: Adobe Illustrator 26.0.1, SVG Export Plug-In . SVG Version: 6.00 Build 0)  -->
<svg version="1.1" id="Layer_1" xmlns="http://www.w3.org/2000/svg" xmlns:xlink="http://www.w3.org/1999/xlink" x="0px" y="0px"
	 viewBox="0 0 120 120" style="enable-background:new 0 0 120 120;" xml:space="preserve">
<style type="text/css">
	.st0{fill:#284892;}
	.st1{fill:#E79B24;}
	.st2{opacity:0.9;fill:#224084;enable-background:new    ;}
	.st3{fill:#FFFFFF;}
</style>
<g>
	<path class="st0" d="M51.2,5.4l52.2,20.3c10.1,3.9,15.2,15.3,11.2,25.5l-20.3,52.2c-3.9,10.1-15.3,15.2-25.5,11.2L16.6,94.3
		C6.5,90.4,1.5,79,5.4,68.8l20.3-52.2C29.6,6.5,41,1.5,51.2,5.4z"/>
	<path class="st1" d="M73.9,6.5l39.6,39.6c7.7,7.7,7.7,20.1,0,27.8l-39.6,39.6c-7.7,7.7-20.1,7.7-27.8,0L6.5,73.9
		c-7.7-7.7-7.7-20.1,0-27.8L46.1,6.5C53.8-1.2,66.2-1.2,73.9,6.5z"/>
	<path class="st2" d="M51.2,5.4l52.2,20.3c10.1,3.9,15.2,15.3,11.2,25.5l-20.3,52.2c-3.9,10.1-15.3,15.2-25.5,11.2L16.6,94.3
		C6.5,90.4,1.5,79,5.4,68.8l20.3-52.2C29.6,6.5,41,1.5,51.2,5.4z"/>
	<path class="st3" d="M103.9,47.8C88,32,66.4,25.6,46,46c-18.3,18.3-14.1,42.1,1.8,57.9l4.1,4.1l17,6.6c10.1,3.9,21.5-1.1,25.5-11.2
		l6.5-16.8l-3.9,3.9C90.5,97,80.6,97.1,74,92L111.1,55L103.9,47.8z M62.1,80.3c0,0-1-1.3-1.3-1.8c-3.8-5.4-5.5-12.6-0.2-18.2
		c0.6-0.6,1.8-1.7,2.4-2.1c6.1-4.6,12.3-2.7,17.3,2.7c0.2,0.2,0.7,0.7,0.7,0.7L62.1,80.3z"/>
</g>
</svg>
